<svg width="62" height="45" viewBox="0 0 62 45" fill="none" xmlns="http://www.w3.org/2000/svg">
<g clip-path="url(#clip0_4422_12)">
<path fill-rule="evenodd" clip-rule="evenodd" d="M27.7507 0H34.3099C34.4437 0 34.5721 0.0535048 34.6667 0.148744C34.7613 0.243983 34.8145 0.373155 34.8145 0.507843V4.57059H48.5384V0.507843C48.5384 0.373155 48.5916 0.243983 48.6862 0.148744C48.7808 0.0535048 48.9092 0 49.043 0L55.6022 0C55.736 0 55.8644 0.0535048 55.959 0.148744C56.0536 0.243983 56.1068 0.373155 56.1068 0.507843V4.57059H62.005V10.9136H0V4.57059H6.05469V0.507843C6.05469 0.373155 6.10785 0.243983 6.20247 0.148744C6.29709 0.0535048 6.42543 0 6.55925 0L13.1185 0C13.2523 0 13.3806 0.0535048 13.4753 0.148744C13.5699 0.243983 13.623 0.373155 13.623 0.507843V4.57059H27.2461V0.507843C27.2461 0.373155 27.2993 0.243983 27.3939 0.148744C27.4885 0.0535048 27.6168 0 27.7507 0V0ZM3.44613 13.8083H58.5286V42.2881C58.5273 43.0069 58.243 43.6959 57.738 44.2042C57.233 44.7125 56.5485 44.9987 55.8343 45H6.14046C5.42629 44.9987 4.74175 44.7125 4.23675 44.2042C3.73176 43.6959 3.44746 43.0069 3.44613 42.2881V13.8083ZM16.9229 35.3154H10.2021V24.7523H13.5625V32.6137H16.9229V35.3154V35.3154ZM17.8462 35.3154V27.2864L21.1914 27.2001V35.3256L17.8462 35.3154ZM18.0379 25.6664C17.8967 25.5328 17.7888 25.3674 17.723 25.1839C17.6573 25.0003 17.6355 24.8037 17.6595 24.6101C17.6382 24.4151 17.6612 24.2178 17.7268 24.033C17.7923 23.8483 17.8987 23.6809 18.0379 23.5436C18.4994 23.2879 19.0279 23.1815 19.5516 23.2389C20.0753 23.1818 20.6037 23.2882 21.0653 23.5436C21.2036 23.6816 21.3094 23.849 21.3749 24.0336C21.4404 24.2182 21.4639 24.4152 21.4437 24.6101C21.4661 24.8021 21.4435 24.9967 21.3778 25.1784C21.3121 25.36 21.205 25.5237 21.0653 25.6562C20.5998 25.8998 20.0734 26.0005 19.5516 25.9457C19.0297 26.0008 18.5033 25.9001 18.0379 25.6562V25.6664ZM22.4629 31.9433V30.11C22.4461 29.9959 22.4635 29.8794 22.513 29.7753C22.5624 29.6713 22.6416 29.5845 22.7404 29.526C23.024 29.4274 23.3237 29.3843 23.6234 29.3991H27.5034V31.2273C27.5034 31.532 27.4126 31.7351 27.2259 31.8113C26.9419 31.9077 26.6423 31.9491 26.3429 31.9332L22.4629 31.9433ZM28.7598 35.3154V27.2864L32.1201 27.2001V35.3256L28.7598 35.3154ZM28.9565 25.6664C28.8171 25.5336 28.7103 25.3699 28.6446 25.1883C28.5789 25.0067 28.5562 24.8122 28.5781 24.6202C28.5568 24.4252 28.5798 24.2279 28.6454 24.0432C28.7109 23.8584 28.8173 23.6911 28.9565 23.5538C29.4178 23.2974 29.9465 23.191 30.4702 23.2491C30.9939 23.191 31.5227 23.2974 31.9839 23.5538C32.1231 23.6911 32.2295 23.8584 32.2951 24.0432C32.3606 24.2279 32.3836 24.4252 32.3623 24.6202C32.3843 24.8122 32.3615 25.0067 32.2958 25.1883C32.2302 25.3699 32.1233 25.5336 31.9839 25.6664C31.5188 25.9111 30.9921 26.0119 30.4702 25.9559C29.9483 26.0119 29.4217 25.9111 28.9565 25.6664V25.6664ZM34.3503 34.4623C33.6489 33.7259 33.3008 32.5985 33.3008 31.0902C33.3008 29.5819 33.6489 28.4545 34.3503 27.7181C35.0516 26.9817 36.1818 26.611 37.751 26.611C39.3202 26.611 40.4504 26.9817 41.1517 27.7181C41.853 28.4545 42.2012 29.5819 42.2012 31.0902C42.2012 32.5985 41.848 33.7259 41.1517 34.4623C40.4554 35.1986 39.3151 35.549 37.751 35.549C36.1869 35.549 35.0466 35.1834 34.3503 34.4419V34.4623ZM36.9084 29.7901V33.1012H37.4129C37.7127 33.119 38.013 33.0759 38.2959 32.9743C38.4826 32.893 38.5734 32.695 38.5734 32.3902V29.0791H38.0688C37.7691 29.0617 37.4688 29.1049 37.1859 29.2061C37.0871 29.2645 37.0079 29.3513 36.9584 29.4554C36.909 29.5594 36.8916 29.676 36.9084 29.7901V29.7901ZM45.057 26.8649L45.9147 27.7079C46.8912 26.9973 48.065 26.6135 49.27 26.611C49.9245 26.5691 50.5743 26.7478 51.1167 27.1188C51.3367 27.283 51.5134 27.4989 51.6312 27.7476C51.7491 27.9964 51.8046 28.2705 51.7928 28.5459V35.3154H48.4375V29.3991H47.9329C47.6383 29.3867 47.344 29.4298 47.0651 29.526C46.9701 29.5697 46.8909 29.6421 46.8385 29.7331C46.7861 29.824 46.763 29.9291 46.7725 30.0339V35.3154H43.3919V26.8649H45.057Z" fill="white"/>
</g>
<defs>
<clipPath id="clip0_4422_12">
<rect width="62" height="45" fill="white"/>
</clipPath>
</defs>
</svg>
