<svg width="123" height="123" viewBox="0 0 123 123" fill="none" xmlns="http://www.w3.org/2000/svg">
<g clip-path="url(#clip0_5067_10)">
<path d="M73.8098 7.47001C81.0358 9.70632 87.5468 13.8033 92.6898 19.35C98.2552 25.2876 101.991 32.7037 103.45 40.71V40.99C103.66 42.2 103.81 43.35 103.9 44.43C104.01 45.69 104.07 46.96 104.07 48.23V58.36C104.07 61.17 104.07 64.03 104.27 66.9C104.533 72.0492 106.021 77.0613 108.61 81.52C111.523 86.0864 115.413 89.9492 120 92.83C121.301 93.6807 122.244 94.9796 122.65 96.48C122.954 97.6511 122.926 98.8838 122.57 100.04C122.219 101.196 121.558 102.233 120.66 103.04C119.485 104.07 117.972 104.629 116.41 104.61H82.2698V104.69C78.1298 128.89 44.6598 128.82 40.6198 104.61H6.44978C4.80306 104.647 3.20674 104.041 1.99978 102.92C1.14123 102.1 0.519931 101.063 0.201377 99.9188C-0.117177 98.7748 -0.121184 97.5661 0.189778 96.42C0.621345 94.8714 1.62598 93.545 2.99978 92.71C8.65978 88.88 12.6198 84.71 15.1198 79.95C17.6198 75.19 18.7698 69.51 18.7698 62.67V48.23C18.7698 47.07 18.8298 45.81 18.9498 44.46C19.0698 43.11 19.2398 41.94 19.4598 40.7C20.8992 32.9331 24.4557 25.7145 29.737 19.8404C35.0182 13.9662 41.8192 9.66463 49.3898 7.41001C53.9998 -2.46999 69.1998 -2.48999 73.8098 7.47001ZM87.7098 24C83.0366 18.9534 77.0271 15.3366 70.3798 13.57C69.8151 13.4149 69.2996 13.1173 68.8829 12.7058C68.4662 12.2943 68.1621 11.7827 67.9998 11.22C66.2898 5.35001 56.9998 5.22001 55.2798 11.17C55.1123 11.7498 54.7949 12.2752 54.3594 12.6931C53.924 13.111 53.386 13.4065 52.7998 13.55C46.114 15.2369 40.0512 18.8033 35.3284 23.8273C30.6057 28.8513 27.4205 35.1228 26.1498 41.9C25.9631 42.9533 25.8231 44.0033 25.7298 45.05C25.6398 46.05 25.5998 47.05 25.5998 48.23V62.67C25.5998 70.58 24.2198 77.23 21.1498 83.1C18.2098 88.72 13.7898 93.49 7.60978 97.82H115.27C110.248 94.4824 105.997 90.1117 102.8 85C99.6625 79.6366 97.8459 73.6039 97.4998 67.4C97.2798 64.52 97.2898 61.4 97.2998 58.4V48.23C97.2998 47.13 97.2998 46.06 97.1698 45.01C97.0398 43.96 96.9598 43.01 96.8098 42.16L96.7498 41.89C95.5242 35.1851 92.4006 28.9727 87.7498 23.99L87.7098 24Z" fill="#758AFB"/>
</g>
<defs>
<clipPath id="clip0_5067_10">
<rect width="122.88" height="122.83" fill="white"/>
</clipPath>
</defs>
</svg>
