<svg width="39" height="39" viewBox="0 0 39 39" fill="none" xmlns="http://www.w3.org/2000/svg">
<circle cx="19.5" cy="19.5" r="19" stroke="#758AFB"/>
<g clip-path="url(#clip0_5058_10)">
<path d="M27.3824 11.8167L23.9293 11.0199C23.5541 10.9335 23.1689 11.1294 23.0162 11.4814L21.4224 15.2001C21.283 15.5255 21.376 15.9074 21.6515 16.1298L23.6636 17.7767C22.4683 20.3234 20.3799 22.4417 17.7801 23.6603L16.1332 21.6482C15.9074 21.3726 15.5289 21.2796 15.2035 21.4191L11.4847 23.0128C11.1295 23.1689 10.9336 23.554 11.0199 23.9292L11.8168 27.3824C11.8998 27.7409 12.2185 27.9999 12.5937 27.9999C21.097 27.9999 28 21.1103 28 12.5937C28 12.2218 27.7443 11.8997 27.3824 11.8167Z" fill="#758AFB"/>
</g>
<defs>
<clipPath id="clip0_5058_10">
<rect width="17" height="17" fill="white" transform="translate(11 11)"/>
</clipPath>
</defs>
</svg>
