<svg width="39" height="39" viewBox="0 0 39 39" fill="none" xmlns="http://www.w3.org/2000/svg">
<circle cx="19.5" cy="19.5" r="19" stroke="#758AFB"/>
<path d="M27.6779 17.3352C27.8074 17.2322 28 17.3285 28 17.4912V24.2812C28 25.1611 27.2861 25.875 26.4062 25.875H12.5938C11.7139 25.875 11 25.1611 11 24.2812V17.4945C11 17.3285 11.1893 17.2355 11.3221 17.3385C12.0658 17.9162 13.052 18.65 16.4387 21.1104C17.1393 21.6217 18.3213 22.6975 19.5 22.6908C20.6854 22.7008 21.8906 21.6018 22.5646 21.1104C25.9514 18.65 26.9342 17.9129 27.6779 17.3352ZM19.5 21.625C20.2703 21.6383 21.3793 20.6555 21.9371 20.2504C26.3432 17.0529 26.6785 16.774 27.6945 15.9771C27.8871 15.8277 28 15.5953 28 15.3496V14.7188C28 13.8389 27.2861 13.125 26.4062 13.125H12.5938C11.7139 13.125 11 13.8389 11 14.7188V15.3496C11 15.5953 11.1129 15.8244 11.3055 15.9771C12.3215 16.7707 12.6568 17.0529 17.0629 20.2504C17.6207 20.6555 18.7297 21.6383 19.5 21.625Z" fill="#758AFB"/>
</svg>
