<svg width="39" height="39" viewBox="0 0 39 39" fill="none" xmlns="http://www.w3.org/2000/svg">
<circle cx="19.5" cy="19.5" r="19" stroke="#758AFB"/>
<g clip-path="url(#clip0_5058_5)">
<path d="M18.8448 27.657C14.0205 20.6631 13.125 19.9454 13.125 17.375C13.125 13.8542 15.9792 11 19.5 11C23.0208 11 25.875 13.8542 25.875 17.375C25.875 19.9454 24.9795 20.6631 20.1552 27.657C19.8386 28.1144 19.1614 28.1143 18.8448 27.657ZM19.5 20.0312C20.967 20.0312 22.1562 18.842 22.1562 17.375C22.1562 15.908 20.967 14.7188 19.5 14.7188C18.033 14.7188 16.8438 15.908 16.8438 17.375C16.8438 18.842 18.033 20.0312 19.5 20.0312Z" fill="#758AFB"/>
</g>
<defs>
<clipPath id="clip0_5058_5">
<rect width="17" height="17" fill="white" transform="translate(11 11)"/>
</clipPath>
</defs>
</svg>
