<svg width="82" height="123" viewBox="0 0 82 123" fill="none" xmlns="http://www.w3.org/2000/svg">
<g clip-path="url(#clip0_5079_2)">
<path d="M25.47 97.64C24.7806 97.6554 24.1106 97.4113 23.5927 96.956C23.0748 96.5007 22.7469 95.8674 22.6739 95.1817C22.6009 94.496 22.7882 93.8079 23.1987 93.2538C23.6091 92.6997 24.2128 92.32 24.89 92.19C23.31 83.26 19 78.34 14.47 73.13C10.93 69.13 7.26 64.88 4.36 58.69C1.49521 52.7868 0.00458746 46.3115 0 39.75C0.145589 32.6684 1.97612 25.7233 5.34 19.49L5.41 19.36C9.67598 11.9846 16.2663 6.23131 24.15 2.99998C30.3375 0.51228 37.0314 -0.45478 43.67 0.179985C50.2416 0.790352 56.5984 2.83875 62.29 6.17998C69.5844 10.3694 75.2981 16.8421 78.55 24.6C80.4359 29.1472 81.4795 33.9994 81.63 38.92C81.7547 44.6851 80.6786 50.4132 78.47 55.74C75.24 63.72 71 68.68 67 73.33C63.32 77.6 59.9 81.58 58 87.67C58.6209 87.8234 59.1692 88.1877 59.5513 88.7005C59.9334 89.2134 60.1255 89.8431 60.0948 90.4819C60.0641 91.1207 59.8125 91.7291 59.383 92.2029C58.9535 92.6768 58.3727 92.9868 57.74 93.08L56.81 93.21C56.6367 94.5433 56.5267 95.9633 56.48 97.47H56.79C57.4929 97.4135 58.1907 97.6281 58.7403 98.0698C59.29 98.5116 59.6496 99.1469 59.7456 99.8455C59.8416 100.544 59.6665 101.253 59.2564 101.826C58.8462 102.4 58.2321 102.795 57.54 102.93L56.6 103.06C56.6 103.24 56.6 103.43 56.6 103.61C56.6696 104.639 56.6696 105.671 56.6 106.7H56.76C57.4631 106.655 58.1569 106.88 58.6992 107.33C59.2416 107.779 59.5915 108.419 59.6771 109.119C59.7628 109.818 59.5777 110.524 59.16 111.091C58.7422 111.658 58.1232 112.044 57.43 112.17L55.43 112.43C54.0938 115.965 51.5837 118.934 48.32 120.84C46.2477 122.055 43.9179 122.764 41.52 122.91C39.1072 123.07 36.6943 122.598 34.52 121.54C31.79 120.177 29.5503 118 28.11 115.31C27.7076 115.105 27.3615 114.804 27.1018 114.435C26.8421 114.065 26.6767 113.638 26.62 113.19C26.5809 112.828 26.608 112.462 26.7 112.11C26.2005 110.601 25.8488 109.047 25.65 107.47H25.6C24.8773 107.571 24.1441 107.38 23.5618 106.941C22.9795 106.501 22.5958 105.848 22.495 105.125C22.3942 104.402 22.5847 103.669 23.0244 103.087C23.4642 102.505 24.1173 102.121 24.84 102.02L25.5 101.92C25.54 100.427 25.54 99.0167 25.5 97.69L25.47 97.64ZM37.75 69.73C38.19 72.79 38.52 75.38 39.58 77.66C40.64 79.94 41.12 80.88 40.78 77.83C40.3531 74.9442 40.2224 72.0223 40.39 69.11L40.86 68.81C59.58 56.3 63.93 37.91 39.23 17.21C31.37 33.39 12.65 48.72 35.75 68.3C36.3481 68.8659 37.0211 69.3471 37.75 69.73ZM38.39 63C33.68 50.13 41.15 36.63 40.39 25.42C45.69 42 41.62 47.15 38.39 63ZM30 91.45L52.41 88.27C54.34 80.15 58.53 75.27 63.07 69.99C66.8 65.65 70.78 60.99 73.69 53.83C75.6358 49.1536 76.5893 44.1241 76.49 39.06C76.348 34.7533 75.4265 30.5079 73.77 26.53C70.9483 19.8153 65.9975 14.2145 59.68 10.59C54.6486 7.62911 49.0239 5.81911 43.21 5.28998C37.3871 4.72446 31.5134 5.56111 26.08 7.72998C19.2512 10.5476 13.5453 15.5434 9.85 21.94C6.88086 27.431 5.25963 33.5492 5.12 39.79C5.13231 45.5882 6.45889 51.3082 9 56.52C11.59 62.05 15 65.98 18.32 69.76C23.46 75.64 28.32 81.2 30.02 91.45H30ZM51.52 94L30.59 97C30.6633 98.3333 30.6833 99.7333 30.65 101.2L51.32 98.27C51.32 96.77 51.4 95.36 51.52 94.03V94ZM30.75 106.69C30.8827 107.732 31.0966 108.762 31.39 109.77L51.45 107.3C51.5848 106.195 51.6082 105.08 51.52 103.97V103.77L30.77 106.71L30.75 106.69ZM34.25 114.98C34.9846 115.75 35.8475 116.386 36.8 116.86C38.1848 117.525 39.7167 117.825 41.25 117.73C42.848 117.628 44.3996 117.151 45.78 116.34C47.1615 115.535 48.3522 114.439 49.27 113.13L34.27 114.98H34.25Z" fill="white"/>
</g>
<defs>
<clipPath id="clip0_5079_2">
<rect width="81.64" height="122.88" fill="white"/>
</clipPath>
</defs>
</svg>
