<svg width="43" height="43" viewBox="0 0 43 43" fill="none" xmlns="http://www.w3.org/2000/svg">
<circle cx="21.5" cy="21.5" r="21" stroke="#E4D11B"/>
<g clip-path="url(#clip0_5038_2)">
<path d="M31.237 12.0089L26.9714 11.0246C26.5079 10.9179 26.0322 11.1599 25.8435 11.5947L23.8747 16.1884C23.7025 16.5904 23.8173 17.0621 24.1578 17.3369L26.6433 19.3712C25.1667 22.5171 22.5869 25.1339 19.3753 26.6392L17.341 24.1537C17.062 23.8132 16.5945 23.6984 16.1925 23.8707L11.5988 25.8394C11.1599 26.0322 10.9179 26.508 11.0245 26.9714L12.0089 31.2371C12.1115 31.68 12.5052 32 12.9687 32C23.4728 32 31.9999 23.4892 31.9999 12.9687C31.9999 12.5093 31.6841 12.1115 31.237 12.0089Z" fill="#E4D11B"/>
</g>
<defs>
<clipPath id="clip0_5038_2">
<rect width="21" height="21" fill="white" transform="translate(11 11)"/>
</clipPath>
</defs>
</svg>
