<svg width="16" height="16" viewBox="0 0 16 16" fill="none" xmlns="http://www.w3.org/2000/svg">
<g clip-path="url(#clip0_3993_13)">
<path d="M7.99984 6.42901e-06C9.85139 -0.000522828 11.6458 0.641002 13.0774 1.81526C14.509 2.98952 15.489 4.62385 15.8506 6.43975C16.2122 8.25565 15.933 10.1408 15.0604 11.7738C14.1879 13.4069 12.7761 14.6869 11.0655 15.3957C9.35502 16.1044 7.45166 16.1982 5.67978 15.6608C3.90791 15.1235 2.37718 13.9884 1.34843 12.449C0.319686 10.9095 -0.143413 9.06095 0.0380501 7.21831C0.219513 5.37567 1.03431 3.65297 2.34359 2.34376C3.08544 1.59964 3.96706 1.0095 4.93776 0.607276C5.90847 0.205051 6.9491 -0.00132789 7.99984 6.42901e-06ZM8.4113 7.1849C8.56937 7.26478 8.70096 7.38869 8.79021 7.54167H10.0793C10.0555 7.48472 10.0471 7.42252 10.0548 7.36128C10.0626 7.30005 10.0863 7.24193 10.1235 7.19271C10.1801 7.12025 10.263 7.07304 10.3542 7.06134C10.4454 7.04963 10.5375 7.07439 10.6105 7.13021L11.3774 7.72266C11.4182 7.755 11.4512 7.79618 11.4737 7.8431C11.4963 7.89001 11.5079 7.94144 11.5077 7.9935V8.00131C11.508 8.05357 11.4964 8.10522 11.4739 8.15236C11.4513 8.1995 11.4183 8.2409 11.3774 8.27344L10.6105 8.86459C10.5504 8.90968 10.4773 8.934 10.4021 8.93389C10.327 8.93377 10.254 8.90923 10.194 8.86396C10.134 8.8187 10.0904 8.75516 10.0697 8.68293C10.049 8.6107 10.0524 8.5337 10.0793 8.46355H8.7889C8.71892 8.58002 8.62378 8.67937 8.51044 8.75432C8.39711 8.82928 8.26845 8.87795 8.13388 8.89677C7.99931 8.91559 7.86224 8.90409 7.73269 8.8631C7.60314 8.82211 7.48439 8.75267 7.38514 8.65987C7.28589 8.56707 7.20864 8.45325 7.15905 8.32675C7.10946 8.20024 7.08878 8.06425 7.09853 7.92872C7.10828 7.79319 7.1482 7.66155 7.21538 7.54344C7.28257 7.42534 7.37531 7.32374 7.48682 7.2461L7.49724 5.48308C7.42638 5.51231 7.34783 5.51721 7.27389 5.49701C7.19995 5.47681 7.13479 5.43266 7.08864 5.37146C7.04248 5.31027 7.01793 5.23549 7.01882 5.15885C7.01972 5.0822 7.04602 5.00802 7.09359 4.94792L7.70166 4.19532C7.73308 4.15608 7.77263 4.12412 7.81758 4.10164C7.86254 4.07916 7.91184 4.0667 7.96208 4.06511H7.96989C8.02543 4.06376 8.08048 4.07583 8.13035 4.10032C8.18023 4.1248 8.22345 4.16096 8.25635 4.20574L8.83057 4.98699C8.8754 5.04761 8.89922 5.1212 8.89843 5.1966C8.89763 5.27199 8.87225 5.34506 8.82614 5.40472C8.78004 5.46438 8.71572 5.50736 8.64296 5.52714C8.57021 5.54693 8.49298 5.54243 8.42302 5.51433L8.4113 7.1849ZM11.2759 12.9063C11.3108 12.9931 11.3133 13.0896 11.283 13.1782C11.2527 13.2667 11.1916 13.3415 11.1109 13.3888C11.0301 13.4361 10.935 13.4529 10.843 13.436C10.7509 13.4191 10.6679 13.3698 10.6092 13.2969L10.3215 12.7995C10.2866 12.7126 10.2841 12.6161 10.3144 12.5276C10.3446 12.439 10.4057 12.3642 10.4865 12.3169C10.5672 12.2696 10.6623 12.2529 10.7544 12.2697C10.8464 12.2866 10.9294 12.336 10.9881 12.4089L11.2759 12.9076V12.9063ZM4.7225 3.09245C4.69178 3.00623 4.69233 2.91195 4.72403 2.82609C4.75573 2.74022 4.81658 2.66821 4.89596 2.62263C4.97534 2.57705 5.0682 2.56079 5.15834 2.5767C5.24848 2.5926 5.33017 2.63965 5.38916 2.70964L5.67692 3.20704C5.71378 3.25077 5.74058 3.30206 5.75544 3.35728C5.7703 3.41251 5.77286 3.47032 5.76292 3.52664C5.75298 3.58296 5.7308 3.63641 5.69794 3.68322C5.66508 3.73003 5.62235 3.76905 5.57275 3.79753C5.52316 3.82601 5.46791 3.84325 5.41092 3.84803C5.35394 3.85282 5.29659 3.84503 5.24294 3.82522C5.18929 3.80542 5.14065 3.77407 5.10044 3.7334C5.06023 3.69273 5.02945 3.64372 5.01026 3.58985L4.7225 3.09245ZM13.2902 10.6107C13.3441 10.6299 13.3931 10.6607 13.4338 10.7009C13.4744 10.7411 13.5058 10.7897 13.5256 10.8434C13.5454 10.897 13.5532 10.9544 13.5484 11.0113C13.5436 11.0683 13.5264 11.1236 13.4979 11.1732C13.4694 11.2228 13.4304 11.2655 13.3836 11.2984C13.3368 11.3312 13.2833 11.3534 13.227 11.3633C13.1707 11.3733 13.1129 11.3707 13.0576 11.3559C13.0024 11.341 12.9511 11.3142 12.9074 11.2773L12.41 10.9896C12.34 10.9306 12.293 10.8489 12.2771 10.7588C12.2611 10.6686 12.2774 10.5758 12.323 10.4964C12.3686 10.417 12.4406 10.3562 12.5264 10.3245C12.6123 10.2928 12.7066 10.2922 12.7928 10.3229L13.2902 10.6107ZM2.70817 5.38933C2.65604 5.3684 2.60904 5.33648 2.57037 5.29573C2.5317 5.25498 2.50227 5.20638 2.48409 5.15322C2.46591 5.10007 2.45941 5.04362 2.46504 4.98773C2.47066 4.93184 2.48827 4.87781 2.51667 4.82934C2.54507 4.78088 2.58359 4.7391 2.6296 4.70688C2.67561 4.67465 2.72803 4.65272 2.78329 4.6426C2.83854 4.63247 2.89533 4.63438 2.94978 4.6482C3.00423 4.66202 3.05506 4.68742 3.0988 4.72266L3.5975 5.01042C3.67038 5.06915 3.71975 5.1521 3.73662 5.24417C3.7535 5.33624 3.73675 5.4313 3.68943 5.51206C3.64211 5.59282 3.56736 5.6539 3.4788 5.68419C3.39023 5.71448 3.29374 5.71196 3.20687 5.67709L2.70817 5.38933ZM13.8879 7.61329C13.9801 7.6275 14.0641 7.67423 14.1249 7.74504C14.1856 7.81586 14.219 7.90607 14.219 7.99936C14.219 8.09264 14.1856 8.18285 14.1249 8.25367C14.0641 8.32448 13.9801 8.37121 13.8879 8.38542H13.3123C13.2201 8.37121 13.1361 8.32448 13.0753 8.25367C13.0146 8.18285 12.9812 8.09264 12.9812 7.99936C12.9812 7.90607 13.0146 7.81586 13.0753 7.74504C13.1361 7.67423 13.2201 7.6275 13.3123 7.61329H13.8879ZM2.11182 8.38672C2.05615 8.3953 1.99928 8.39174 1.94512 8.37628C1.89095 8.36082 1.84077 8.33383 1.79801 8.29716C1.75526 8.26049 1.72094 8.215 1.69741 8.16383C1.67388 8.11265 1.6617 8.05698 1.6617 8.00066C1.6617 7.94433 1.67388 7.88867 1.69741 7.83749C1.72094 7.78631 1.75526 7.74083 1.79801 7.70415C1.84077 7.66748 1.89095 7.64049 1.94512 7.62503C1.99928 7.60957 2.05615 7.60601 2.11182 7.61459H2.68734C2.77954 7.6288 2.86361 7.67554 2.92435 7.74635C2.98508 7.81716 3.01847 7.90737 3.01847 8.00066C3.01847 8.09395 2.98508 8.18416 2.92435 8.25497C2.86361 8.32578 2.77954 8.37252 2.68734 8.38672H2.11182ZM12.9074 4.72266C12.9936 4.69195 13.0879 4.69249 13.1738 4.72419C13.2596 4.7559 13.3316 4.81675 13.3772 4.89612C13.4228 4.9755 13.4391 5.06836 13.4231 5.15851C13.4072 5.24865 13.3602 5.33034 13.2902 5.38933L12.7928 5.67709C12.7066 5.7078 12.6123 5.70726 12.5264 5.67556C12.4406 5.64386 12.3686 5.58301 12.323 5.50363C12.2774 5.42425 12.2611 5.33139 12.2771 5.24125C12.293 5.15111 12.34 5.06941 12.41 5.01042L12.9074 4.72266ZM3.09229 11.2773C3.04856 11.3142 2.99727 11.341 2.94204 11.3559C2.88682 11.3707 2.829 11.3733 2.77268 11.3633C2.71636 11.3534 2.66291 11.3312 2.61611 11.2984C2.5693 11.2655 2.53028 11.2228 2.5018 11.1732C2.47332 11.1236 2.45608 11.0683 2.45129 11.0113C2.44651 10.9544 2.45429 10.897 2.4741 10.8434C2.49391 10.7897 2.52526 10.7411 2.56593 10.7009C2.6066 10.6607 2.6556 10.6299 2.70948 10.6107L3.20687 10.3229C3.2931 10.2922 3.38737 10.2928 3.47324 10.3245C3.55911 10.3562 3.63111 10.417 3.67669 10.4964C3.72227 10.5758 3.73853 10.6686 3.72263 10.7588C3.70673 10.8489 3.65967 10.9306 3.58968 10.9896L3.09229 11.2773ZM10.6105 2.70964C10.6695 2.63965 10.7512 2.5926 10.8413 2.5767C10.9315 2.56079 11.0243 2.57705 11.1037 2.62263C11.1831 2.66821 11.2439 2.74022 11.2757 2.82609C11.3074 2.91195 11.3079 3.00623 11.2772 3.09245L10.9894 3.58985C10.9702 3.64372 10.9394 3.69273 10.8992 3.7334C10.859 3.77407 10.8104 3.80542 10.7567 3.82522C10.7031 3.84503 10.6457 3.85282 10.5888 3.84803C10.5318 3.84325 10.4765 3.82601 10.4269 3.79753C10.3773 3.76905 10.3346 3.73003 10.3017 3.68322C10.2689 3.63641 10.2467 3.58296 10.2368 3.52664C10.2268 3.47032 10.2294 3.41251 10.2442 3.35728C10.2591 3.30206 10.2859 3.25077 10.3228 3.20704L10.6105 2.70964ZM5.38916 13.2917C5.33043 13.3646 5.24748 13.4139 5.15542 13.4308C5.06335 13.4477 4.96828 13.4309 4.88752 13.3836C4.80676 13.3363 4.74568 13.2615 4.71539 13.173C4.68511 13.0844 4.68763 12.9879 4.7225 12.901L5.01026 12.4023C5.06899 12.3295 5.15194 12.2801 5.24401 12.2632C5.33607 12.2464 5.43114 12.2631 5.5119 12.3104C5.59266 12.3577 5.65374 12.4325 5.68403 12.521C5.71432 12.6096 5.71179 12.7061 5.67692 12.793L5.38916 13.2904V13.2917ZM7.61312 2.11199C7.62733 2.01978 7.67407 1.93571 7.74488 1.87498C7.81569 1.81424 7.9059 1.78086 7.99919 1.78086C8.09248 1.78086 8.18269 1.81424 8.2535 1.87498C8.32431 1.93571 8.37105 2.01978 8.38526 2.11199V2.68751C8.37105 2.77971 8.32431 2.86378 8.2535 2.92451C8.18269 2.98525 8.09248 3.01864 7.99919 3.01864C7.9059 3.01864 7.81569 2.98525 7.74488 2.92451C7.67407 2.86378 7.62733 2.77971 7.61312 2.68751V2.11199ZM8.38526 13.888C8.39384 13.9437 8.39027 14.0006 8.37481 14.0547C8.35935 14.1089 8.33236 14.1591 8.29569 14.2018C8.25902 14.2446 8.21354 14.2789 8.16236 14.3024C8.11118 14.326 8.05552 14.3381 7.99919 14.3381C7.94286 14.3381 7.8872 14.326 7.83602 14.3024C7.78484 14.2789 7.73936 14.2446 7.70269 14.2018C7.66602 14.1591 7.63902 14.1089 7.62356 14.0547C7.60811 14.0006 7.60454 13.9437 7.61312 13.888V13.3125C7.62733 13.2203 7.67407 13.1362 7.74488 13.0755C7.81569 13.0148 7.9059 12.9814 7.99919 12.9814C8.09248 12.9814 8.18269 13.0148 8.2535 13.0755C8.32431 13.1362 8.37105 13.2203 8.38526 13.3125V13.888ZM13.0207 2.98047C11.8586 1.82046 10.3303 1.09924 8.69606 0.939686C7.06187 0.780128 5.4229 1.1921 4.05838 2.10543C2.69386 3.01875 1.68822 4.37691 1.21276 5.94854C0.737313 7.52017 0.821472 9.20802 1.4509 10.7246C2.08033 12.2411 3.2161 13.4925 4.6647 14.2655C6.1133 15.0386 7.78512 15.2855 9.39534 14.9642C11.0056 14.6428 12.4546 13.7732 13.4955 12.5033C14.5364 11.2335 15.1049 9.64197 15.104 8.00001C15.1045 7.06735 14.9207 6.14378 14.5632 5.28236C14.2057 4.42095 13.6815 3.63867 13.0207 2.98047Z" fill="#CBCBD3"/>
</g>
<defs>
<clipPath id="clip0_3993_13">
<rect width="16" height="16" fill="white"/>
</clipPath>
</defs>
</svg>
