<svg width="79" height="76" viewBox="0 0 79 76" fill="none" xmlns="http://www.w3.org/2000/svg">
<path d="M41.3845 1.27164L51.4879 25.1209L77.1256 27.4371C77.5265 27.4731 77.908 27.627 78.223 27.8797C78.5381 28.1325 78.7727 28.473 78.8979 28.8591C79.0231 29.2451 79.0334 29.6598 78.9274 30.0517C78.8215 30.4435 78.6039 30.7954 78.3018 31.0638L58.8983 48.1462L64.6313 73.4487C64.7241 73.8525 64.6949 74.2751 64.5477 74.6621C64.4004 75.049 64.1418 75.3826 63.8051 75.6199C63.4684 75.8572 63.0691 75.9873 62.6585 75.9935C62.2479 75.9996 61.8449 75.8816 61.5013 75.6546L39.4885 62.3805L17.4114 75.7065C17.0655 75.9149 16.6666 76.0162 16.2642 75.9979C15.8619 75.9795 15.4737 75.8423 15.1478 75.6032C14.822 75.3642 14.5729 75.0338 14.4315 74.6531C14.29 74.2724 14.2624 73.8581 14.352 73.4617L20.085 48.1592L0.700863 31.0638C0.394569 30.7927 0.17491 30.4359 0.069737 30.0387C-0.0354357 29.6414 -0.0213849 29.2216 0.110108 28.8324C0.241601 28.4433 0.484613 28.1023 0.808332 27.8527C1.13205 27.6031 1.5219 27.4562 1.92844 27.4306L27.4698 25.1209L37.5925 1.27164C37.7494 0.894802 38.013 0.573108 38.3503 0.346891C38.6876 0.120673 39.0835 0 39.4885 0C39.8934 0 40.2894 0.120673 40.6266 0.346891C40.9639 0.573108 41.2276 0.894802 41.3845 1.27164Z" fill="#758AFB"/>
</svg>
