<svg width="45" height="49" viewBox="0 0 45 49" fill="none" xmlns="http://www.w3.org/2000/svg">
<path fill-rule="evenodd" clip-rule="evenodd" d="M7.15801 33.9706H12.1328V33.2328H10.6416C9.77706 33.2318 8.94825 32.887 8.33695 32.274C7.72565 31.661 7.38175 30.8299 7.3807 29.963V16.0063C7.38282 15.5757 7.46962 15.1498 7.63612 14.753C7.80262 14.3561 8.04555 13.9961 8.35101 13.6935C8.65262 13.3889 9.01134 13.1472 9.4065 12.9823C9.80167 12.8173 10.2255 12.7324 10.6535 12.7324H20.9928C21.0214 12.7393 21.0494 12.7486 21.0764 12.7604C21.7974 12.7619 22.512 12.8971 23.184 13.1591C23.4237 13.2598 23.6528 13.384 23.868 13.53L38.8004 0.267111C38.9579 0.128102 39.1592 0.0490592 39.369 0.0438032H42.4629C42.5798 0.00657156 42.7033 -0.00556861 42.8253 0.00817141C42.9472 0.0219114 43.0649 0.0612242 43.1707 0.123556C43.363 0.235209 43.5065 0.415184 43.5728 0.62786C43.6391 0.840536 43.6233 1.07041 43.5286 1.27199C43.5286 9.86534 43.5048 18.4746 43.5048 27.064C43.8054 27.1802 44.0769 27.3613 44.3001 27.5943C44.5721 27.8668 44.7729 28.2023 44.8847 28.5711C44.9965 28.9399 45.0159 29.3307 44.9412 29.7088C44.8665 30.087 44.7 30.4408 44.4564 30.739C44.2127 31.0372 43.8996 31.2706 43.5445 31.4185C43.5522 31.5683 43.5917 31.7148 43.6603 31.8482C43.7288 31.9816 43.8249 32.0988 43.9422 32.1921C44.3909 32.5438 44.7133 33.0322 44.8608 33.5838C45.0043 34.0695 44.9865 34.5888 44.81 35.0635C44.6336 35.5382 44.3081 35.9425 43.8826 36.2156C43.4132 36.5502 42.8649 36.7564 42.2919 36.8137C41.6819 36.8781 41.0668 36.7528 40.5302 36.4549C39.5639 35.9046 38.8521 34.7521 38.9793 32.7902L40.6734 32.8979C40.5978 34.0942 40.9199 34.7162 41.3693 34.9715C41.6012 35.0982 41.8665 35.1498 42.1288 35.119C42.4045 35.0915 42.6687 34.9941 42.8963 34.8359C43.027 34.7593 43.1301 34.6432 43.1908 34.5042C43.2516 34.3652 43.2668 34.2105 43.2344 34.0623C43.1654 33.8282 43.0266 33.6208 42.8367 33.4681C42.3953 33.0694 41.9698 32.6985 41.8505 31.4743C41.5321 31.3557 41.2431 31.1693 41.0034 30.928C40.7856 30.7105 40.6127 30.452 40.4947 30.1673C40.3768 29.8827 40.316 29.5774 40.316 29.2691C40.316 28.9609 40.3768 28.6556 40.4947 28.371C40.6127 28.0863 40.7856 27.8278 41.0034 27.6103C41.2199 27.3823 41.4831 27.2041 41.7749 27.0879C41.7749 19.5194 41.7749 11.9429 41.7749 4.35842L31.1055 22.853L31.0777 22.9009C31.1809 23.2736 31.233 23.6586 31.2328 24.0454V24.0454V29.963C31.232 30.3915 31.147 30.8156 30.9825 31.2111C30.8181 31.6067 30.5774 31.9657 30.2744 32.2678V32.2678C29.9731 32.5717 29.615 32.813 29.2206 32.978C28.8262 33.1429 28.4032 33.2281 27.9759 33.2289H26.3852V33.9666H30.3857C32.2819 33.9739 34.0983 34.7325 35.4391 36.077C36.7799 37.4215 37.5364 39.2429 37.5437 41.1443V41.8023C37.5364 43.7037 36.7799 45.5251 35.4391 46.8696C34.0983 48.2141 32.2819 48.9727 30.3857 48.98H7.15801C5.26184 48.9727 3.44543 48.2141 2.10463 46.8696C0.76383 45.5251 0.00733129 43.7037 0 41.8023L0 41.1443C0.00733129 39.2429 0.76383 37.4215 2.10463 36.077C3.44543 34.7325 5.26184 33.9739 7.15801 33.9666V33.9706ZM25.1365 14.7542L29.9085 20.8074L30.1034 10.3319L25.1365 14.7542ZM29.4274 25.6763H20.0583L18.2688 14.5309H10.6416C10.2524 14.5309 9.87916 14.6859 9.60397 14.9618C9.32878 15.2378 9.17418 15.6121 9.17418 16.0023V29.959C9.17523 30.3489 9.33016 30.7226 9.60513 30.9983C9.88009 31.274 10.2527 31.4294 10.6416 31.4304H27.9759C28.3613 31.4252 28.7292 31.2686 29.0007 30.9942C29.2721 30.7197 29.4253 30.3495 29.4274 29.963V25.6763ZM37.7784 3.55292L38.176 7.02216L41.1744 1.83824H39.719L37.7784 3.55292ZM36.5854 9.82945L31.527 10.1166L31.364 18.8893L36.5854 9.82945ZM31.9764 8.69297L36.9472 8.40985L36.4979 4.67743L31.9764 8.69297ZM8.66516 38.341C9.26213 38.341 9.84568 38.5185 10.342 38.8511C10.8384 39.1836 11.2253 39.6563 11.4537 40.2094C11.6822 40.7624 11.7419 41.371 11.6255 41.9581C11.509 42.5452 11.2215 43.0845 10.7994 43.5078C10.3773 43.931 9.8395 44.2193 9.254 44.3361C8.66851 44.4529 8.06163 44.3929 7.51011 44.1638C6.95859 43.9348 6.4872 43.5468 6.15555 43.0491C5.82389 42.5514 5.64687 41.9662 5.64687 41.3676C5.64687 40.5649 5.96487 39.7951 6.53091 39.2275C7.09695 38.6599 7.86466 38.341 8.66516 38.341V38.341ZM18.7778 38.341C19.3748 38.341 19.9584 38.5185 20.4547 38.8511C20.9511 39.1836 21.3379 39.6563 21.5664 40.2094C21.7948 40.7624 21.8546 41.371 21.7381 41.9581C21.6217 42.5452 21.3342 43.0845 20.9121 43.5078C20.49 43.931 19.9522 44.2193 19.3667 44.3361C18.7812 44.4529 18.1743 44.3929 17.6228 44.1638C17.0713 43.9348 16.5999 43.5468 16.2682 43.0491C15.9366 42.5514 15.7595 41.9662 15.7595 41.3676C15.759 40.97 15.8367 40.5762 15.9882 40.2088C16.1397 39.8413 16.362 39.5075 16.6424 39.2263C16.9228 38.9452 17.2557 38.7222 17.6222 38.5703C17.9886 38.4184 18.3813 38.3405 18.7778 38.341V38.341ZM28.8865 38.341C29.4835 38.341 30.0671 38.5185 30.5634 38.8511C31.0598 39.1836 31.4466 39.6563 31.6751 40.2094C31.9035 40.7624 31.9633 41.371 31.8468 41.9581C31.7304 42.5452 31.4429 43.0845 31.0208 43.5078C30.5987 43.931 30.0609 44.2193 29.4754 44.3361C28.8899 44.4529 28.283 44.3929 27.7315 44.1638C27.18 43.9348 26.7086 43.5468 26.3769 43.0491C26.0453 42.5514 25.8682 41.9662 25.8682 41.3676C25.8682 40.9702 25.9463 40.5766 26.098 40.2094C26.2497 39.8422 26.472 39.5085 26.7523 39.2275C27.0326 38.9464 27.3653 38.7235 27.7315 38.5714C28.0977 38.4193 28.4902 38.341 28.8865 38.341V38.341ZM7.10233 36.403H30.4494C32.895 36.403 34.8953 38.6879 34.8953 41.4833C34.8953 44.2746 32.9069 46.5675 30.4494 46.5675H7.10233C4.65668 46.5675 2.65642 44.2626 2.65642 41.4713C2.65642 38.68 4.64475 36.3911 7.10233 36.3911V36.403Z" fill="white"/>
</svg>
