<svg width="18" height="20" viewBox="0 0 18 20" fill="none" xmlns="http://www.w3.org/2000/svg">
<path fill-rule="evenodd" clip-rule="evenodd" d="M15.8284 3.38704L15.83 3.3903C16.4296 3.39193 16.9709 3.63607 17.3631 4.02995C17.752 4.4222 17.9951 4.96419 17.9951 5.56315H17.9984V5.56641V17.819V17.8206H17.9951C17.9935 18.4196 17.7504 18.9648 17.3582 19.3604C16.9677 19.751 16.428 19.9951 15.8316 19.9951V19.9984H15.8284H6.23607H6.23445V19.9951C5.63645 19.9935 5.09355 19.751 4.70136 19.3555C4.31242 18.9632 4.06933 18.4212 4.06771 17.8223V17.8223C4.06771 13.597 4.06771 9.79167 4.06771 5.56641V5.56478H4.07095C4.07257 4.96419 4.31728 4.41895 4.70946 4.02507C5.10003 3.63444 5.63807 3.3903 6.23607 3.38867V3.38542H6.23931C9.43513 3.38704 12.6326 3.38704 15.8284 3.38704ZM0.0032412 12.2689L0 2.17936V2.17773H0.0032412C0.0048618 1.57715 0.249572 1.0319 0.640137 0.638021C1.0307 0.247396 1.57036 0.00325521 2.16674 0.0016276V0H2.16998H11.7623C13.0086 0 13.2046 1.62109 11.7639 1.65365H2.1716H2.16836V1.65039C2.02575 1.65039 1.8961 1.71061 1.80049 1.80827C1.70487 1.90267 1.64491 2.03613 1.64491 2.17773H1.64815V2.17936V2.69531C1.64815 5.88704 1.64815 9.07715 1.64815 12.2673C1.64815 13.6117 0.0032412 13.6865 0.0032412 12.2689ZM16.3535 17.8206V5.56641V5.56315H16.3567C16.3567 5.42155 16.2968 5.28971 16.1995 5.19369C16.1039 5.09928 15.9726 5.03744 15.83 5.03744V5.04069H15.8284H6.23607H6.23283V5.03744C6.09021 5.03744 5.96057 5.09928 5.86495 5.19531C5.76933 5.28971 5.70937 5.42318 5.70937 5.56478H5.71261V5.56641V17.819V17.8223H5.70937C5.70937 17.9655 5.77096 18.0957 5.86657 18.1917C5.96219 18.2878 6.09346 18.348 6.23445 18.348V18.3447H6.23607H15.8284H15.8316V18.348C15.9726 18.348 16.1039 18.2861 16.1995 18.1901C16.2951 18.0957 16.3551 17.9622 16.3551 17.8206H16.3535Z" fill="#676767"/>
</svg>
