<svg width="123" height="123" viewBox="0 0 123 123" fill="none" xmlns="http://www.w3.org/2000/svg">
<g clip-path="url(#clip0_5046_2)">
<path fill-rule="evenodd" clip-rule="evenodd" d="M89.34 46.85L76.2 49.97C73.35 42.5 68.59 38.74 61.91 38.74C56.79 38.74 52.76 40.71 49.86 44.68C46.93 48.62 45.48 53.91 45.48 60.48C45.48 65.65 46.08 70.04 47.31 73.6C48.54 77.16 50.35 79.81 52.73 81.62C55.11 83.4 57.96 84.3 61.27 84.3C68.64 84.3 73.67 79.7 76.36 70.5L89.34 74.91C85.07 88.82 75.6 95.78 60.95 95.78C55.72 95.78 50.82 94.49 46.3 91.92C41.78 89.37 38.17 85.46 35.43 80.23C32.72 74.97 31.35 68.73 31.35 61.45C31.35 54.66 32.61 48.72 35.13 43.6C37.62 38.51 41.24 34.54 45.92 31.69C50.6 28.87 56.08 27.45 62.4 27.45C75.65 27.43 84.63 33.9 89.34 46.85ZM61.44 0C69.82 0 77.76 1.56 85.23 4.68C92.68 7.83 99.25 12.24 104.94 17.93C110.64 23.62 115.04 30.2 118.19 37.64C121.31 45.11 122.87 53.03 122.87 61.43C122.87 72.44 120.1 82.68 114.57 92.1C109.04 101.55 101.56 109.02 92.15 114.5C82.73 119.98 72.49 122.71 61.43 122.71C50.2 122.71 39.88 119.97 30.52 114.52C21.13 109.07 13.68 101.62 8.21 92.18C2.74 82.77 0 72.5 0 61.44C0 50.32 2.74 40.03 8.21 30.61C13.69 21.16 21.16 13.69 30.61 8.21C40.03 2.74 50.32 0 61.44 0ZM61.44 12.05C52.4 12.05 44.11 14.27 36.61 18.7C29.11 23.14 23.14 29.13 18.73 36.69C14.32 44.27 12.1 52.52 12.1 61.44C12.1 70.42 14.32 78.66 18.73 86.16C23.14 93.69 29.11 99.63 36.64 104.04C44.2 108.45 52.44 110.67 61.45 110.67C70.38 110.67 78.62 108.48 86.23 104.1C93.81 99.72 99.81 93.78 104.22 86.25C108.63 78.75 110.85 70.48 110.85 61.44C110.85 52.57 108.63 44.33 104.2 36.74C99.76 29.16 93.77 23.13 86.18 18.7C78.61 14.27 70.37 12.05 61.44 12.05Z" fill="#E4D11B"/>
</g>
<defs>
<clipPath id="clip0_5046_2">
<rect width="122.88" height="122.72" fill="white"/>
</clipPath>
</defs>
</svg>
