<svg width="22" height="22" viewBox="0 0 22 22" fill="none" xmlns="http://www.w3.org/2000/svg">
<g clip-path="url(#clip0_4731_150)">
<path d="M1.23715 -0.000100455H8.91423C9.09756 -0.000181512 9.27858 0.0411507 9.44402 0.120864C9.60945 0.200578 9.7551 0.31665 9.87029 0.460566C9.96173 0.569913 10.0322 0.695506 10.078 0.830906C10.1269 0.96448 10.1518 1.10581 10.1514 1.24822V8.96032C10.1507 9.12893 10.1166 9.2957 10.0511 9.45082C9.98563 9.60594 9.89006 9.74628 9.77003 9.86359C9.53938 10.0861 9.23331 10.2114 8.91423 10.2141H1.23715C1.08072 10.2116 0.926265 10.1785 0.782395 10.1165C0.631123 10.0574 0.493136 9.96821 0.37659 9.85433C0.260044 9.74045 0.167302 9.60416 0.103847 9.4535C0.0348925 9.29842 -0.000507776 9.13029 5.50272e-06 8.96032V1.24822C0.00190374 0.946744 0.11048 0.655874 0.306158 0.428049L0.358078 0.377466C0.464412 0.268019 0.589325 0.178689 0.726894 0.113711C0.887163 0.0400175 1.06103 0.00123732 1.23715 -0.000100455ZM13.0858 11.7894H20.7682C20.954 11.7882 21.1377 11.8296 21.3053 11.9104C21.4703 11.9908 21.6157 12.1068 21.7315 12.25C21.8207 12.3576 21.891 12.4798 21.9391 12.6113C21.9881 12.7455 22.0129 12.8874 22.0125 13.0304V20.7425C22.0121 20.9097 21.978 21.0751 21.9123 21.2285C21.8467 21.3833 21.7511 21.5234 21.6312 21.6404C21.5166 21.7518 21.3816 21.8395 21.2337 21.8987C21.0884 21.9594 20.9327 21.9907 20.7754 21.9909H13.0858C12.9293 21.9898 12.7745 21.9591 12.6292 21.9005C12.483 21.8419 12.3492 21.7554 12.2354 21.6458C12.1145 21.5288 12.0177 21.3888 11.9507 21.2339C11.8833 21.079 11.8486 20.9117 11.8486 20.7425V13.0395C11.8482 12.8894 11.8755 12.7405 11.9292 12.6005C11.9808 12.4605 12.0566 12.3308 12.153 12.2175L12.2031 12.1669C12.3099 12.0576 12.4355 11.9689 12.5737 11.905C12.7341 11.8295 12.9088 11.7901 13.0858 11.7894ZM20.7682 13.0341H13.0858V20.7516C13.7446 20.7516 20.7647 20.7516 20.7718 20.7516C20.7718 20.1012 20.7718 13.0377 20.7718 13.0341H20.7682ZM1.23715 11.7894H8.91423C9.09756 11.7893 9.27858 11.8306 9.44402 11.9103C9.60945 11.99 9.7551 12.1061 9.87029 12.25C9.96078 12.3567 10.0312 12.4791 10.078 12.6113C10.1269 12.7455 10.1518 12.8874 10.1514 13.0304V20.7425C10.151 20.9097 10.1169 21.0751 10.0511 21.2285C9.9869 21.3841 9.89116 21.5244 9.77003 21.6404C9.53938 21.8629 9.23331 21.9882 8.91423 21.9909H1.23715C1.08128 21.9899 0.926998 21.9592 0.782395 21.9005C0.635359 21.8424 0.500964 21.7559 0.386724 21.6458C0.265809 21.5292 0.169578 21.3891 0.103847 21.2339C0.0363189 21.0822 0.000949652 20.9179 5.50272e-06 20.7516V13.0395C0.000421022 12.8894 0.0277155 12.7407 0.0805719 12.6005C0.132882 12.4604 0.209246 12.3308 0.306158 12.2175L0.358078 12.1669C0.464018 12.0575 0.589046 11.9687 0.726894 11.905C0.886707 11.8297 1.06078 11.7903 1.23715 11.7894ZM8.91423 13.0341H1.23715V20.7516C1.89421 20.7516 8.91602 20.7516 8.92139 20.7516C8.92139 20.1012 8.92139 13.0377 8.92139 13.0341H8.91423ZM13.0858 -0.000100455H20.7682C20.954 -0.00120687 21.1377 0.0401749 21.3053 0.120937C21.4703 0.201365 21.6157 0.317296 21.7315 0.460566C21.8216 0.57082 21.8919 0.696163 21.9391 0.830906C21.9881 0.96448 22.0129 1.10581 22.0125 1.24822V8.96032C22.0123 9.12809 21.9782 9.29406 21.9123 9.44808C21.8463 9.60268 21.7508 9.74265 21.6312 9.85997C21.5123 9.97147 21.373 10.0586 21.2212 10.1165C21.0756 10.1763 20.9201 10.2076 20.7629 10.2086H13.0858C12.9291 10.2079 12.7741 10.1767 12.6292 10.1165C12.4834 10.0578 12.3498 9.97204 12.2354 9.86359C12.1145 9.74659 12.0177 9.6066 11.9507 9.4517C11.8832 9.29621 11.8484 9.12827 11.8486 8.95851V1.24822C11.8483 1.0987 11.8757 0.950445 11.9292 0.811034C11.9805 0.670888 12.0563 0.541169 12.153 0.428049L12.2031 0.377466C12.3102 0.26811 12.4357 0.178806 12.5737 0.113711C12.7346 0.0397692 12.9091 0.000983287 13.0858 -0.000100455ZM20.7682 1.2446H13.0858V8.96574C13.7446 8.96574 20.7647 8.96574 20.7718 8.96574C20.7718 8.31539 20.7718 1.25002 20.7718 1.24822L20.7682 1.2446ZM8.9196 1.2446H1.23715V8.96213C1.89421 8.96213 8.91602 8.96213 8.92139 8.96213C8.92139 8.31177 8.92139 1.24641 8.92139 1.2446H8.9196Z" fill="white"/>
</g>
<defs>
<clipPath id="clip0_4731_150">
<rect width="22" height="22" fill="white"/>
</clipPath>
</defs>
</svg>
