<svg width="28" height="25" viewBox="0 0 28 25" fill="none" xmlns="http://www.w3.org/2000/svg">
<g clip-path="url(#clip0_4731_159)">
<path fill-rule="evenodd" clip-rule="evenodd" d="M14.0001 11.5216C17.4624 11.5216 20.2701 14.5389 20.2701 18.2611C20.2701 21.9832 17.4624 25 14.0001 25C10.5373 25 7.73022 21.9832 7.73022 18.2611C7.73022 14.5389 10.5373 11.5216 14.0001 11.5216ZM19.6762 7.33029C19.505 7.42141 19.3316 7.52134 19.161 7.62715C18.6486 7.94987 18.1422 8.3449 17.6254 8.79812L16.5223 7.44081C16.903 7.06165 17.3153 6.71601 17.7528 6.41033C18.1012 6.16521 18.4659 5.94712 18.8422 5.76078C18.9926 5.67966 19.143 5.60383 19.2977 5.53328C18.5709 4.14894 17.5247 3.15726 16.3397 2.54532C13.9848 1.33321 11.0525 1.59656 8.97819 3.32832C7.78655 4.32058 6.88202 5.80486 6.53311 7.77176L6.42373 8.38604L5.85389 8.49421C5.29553 8.59943 4.79733 8.74403 4.35928 8.92744C3.93545 9.10438 3.55756 9.32246 3.22725 9.57935C2.96256 9.78509 2.73452 10.0155 2.54147 10.2648C1.94155 11.0366 1.66373 12.0036 1.6703 12.9841C1.67741 13.9775 1.97819 14.9821 2.53436 15.8075C2.74162 16.1137 2.98061 16.3959 3.25405 16.6404C3.53241 16.8873 3.84412 17.093 4.19522 17.2482C4.54358 17.4022 4.92912 17.5122 5.35514 17.5762H5.9753C5.95834 17.802 5.95014 18.0306 5.95014 18.2605C5.95014 18.6396 5.97256 19.0129 6.01686 19.3785H5.3278L5.2228 19.3691C4.61467 19.2857 4.06287 19.1311 3.56194 18.9089C3.04459 18.6778 2.58631 18.3816 2.18327 18.0195C1.80045 17.6762 1.46577 17.287 1.18084 16.8632C0.419593 15.7369 0.00943699 14.3602 0.000140119 12.9882C-0.00860988 11.6021 0.392249 10.2236 1.2585 9.10614C1.5385 8.74404 1.86827 8.41073 2.2467 8.11682C2.68694 7.77411 3.19006 7.48489 3.76045 7.248C4.15202 7.0834 4.57092 6.94585 5.01334 6.83593C5.51483 4.69562 6.58342 3.04733 7.95717 1.90282C10.5313 -0.24101 14.1429 -0.58313 17.0648 0.925841C18.6617 1.75175 20.0562 3.12552 20.9613 5.05773C21.3255 4.99659 21.6903 4.96485 22.0523 4.96955C25.84 5.00012 28.0384 8.46893 27.9996 12.261C27.9837 13.8065 27.5965 15.3448 26.803 16.4764C26.2862 17.2136 25.6229 17.8161 24.8277 18.2934C24.0626 18.7543 23.169 19.1046 22.1666 19.3544L21.984 19.378C22.0567 18.7684 22.0696 18.1523 22.0222 17.5398C22.7709 17.3346 23.4359 17.0654 24.0052 16.7239C24.6046 16.3635 25.0946 15.925 25.461 15.3989C26.0308 14.583 26.3114 13.4297 26.3223 12.2464C26.3535 9.4706 24.8737 6.78655 22.0408 6.76774C21.2594 6.76009 20.4462 6.96349 19.6762 7.33029ZM16.6016 17.8267C16.8012 17.8355 16.9429 17.9066 17.0244 18.0406C17.2464 18.398 16.944 18.7513 16.7334 19.0006C16.1368 19.7036 14.675 21.3948 14.3808 21.7669C14.1582 22.032 13.8399 22.032 13.6173 21.7669C13.3133 21.3854 11.7782 19.6172 11.2111 18.933C11.0142 18.6949 10.7708 18.3704 10.9759 18.0406C11.0596 17.9066 11.1996 17.8355 11.3992 17.8267H12.61V15.9356C12.61 15.5923 12.8714 15.3101 13.1919 15.3101H14.8084C15.1283 15.3101 15.3908 15.5917 15.3908 15.9356V17.8267H16.6016Z" fill="white"/>
</g>
<defs>
<clipPath id="clip0_4731_159">
<rect width="28" height="25" fill="white"/>
</clipPath>
</defs>
</svg>
