<svg width="15" height="15" viewBox="0 0 15 15" fill="none" xmlns="http://www.w3.org/2000/svg">
<g clip-path="url(#clip0_974_2)">
<path d="M7.49982 7.38364e-06C9.23565 -0.000488794 10.9179 0.600941 12.26 1.70181C13.6021 2.80268 14.5209 4.33486 14.8599 6.03727C15.1989 7.73967 14.9371 9.50696 14.1191 11.038C13.3011 12.569 11.9775 13.7689 10.3739 14.4334C8.77031 15.0979 6.9859 15.1858 5.32477 14.682C3.66363 14.1783 2.22857 13.1141 1.26412 11.6709C0.299675 10.2277 -0.13448 8.49464 0.0356415 6.76716C0.205763 5.03969 0.969634 3.42466 2.19709 2.19727C2.89249 1.49955 3.71899 0.946229 4.62905 0.569135C5.5391 0.192041 6.51473 -0.00137742 7.49982 7.38364e-06V7.38364e-06ZM8.72052 6.19385C8.79935 6.13464 8.8971 6.10629 8.99538 6.11414C9.09365 6.12199 9.18567 6.1655 9.25409 6.23648C9.32252 6.30745 9.36263 6.401 9.36688 6.49949C9.37113 6.59799 9.33922 6.69464 9.27716 6.77125L7.74396 8.2898C7.66835 8.36442 7.56638 8.40626 7.46015 8.40626C7.35391 8.40626 7.25195 8.36442 7.17633 8.2898L5.66144 6.79322C5.59596 6.71628 5.56157 6.61765 5.56503 6.51667C5.56849 6.41569 5.60954 6.31965 5.68014 6.24737C5.75074 6.17508 5.84579 6.13178 5.94666 6.12595C6.04753 6.12011 6.14694 6.15217 6.22541 6.21583L7.05915 7.04224L7.06647 4.13209C7.06744 4.0246 7.11107 3.92191 7.18776 3.84659C7.26445 3.77127 7.36792 3.7295 7.47541 3.73048C7.58289 3.73145 7.68559 3.77508 7.76091 3.85177C7.83622 3.92846 7.87799 4.03193 7.87702 4.13941L7.86847 7.02637L8.71076 6.19385H8.72052ZM4.27228 9.9109V8.32398C4.27325 8.2165 4.31688 8.1138 4.39357 8.03848C4.47026 7.96317 4.57373 7.9214 4.68122 7.92237C4.7887 7.92334 4.8914 7.96697 4.96672 8.04366C5.04203 8.12035 5.0838 8.22382 5.08283 8.33131V9.48487C6.6909 9.48487 8.29816 9.48487 9.90461 9.48487V8.32398C9.90509 8.27076 9.91605 8.21816 9.93686 8.16917C9.95767 8.12018 9.98792 8.07578 10.0259 8.03848C10.0639 8.00119 10.1088 7.97174 10.1582 7.95182C10.2075 7.9319 10.2603 7.92189 10.3135 7.92237C10.3668 7.92285 10.4194 7.93381 10.4684 7.95462C10.5173 7.97543 10.5617 8.00569 10.599 8.04366C10.6363 8.08163 10.6658 8.12658 10.6857 8.17594C10.7056 8.22529 10.7156 8.27808 10.7152 8.33131V9.90723C10.7105 10.0109 10.6662 10.1088 10.5915 10.1808C10.5168 10.2528 10.4173 10.2934 10.3135 10.2942C8.43529 10.2942 6.55744 10.2942 4.68 10.2942C4.57579 10.295 4.47529 10.2556 4.39936 10.1842C4.32344 10.1128 4.27793 10.015 4.27228 9.9109V9.9109ZM12.1385 2.86134C11.0653 1.78815 9.65323 1.12028 8.14283 0.971519C6.63244 0.822754 5.11719 1.2023 3.85526 2.04549C2.59333 2.88868 1.66281 4.14334 1.22224 5.59569C0.781671 7.04804 0.858314 8.60822 1.43911 10.0104C2.01991 11.4126 3.06892 12.57 4.40741 13.2854C5.74591 14.0009 7.29106 14.2301 8.77961 13.934C10.2681 13.6379 11.608 12.8349 12.5708 11.6617C13.5336 10.4885 14.0599 9.01771 14.0599 7.50001C14.0609 6.63837 13.8918 5.78501 13.562 4.98896C13.2323 4.19291 12.7485 3.46985 12.1385 2.86134V2.86134Z" fill="#758AFB"/>
</g>
<defs>
<clipPath id="clip0_974_2">
<rect width="15" height="15" fill="white"/>
</clipPath>
</defs>
</svg>
