<svg width="35" height="22" viewBox="0 0 35 22" fill="none" xmlns="http://www.w3.org/2000/svg">
<g clip-path="url(#clip0_4731_170)">
<path d="M1.05405 16.3189L1.10737 16.2704C1.21059 16.1784 1.31792 16.0967 1.42661 16.0233C1.65425 15.8703 1.89692 15.7534 2.15327 15.662C2.37065 15.5845 2.60102 15.5243 2.8437 15.4744V1.01196C1.02739 1.29297 1.03901 3.13963 1.04927 4.85824C1.06431 4.94752 1.05268 5.19047 1.05337 5.29706L1.05405 16.3189ZM26.1078 9.30392C25.2717 9.68183 24.5957 10.2702 24.4118 11.6552C24.3919 11.8081 24.2484 11.9147 24.0918 11.8967C23.9346 11.8766 23.8239 11.7375 23.8437 11.5859C24.0577 9.97184 24.8752 9.23955 25.887 8.79104C26.3962 8.5647 26.9527 8.47472 27.503 8.50656C29.173 8.60069 30.8888 9.79327 30.9661 11.6122C30.9722 11.7659 30.8492 11.8953 30.6906 11.9016C30.5327 11.9078 30.4 11.788 30.3939 11.6344C30.3467 10.502 29.683 9.89432 28.8127 9.43681C28.6671 9.36067 28.73 9.40082 28.5974 9.39667C28.0991 9.38421 28.2679 11.3388 28.2679 11.8496C28.2679 12.0061 28.1401 12.1327 27.9835 12.1327C27.8263 12.1327 27.6985 12.0061 27.6985 11.8496C27.6985 11.0495 27.5638 9.71298 27.9747 9.13227C27.8079 9.09697 27.639 9.07343 27.4702 9.06374C27.2569 9.05128 27.0436 9.06097 26.8344 9.09212C27.2227 9.70191 27.0915 11.0336 27.0915 11.8496C27.0915 12.0047 26.967 12.1307 26.8139 12.1307C26.6601 12.1307 26.5364 12.0047 26.5364 11.8496C26.5364 11.4662 26.682 9.75658 26.3361 9.38144C26.2541 9.29215 26.2007 9.33507 26.1078 9.30392ZM30.722 12.8463C30.8239 13.0969 30.8717 13.3108 30.9333 13.5731C30.9428 13.6146 30.9476 13.6368 30.9503 13.6665C30.9538 13.6963 30.9524 13.7233 30.951 13.7807C30.9387 14.2729 30.8102 15.2668 30.2394 15.4308L30.2189 15.5056L30.1833 15.6454C29.9974 16.3403 29.629 16.9508 29.132 17.3751C28.1312 18.2299 26.6772 18.1932 25.6983 17.3211C25.2526 16.9231 24.9142 16.3763 24.6859 15.7568C24.6394 15.6309 24.6025 15.5063 24.5615 15.3789L24.5553 15.3609C24.0959 15.2765 23.8875 14.5317 23.8492 14.1372C23.8095 13.7413 23.9579 13.2907 24.1069 12.9273C24.0604 12.901 24.0153 12.8754 23.9722 12.8477C23.6865 12.6664 23.4698 12.4463 23.3481 12.186L23.869 11.9555C23.9435 12.1147 24.0884 12.2573 24.2853 12.3819C24.9217 12.7847 26.0408 12.9785 27.1974 12.982C28.3629 12.9855 29.5503 12.7937 30.3125 12.4276C30.6133 12.2836 30.8382 12.1161 30.9538 11.9286L31.4453 12.2144C31.2942 12.4601 31.0433 12.6712 30.722 12.8463ZM24.6818 13.1786L24.6756 13.1841C24.3044 13.5198 24.2874 14.5262 24.6791 14.8792C24.7078 14.9055 24.7337 14.9186 24.7549 14.9152C25.0038 14.837 25.0557 15.1872 25.1022 15.3443C25.3339 16.0898 25.7543 16.6338 26.252 16.966C26.6259 17.2159 27.0443 17.346 27.4592 17.3516C27.8728 17.3571 28.2836 17.2394 28.6446 16.9923C29.0834 16.6919 29.4492 16.2012 29.657 15.5104C29.6994 15.345 29.7479 14.9436 29.994 14.9934H29.9954C30.1963 15.0225 30.3959 14.1877 30.4096 14.0258C30.4247 13.8576 30.3809 13.7461 30.3337 13.625C30.2702 13.4644 30.2264 13.3025 30.1601 13.1419C30.1544 13.1276 30.1516 13.1123 30.1519 13.0969C28.6801 13.6188 26.237 13.715 24.6818 13.1786ZM35 21.8851C34.8393 19.7678 35.2495 19.88 33.4981 19.2141C32.6238 18.8826 31.1089 18.4625 30.305 17.9565L28.8045 21.8851H35ZM20.019 21.8851C20.1796 19.7678 19.7702 19.88 21.5215 19.2141C22.3952 18.8826 23.9107 18.4625 24.7139 17.9565L26.2144 21.8851H20.019ZM27.9302 19.8066H28.1387C28.3281 19.8066 28.4833 19.6502 28.4833 19.4585V18.8923C28.4833 18.7012 28.3281 18.5448 28.1387 18.5448H26.8939C26.7052 18.5448 26.5507 18.7012 26.5507 18.8923V19.4585C26.5507 19.6502 26.7052 19.8066 26.8939 19.8066H27.1058L26.6998 21.8851H28.3219L27.9302 19.8066ZM20.0668 13.6665H18.6682C18.3941 13.6665 18.1712 13.4409 18.1712 13.1627C18.1712 12.8851 18.3941 12.6595 18.6682 12.6595H20.0668V7.4095H14.7471V12.6595H16.6427C16.9168 12.6595 17.1397 12.8851 17.1397 13.1627C17.1397 13.4409 16.9168 13.6665 16.6427 13.6665H14.7471V14.1829C14.7471 14.3163 14.6948 14.4443 14.6016 14.5387C14.5084 14.6331 14.382 14.6861 14.2501 14.6861C13.9753 14.6861 13.7532 14.4611 13.7532 14.1829V7.4095H7.19409V10.9312H10.4063C10.6804 10.9312 10.9033 11.1568 10.9033 11.4344V17.391H13.7354V15.9749C13.7354 15.6973 13.9583 15.4717 14.2324 15.4717C14.5065 15.4717 14.7293 15.6973 14.7293 15.9749V17.391H14.8811C15.1552 17.391 15.3781 17.6166 15.3781 17.8942C15.3781 18.0277 15.3257 18.1556 15.2325 18.25C15.1393 18.3444 15.0129 18.3974 14.8811 18.3974H6.69712C6.42231 18.3974 6.20015 18.1724 6.20015 17.8942V6.907C6.20015 6.62876 6.42231 6.40312 6.69712 6.40312H20.5638C20.6958 6.40312 20.8224 6.4562 20.9157 6.5507C21.009 6.6452 21.0615 6.77336 21.0615 6.907V17.8942C21.0615 18.1724 20.8386 18.3974 20.5638 18.3974H16.6509C16.5191 18.3974 16.3927 18.3444 16.2995 18.25C16.2063 18.1556 16.154 18.0277 16.154 17.8942C16.154 17.6166 16.3768 17.391 16.6509 17.391H20.0668V13.6665ZM7.19409 11.9376V17.391H9.90933V11.9376H7.19409ZM3.80552 15.9105C3.79936 16.0185 3.75766 16.1188 3.68999 16.1984C3.6149 16.2866 3.5111 16.3445 3.39741 16.3618L3.38647 16.3632C3.10347 16.4075 2.84165 16.4614 2.60239 16.5362C2.36587 16.6096 2.14917 16.7051 1.9564 16.8338C1.77388 16.9563 1.60708 17.1135 1.45532 17.3163C1.30425 17.5184 1.16753 17.7675 1.04448 18.0742C0.980223 19.7824 1.63921 20.7348 3.2935 21.0193H18.8644C18.8582 21.1992 18.848 21.4207 18.8261 21.728C18.8193 21.7792 18.8159 21.8318 18.8159 21.8851C18.8159 21.9239 18.8179 21.962 18.8213 22H3.26411C1.10532 22 -0.00415185 19.8793 0.0888169 17.9634C0.0888169 13.7351 -0.111476 9.01875 0.0895005 4.85132C0.0812974 3.71965 0.075145 2.5423 0.464793 1.62659C0.866063 0.68457 1.66929 0.0304879 3.27641 0.000725424C3.56557 -0.0117333 3.80893 0.182761 3.80893 0.486615V2.80047H27.0361C27.4168 2.80047 27.7333 3.11748 27.7333 3.50647V7.30568C27.678 7.30084 27.6233 7.29668 27.5686 7.29322C27.2999 7.27799 27.0313 7.28422 26.7661 7.3126L26.7667 3.77641H3.80893L3.80552 15.9105Z" fill="white"/>
</g>
<defs>
<clipPath id="clip0_4731_170">
<rect width="35" height="22" fill="white"/>
</clipPath>
</defs>
</svg>
