<svg width="39" height="39" viewBox="0 0 39 39" fill="none" xmlns="http://www.w3.org/2000/svg">
<path d="M19.5 0C24.886 0 29.761 2.18359 33.2871 5.71289C36.8164 9.24219 39 14.1172 39 19.5C39 24.886 36.8164 29.761 33.2871 33.2871C29.7578 36.8164 24.8828 39 19.5 39C14.1172 39 9.23901 36.8164 5.71289 33.2871C2.18359 29.761 0 24.886 0 19.5C0 14.114 2.18359 9.23901 5.71289 5.71289C9.23901 2.18359 14.114 0 19.5 0ZM24.4543 11.4766C24.2639 11.2988 24.0481 11.2068 23.8037 11.2195C23.5593 11.2195 23.3435 11.3147 23.1658 11.5051L21.728 12.9968L25.7556 16.8848L27.2061 15.3677C27.3838 15.1931 27.4504 14.9614 27.4504 14.717C27.4504 14.4727 27.3552 14.2441 27.1807 14.0791L24.4543 11.4766ZM16.9197 26.0603C16.3896 26.238 15.8501 26.3999 15.3201 26.5745C14.79 26.7522 14.2632 26.9268 13.7205 27.1045C12.4604 27.5107 11.7686 27.7424 11.6194 27.7837C11.4702 27.825 11.5654 27.241 11.8765 26.0222L12.8794 22.1851L12.9619 22.0994L16.9197 26.0603ZM14.425 20.5759L20.6426 14.1235L24.667 17.9988L18.3828 24.5337L14.425 20.5759ZM32.0811 6.91894C28.8596 3.70068 24.4131 1.71069 19.5 1.71069C14.5869 1.71069 10.1404 3.70068 6.91894 6.91894C3.70068 10.1404 1.71069 14.5869 1.71069 19.5C1.71069 24.4131 3.70068 28.8596 6.92212 32.0811C10.1404 35.2993 14.5901 37.2925 19.5032 37.2925C24.4163 37.2925 28.8628 35.3025 32.0842 32.0811C35.3025 28.8628 37.2957 24.4131 37.2957 19.5C37.2893 14.5869 35.2993 10.1404 32.0811 6.91894Z" fill="#E4D11B"/>
</svg>
