<svg width="20" height="20" viewBox="0 0 20 20" fill="none" xmlns="http://www.w3.org/2000/svg">
<g clip-path="url(#clip0_4777_249)">
<path d="M13.9792 4.00001L17.1111 7.13195C17.2431 7.2639 17.2431 7.47918 17.1111 7.61112L9.52778 15.1945L6.30556 15.5521C5.875 15.6007 5.51042 15.2361 5.55903 14.8056L5.91667 11.5833L13.5 4.00001C13.6319 3.86807 13.8472 3.86807 13.9792 4.00001ZM19.6042 3.20487L17.9097 1.51043C17.3819 0.982649 16.5243 0.982649 15.9931 1.51043L14.7639 2.73959C14.6319 2.87154 14.6319 3.08682 14.7639 3.21876L17.8958 6.3507C18.0278 6.48265 18.2431 6.48265 18.375 6.3507L19.6042 5.12154C20.1319 4.59029 20.1319 3.73265 19.6042 3.20487ZM13.3333 13.132V16.6667H2.22222V5.55557H10.2014C10.3125 5.55557 10.4167 5.51043 10.4965 5.43404L11.8854 4.04515C12.1493 3.78126 11.9618 3.33334 11.5903 3.33334H1.66667C0.746528 3.33334 0 4.07987 0 5.00001V17.2222C0 18.1424 0.746528 18.8889 1.66667 18.8889H13.8889C14.809 18.8889 15.5556 18.1424 15.5556 17.2222V11.7431C15.5556 11.3715 15.1076 11.1875 14.8438 11.4479L13.4549 12.8368C13.3785 12.9167 13.3333 13.0208 13.3333 13.132Z" fill="#676767" fill-opacity="0.44"/>
</g>
<defs>
<clipPath id="clip0_4777_249">
<rect width="20" height="20" fill="white"/>
</clipPath>
</defs>
</svg>
