<svg width="16" height="12" viewBox="0 0 16 12" fill="none" xmlns="http://www.w3.org/2000/svg">
<g clip-path="url(#clip0_3993_16)">
<path d="M0.917806 0H15.0819C15.324 0.00248538 15.5554 0.103802 15.726 0.282003C15.8966 0.460204 15.9927 0.700939 15.9933 0.952059V11.0479C15.9947 11.2406 15.9393 11.4291 15.8345 11.5881C15.8156 11.6391 15.7863 11.6852 15.7485 11.7232C15.7231 11.7483 15.6942 11.7693 15.6626 11.7853C15.4983 11.929 15.2903 12.008 15.0754 12.0081H0.917806C0.676808 12.0056 0.446352 11.9053 0.275933 11.7285C0.105513 11.5518 0.00872219 11.3127 0.00634766 11.0628V0.952059C0.00702075 0.700939 0.10306 0.460204 0.273661 0.282003C0.444263 0.103802 0.675688 0.00248538 0.917806 0V0ZM0.878743 10.6469L5.66781 5.48548L0.878743 1.28832V10.6469ZM6.38916 6.12964L1.27197 11.2694H14.6834L9.79411 6.12964L8.36182 7.3734C8.2987 7.42776 8.21925 7.45751 8.13721 7.45751C8.05517 7.45751 7.97571 7.42776 7.9126 7.3734L6.38916 6.12964ZM10.5037 5.47603L15.1209 10.6887V1.2424L10.5037 5.47603ZM1.32926 0.730587L8.12354 6.44159L14.6183 0.730587H1.32926Z" fill="#CBCBD3"/>
</g>
<defs>
<clipPath id="clip0_3993_16">
<rect width="16" height="12" fill="white"/>
</clipPath>
</defs>
</svg>
