<svg width="42" height="42" viewBox="0 0 42 42" fill="none" xmlns="http://www.w3.org/2000/svg">
<g clip-path="url(#clip0_3995_55)">
<path d="M20.9999 -9.84337e-06C25.8602 -0.00139914 30.5706 1.6826 34.3285 4.76504C38.0863 7.84747 40.659 12.1376 41.6082 16.9043C42.5574 21.6711 41.8244 26.6195 39.5339 30.9063C37.2435 35.1931 33.5375 38.553 29.0474 40.4136C24.5572 42.2741 19.5609 42.5201 14.9097 41.1097C10.2586 39.6992 6.24039 36.7196 3.53994 32.6785C0.83948 28.6374 -0.376154 23.785 0.100187 18.948C0.576527 14.1111 2.71537 9.58901 6.15223 6.15233C8.09936 4.19872 10.4136 2.64941 12.9617 1.59355C15.5099 0.537685 18.2416 -0.0038873 20.9999 -9.84337e-06ZM11.3783 13.2104H30.6215C30.9512 13.2113 31.2671 13.3427 31.5002 13.5758C31.7333 13.809 31.8647 14.1249 31.8656 14.4546V27.6855C31.8639 27.9298 31.7889 28.168 31.6503 28.3691C31.6247 28.436 31.5851 28.4966 31.5341 28.5469C31.4993 28.5794 31.4602 28.607 31.4179 28.6289C31.1937 28.8145 30.9124 28.9171 30.6215 28.9194H11.3783C11.215 28.9193 11.0534 28.8869 10.9026 28.8241C10.7519 28.7614 10.615 28.6695 10.4999 28.5537C10.2698 28.3228 10.1387 28.0114 10.1342 27.6855V14.4546C10.1351 14.1249 10.2664 13.809 10.4996 13.5758C10.7327 13.3427 11.0486 13.2113 11.3783 13.2104ZM11.0878 27.1523L17.8314 20.395L11.0878 14.8955V27.1523ZM18.5731 21L11.621 27.9692H30.3173L23.6762 21L21.4852 22.8662C21.3996 22.9383 21.2913 22.9778 21.1793 22.9778C21.0674 22.9778 20.9591 22.9383 20.8734 22.8662L18.5731 20.9932V21ZM24.3837 20.3813L30.8778 27.2173V14.8374L24.3837 20.3813ZM11.703 14.1641L21.1674 21.875L30.2284 14.1641H11.703ZM34.9452 7.05126C31.7182 3.82588 27.4728 1.81912 22.9321 1.3729C18.3915 0.926676 13.8366 2.06859 10.0435 4.60409C6.25037 7.13958 3.4537 10.9118 2.12995 15.2781C0.806198 19.6443 1.03727 24.3345 2.78379 28.5495C4.53031 32.7644 7.68423 36.2435 11.7082 38.3939C15.7322 40.5442 20.3773 41.2329 24.852 40.3425C29.3268 39.4521 33.3545 37.0378 36.2488 33.5108C39.1431 29.9839 40.725 25.5625 40.725 21C40.7287 18.4087 40.22 15.8423 39.2281 13.4484C38.2361 11.0546 36.7806 8.88046 34.9452 7.05126Z" fill="#E4D11B"/>
</g>
<defs>
<clipPath id="clip0_3995_55">
<rect width="42" height="42" fill="white"/>
</clipPath>
</defs>
</svg>
