<svg width="28" height="32" viewBox="0 0 28 32" fill="none" xmlns="http://www.w3.org/2000/svg">
<g clip-path="url(#clip0_4731_168)">
<path fill-rule="evenodd" clip-rule="evenodd" d="M20.8433 15.8566H24.8302V15.0824C24.6022 14.2356 24.2392 13.6615 23.769 13.3123C23.2989 12.9637 22.6893 12.8146 21.9738 12.8196L5.6223 12.8233C5.21965 12.8233 4.89381 12.4959 4.89381 12.0927C4.89381 11.6888 5.21965 11.362 5.6223 11.362L21.9546 11.3639C22.9823 11.3539 23.8892 11.5888 24.6338 12.1424C24.7007 12.1921 24.7664 12.2443 24.8302 12.2989V11.8597C24.8302 11.1775 24.5496 10.5537 24.098 10.1007C23.6501 9.64779 23.0294 9.36757 22.3455 9.36757H21.8196L21.752 9.36447L21.495 10.3312H19.7282L20.7764 6.38774C19.8955 6.15164 19.3702 5.23831 19.6062 4.3548L13.7764 2.78846C13.5404 3.67135 12.6304 4.19947 11.7507 3.96275L10.0391 10.3312H8.21726L10.9894 0L23.3602 3.32466L22.1404 7.90562H22.3455C23.4265 7.90562 24.412 8.35234 25.1269 9.06872C25.843 9.78385 26.2872 10.7742 26.2872 11.8597V15.8976C26.7078 15.9815 27.0838 16.1902 27.3756 16.4829C27.7603 16.8687 28 17.403 28 17.9914V22.7973C28 23.4105 27.7497 23.9685 27.3483 24.3705C27.0615 24.6581 26.696 24.8688 26.2872 24.9651V27.8641C26.2872 28.9489 25.8424 29.9387 25.1275 30.6557L25.0817 30.698C24.3693 31.3895 23.4023 31.8182 22.3455 31.8182H3.94168C2.85947 31.8182 1.87265 31.3727 1.15779 30.6563C0.444159 29.9406 0 28.9521 0 27.8641V11.8597C0 10.7711 0.44354 9.78261 1.15717 9.06686C1.8708 8.3511 2.85699 7.90562 3.94168 7.90562H6.24115L6.25106 7.90624L8.08159 1.0873L9.82788 1.5564L7.42867 10.3312H5.6L5.85894 9.36757H3.94168C3.25965 9.36757 2.63832 9.64841 2.18735 10.1001C1.73699 10.5518 1.45699 11.1756 1.45699 11.8597V27.8641C1.45699 28.5482 1.73761 29.1708 2.18858 29.6225C2.63956 30.0754 3.2615 30.3568 3.94168 30.3568H22.3455C23.0102 30.3568 23.6179 30.0897 24.0639 29.6579L24.0973 29.6218C24.5489 29.1695 24.8302 28.5457 24.8302 27.8641V25.0241H20.8433C19.6118 25.0241 18.4918 24.5183 17.6827 23.7069L17.6065 23.623C16.8409 22.8153 16.3688 21.7268 16.3688 20.5363V20.3437C16.3688 19.1141 16.8725 17.9933 17.6827 17.1787L17.6908 17.1707C18.5023 16.3599 19.6186 15.8566 20.8433 15.8566ZM14.9143 10.0746C15.9792 10.3604 17.0757 9.72669 17.3606 8.65803C17.6462 7.58999 17.0131 6.49026 15.9482 6.20446C14.8827 5.91865 13.7863 6.55239 13.5013 7.62105C13.2164 8.6891 13.8495 9.7882 14.9143 10.0746ZM22.4434 19.203L22.4471 19.2061C23.1242 19.8871 23.1223 20.9949 22.4458 21.6752L22.4427 21.6789C21.7638 22.358 20.6593 22.3562 19.9804 21.6777L19.9773 21.6746C19.3002 20.9936 19.302 19.8858 19.9785 19.2049L19.9816 19.2018C20.6605 18.5227 21.765 18.5239 22.4434 19.203Z" fill="white"/>
</g>
<defs>
<clipPath id="clip0_4731_168">
<rect width="28" height="31.8182" fill="white"/>
</clipPath>
</defs>
</svg>
