<svg width="42" height="42" viewBox="0 0 42 42" fill="none" xmlns="http://www.w3.org/2000/svg">
<g clip-path="url(#clip0_4368_566)">
<path d="M21.0063 0C26.8029 0 32.0576 2.35644 35.8632 6.14942C39.6688 9.955 42.0126 15.1971 42.0126 21.0063C42.0126 26.8029 39.6562 32.0576 35.8632 35.8632C32.0576 39.6688 26.8155 42.0126 21.0063 42.0126C15.2097 42.0126 9.955 39.6562 6.14942 35.8632C2.34383 32.0576 0 26.8155 0 21.0063C0 15.2097 2.35644 9.955 6.14942 6.14942C9.955 2.34383 15.1971 0 21.0063 0ZM23.2871 14.3276H27.0801V9.77858H23.2871C20.3636 9.77858 17.982 12.1602 17.982 15.0837V17.3645H14.9451V21.9136H17.982V34.0486H22.5311V21.9136H26.324L27.0801 17.3645H22.5311V15.0837C22.5311 14.6679 22.8839 14.3276 23.2871 14.3276ZM34.7921 7.23312C31.2637 3.70477 26.3996 1.52475 21.0189 1.52475C15.6382 1.52475 10.7615 3.70477 7.24573 7.23312C3.71737 10.7615 1.53735 15.6256 1.53735 21.0063C1.53735 26.387 3.71737 31.2637 7.24573 34.7795C10.7741 38.3078 15.6382 40.4879 21.0189 40.4879C26.3996 40.4879 31.2763 38.3078 34.7921 34.7795C38.3204 31.2511 40.5005 26.387 40.5005 21.0063C40.5005 15.6256 38.3204 10.7489 34.7921 7.23312Z" fill="#758AFB"/>
</g>
<defs>
<clipPath id="clip0_4368_566">
<rect width="42" height="42" fill="white"/>
</clipPath>
</defs>
</svg>
