<svg width="28" height="29" viewBox="0 0 28 29" fill="none" xmlns="http://www.w3.org/2000/svg">
<path fill-rule="evenodd" clip-rule="evenodd" d="M18.6358 2.25194L12.2385 6.1491L19.7447 7.18853L25.9169 3.26368L18.6358 2.25194ZM20.1162 13.8422C24.2042 13.8422 27.5182 17.2205 27.5182 21.3878C27.5182 25.5552 24.2042 28.9335 20.1162 28.9335C16.0282 28.9335 12.7148 25.5552 12.7148 21.3878C12.7148 17.2205 16.0282 13.8422 20.1162 13.8422ZM19.4547 17.7185C19.452 17.8434 19.4725 17.9033 19.5789 17.9033H21.2207C21.6853 17.9412 22.1017 18.0666 22.4532 18.3086C22.6966 18.4776 22.8757 18.7918 23.0099 19.0134C23.2478 19.4073 23.383 19.9771 23.4562 20.436C23.4873 20.6344 23.5017 20.8209 23.4679 20.9063C23.4529 20.947 23.428 20.9747 23.3975 20.9871C23.2211 21.0589 23.0337 20.8119 22.9345 20.6932C22.4615 20.1291 21.7735 19.8957 20.9629 19.8516H19.5412C19.457 19.8663 19.427 19.9296 19.4359 20.0274V20.7005C19.4309 20.9249 19.32 21.0012 19.1004 20.9255L17.0806 19.3096L16.8815 19.1502L16.8305 19.1095C16.6686 18.9608 16.7351 18.7127 16.881 18.5957L17.0351 18.4725L18.9712 16.9187C19.2069 16.7293 19.4547 16.6779 19.4547 17.0866V17.7185ZM20.7782 25.0578C20.7804 24.9323 20.7605 24.8718 20.654 24.8718H19.0117C18.5471 24.8345 18.1307 24.709 17.7797 24.4666C17.5352 24.2976 17.355 23.9816 17.2208 23.7584C16.978 23.3537 16.8177 22.6935 16.7595 22.2204C16.7418 22.0701 16.7385 21.9372 16.764 21.8694C16.7795 21.8293 16.805 21.801 16.836 21.7886C17.0118 21.7168 17.1987 21.9644 17.2979 22.0825C17.7714 22.6466 18.4595 22.88 19.2701 22.9241H20.6917C20.7754 22.9094 20.8054 22.8461 20.7971 22.7483V22.0752C20.8021 21.8513 20.9124 21.775 21.1325 21.8502L23.1524 23.4661L23.3509 23.6255L23.4013 23.6662C23.5644 23.8149 23.4973 24.063 23.3514 24.18L23.1973 24.3032L21.2617 25.857C21.0255 26.0463 20.7782 26.0978 20.7782 25.6891V25.0578ZM11.3569 7.12918L11.3519 15.1388L8.49925 13.1583L5.64602 14.8014L5.98424 6.38479L1.07509 5.70484V23.3949L10.9971 24.7028C11.1368 25.1036 11.3004 25.493 11.4878 25.8683L0.515644 24.4219C0.22899 24.41 0 24.1687 0 23.8742V5.07915C0.0149703 4.85023 0.104792 4.68971 0.317149 4.58119L10.1171 0.048172C10.2048 0.00747657 10.3129 -0.00891465 10.4088 0.00521572L27.496 2.38081C27.7782 2.41416 27.9717 2.65042 27.9717 2.94546V2.94659L28 15.877C27.6829 15.3988 27.1367 14.7302 26.895 14.3074V3.93176L20.4738 8.16691V11.5475C20.1154 11.5339 19.7564 11.5407 19.3987 11.5678V8.24322L11.3569 7.12918ZM6.83699 5.40075L13.0563 1.47647L10.4182 1.10964L2.45291 4.79315L6.83699 5.40075Z" fill="white"/>
</svg>
