<svg width="18" height="18" viewBox="0 0 18 18" fill="none" xmlns="http://www.w3.org/2000/svg">
<path d="M4.95445 7.4037C5.56047 8.45629 6.25789 9.46928 7.1626 10.3927C8.0714 11.3206 9.19671 12.1661 10.66 12.8829L10.6614 12.8836L10.6617 12.8829C10.7684 12.9354 10.8699 12.9341 10.9652 12.8996C11.1035 12.8497 11.2475 12.7388 11.3876 12.6045C11.4944 12.5019 11.6282 12.3324 11.773 12.1487C12.3364 11.4339 13.0329 10.5503 14.0163 10.9899C14.0371 10.9991 14.0567 11.0098 14.0752 11.0218L17.3525 12.8396C17.3642 12.8461 17.3755 12.8531 17.3862 12.8604C17.8207 13.1484 17.9981 13.5919 18 14.0885C18.002 14.6007 17.8053 15.1739 17.5204 15.6586C17.1446 16.2975 16.5848 16.7197 15.944 17.0058C15.3332 17.2785 14.6553 17.4237 14.0006 17.5162C12.9768 17.6611 12.0116 17.569 11.0287 17.2768C10.0692 16.9916 9.09857 16.5152 8.04034 15.8822L7.96329 15.8361C7.47608 15.5448 6.95165 15.2313 6.44144 14.8596C4.55689 13.4863 2.63776 11.5043 1.39336 9.32911C0.34583 7.49804 -0.227373 5.52313 0.0850839 3.64002C0.256327 2.60667 0.717907 1.66864 1.51362 1.0473C2.21119 0.50234 3.15252 0.207158 4.3625 0.311398C4.50503 0.323279 4.62515 0.401777 4.69283 0.5121L4.69371 0.511675L6.79198 3.94439C7.10107 4.32882 7.13535 4.71029 6.96821 5.08948C6.83007 5.40319 6.54457 5.69074 6.16604 5.96188C6.05091 6.05381 5.91585 6.14928 5.77654 6.24772C5.30807 6.57883 4.77222 6.95746 4.95445 7.4037ZM6.54354 10.9582C5.57614 9.97068 4.83917 8.9014 4.20341 7.79605C4.19228 7.77866 4.18232 7.76027 4.17382 7.74089C3.70888 6.6859 4.54297 6.09667 5.27145 5.58225C5.39523 5.49485 5.51506 5.41012 5.62317 5.32356L5.62346 5.32399C5.62976 5.3189 5.63635 5.31395 5.64323 5.30914C5.91321 5.11763 6.10774 4.93475 6.18201 4.76644C6.22435 4.6704 6.20867 4.56474 6.11375 4.44608C6.09749 4.42783 6.08255 4.40775 6.06936 4.38625L4.07158 1.11831C3.21185 1.08422 2.54533 1.30515 2.0524 1.69028C1.43144 2.17528 1.06757 2.92915 0.928262 3.76929C0.649205 5.45157 1.17963 7.24784 2.14293 8.93181C3.32625 11.0001 5.1569 12.8888 6.95707 14.2004C7.45205 14.5611 7.94967 14.8585 8.41198 15.1349L8.48903 15.181C9.48778 15.7783 10.3959 16.2257 11.2799 16.4885C12.1407 16.7443 12.9841 16.8251 13.877 16.6986C14.4642 16.6156 15.0654 16.4886 15.5862 16.2561C16.0771 16.0368 16.5014 15.7207 16.7777 15.2513C16.9968 14.8783 17.1483 14.4517 17.147 14.0884C17.1461 13.8578 17.0779 13.66 16.9119 13.5447L13.6525 11.7372C13.292 11.5844 12.828 12.173 12.4524 12.6495C12.2907 12.8549 12.1411 13.0444 11.9901 13.1894C11.7737 13.3967 11.5333 13.5745 11.2632 13.6718C10.9503 13.7849 10.6194 13.7898 10.2737 13.6195L10.274 13.6189C8.71916 12.8573 7.51812 11.9532 6.54354 10.9582Z" fill="#E5E5E5"/>
</svg>
