<svg width="23" height="21" viewBox="0 0 23 21" fill="none" xmlns="http://www.w3.org/2000/svg">
<g clip-path="url(#clip0_4067_18)">
<path fill-rule="evenodd" clip-rule="evenodd" d="M18.2775 1.47593L21.2181 1.594V5.50325L18.2775 3.59013V1.47593ZM20.9635 20.4115C20.9635 20.4575 20.9543 20.503 20.9364 20.5454C20.9185 20.5878 20.8923 20.6263 20.8592 20.6587C20.8262 20.6911 20.787 20.7168 20.7438 20.7342C20.7007 20.7516 20.6545 20.7605 20.6079 20.7602H16.1737V19.7677H19.9509V10.06C19.9481 10.038 19.9481 10.0157 19.9509 9.99363L11.528 3.53663L2.94234 9.99732C2.94988 10.0262 2.95365 10.056 2.95357 10.0859V19.7677H7.47571V20.7602H2.29846C2.20464 20.7602 2.11466 20.7235 2.04831 20.6581C1.98197 20.5927 1.9447 20.504 1.9447 20.4115V10.4493C1.60457 10.591 1.22434 10.6087 0.872191 10.4991C0.639005 10.4228 0.433459 10.2811 0.28072 10.0914C0.129522 9.90122 0.0354914 9.67303 0.00931658 9.43279C-0.00948468 9.21193 0.0167674 8.9896 0.0865252 8.77889C0.156283 8.56819 0.268134 8.37339 0.415485 8.20596C0.432465 8.18525 0.451951 8.16667 0.473509 8.15062L11.2304 0.0922842C11.2917 0.0357713 11.3715 0.00282121 11.4553 -0.000564927C11.5391 -0.00395106 11.6214 0.022452 11.6871 0.0738356L22.4703 8.11741C22.4855 8.12935 22.4999 8.14229 22.5133 8.15615C22.706 8.34024 22.8483 8.56943 22.9268 8.82234C23.0054 9.07526 23.0176 9.34366 22.9625 9.60252C22.9105 9.81722 22.8053 10.0159 22.6564 10.1807C22.5075 10.3455 22.3194 10.4714 22.109 10.5471C21.9225 10.6109 21.7248 10.6373 21.5277 10.6246C21.3307 10.6119 21.1382 10.5605 20.9616 10.4733V20.4134L20.9635 20.4115ZM9.93331 19.3046H13.4316C13.4858 19.2365 13.5346 19.1643 13.5776 19.0888V19.0777L13.7423 18.8084C13.8794 18.5919 13.996 18.3634 14.0905 18.1258V18.1147V18.1036V18.0889V18.0741V18.0243V18.0058V17.9948V17.9837V17.9726V17.9616V17.9284V17.8951V17.8841V17.8749V17.8546V17.8343V17.814V17.8011V17.79V17.7679V17.7568V17.6922V17.6701V17.6479V17.6258V17.6V17.5778V17.5557V17.5262V17.5077V17.4856V17.4616V17.4376L14.2252 16.7347C14.2252 16.7237 14.2252 16.7144 14.2252 16.7034C14.2252 16.6923 14.2252 16.6277 14.2252 16.5392V16.517V16.4967V16.4119V16.3897V16.3676V16.3455V16.2348V16.2126V16.1794V16.1573V16.0503V16.03V16.0097V15.9894V15.9285V15.8879V15.8695V15.8603V15.8418V15.8215C14.2103 15.7311 14.1677 15.6473 14.1031 15.5814C14.0386 15.5155 13.9551 15.4705 13.864 15.4526H13.5364V15.626C13.5364 15.7404 13.5214 15.8529 13.5214 15.958C13.5214 16.0128 13.4994 16.0654 13.46 16.1042C13.4207 16.1429 13.3674 16.1647 13.3118 16.1647C13.2562 16.1647 13.2029 16.1429 13.1636 16.1042C13.1243 16.0654 13.1022 16.0128 13.1022 15.958C13.1022 15.8529 13.1022 15.7293 13.119 15.6001V15.5799V15.5614V15.5411V15.5227V15.5024V15.6813V15.661V15.6444V15.6223V15.6038V15.5835V15.5669V15.5448V15.5042V15.4636V15.4433C13.119 15.1316 13.0629 14.8622 12.8083 14.8161H12.5406H12.4957C12.4957 14.9323 12.4957 15.0504 12.4957 15.1685V15.2957C12.4957 15.4101 12.4826 15.5208 12.4826 15.626C12.4826 15.6808 12.4605 15.7333 12.4212 15.7721C12.3819 15.8108 12.3286 15.8326 12.273 15.8326C12.2174 15.8326 12.1641 15.8108 12.1248 15.7721C12.0854 15.7333 12.0634 15.6808 12.0634 15.626C12.0634 15.5208 12.0634 15.3972 12.0802 15.2699V15.2496V15.233V15.2127V15.1943V15.174V15.1279V15.1094V15.091V15.0707V15.0485V15.0301V15.0116V14.9913V14.9821C12.0914 14.6334 12.0521 14.3106 11.7714 14.2589H11.4812C11.4632 14.2608 11.445 14.2608 11.427 14.2589V15.0356C11.427 15.0904 11.4049 15.143 11.3656 15.1817C11.3262 15.2205 11.2729 15.2422 11.2173 15.2422C11.1617 15.2422 11.1084 15.2205 11.0691 15.1817C11.0298 15.143 11.0077 15.0904 11.0077 15.0356V14.021C11.0077 13.7368 10.7213 13.6132 10.4462 13.6132C10.3707 13.6132 10.2962 13.6309 10.229 13.6649C10.0896 13.7464 9.98859 13.8791 9.94828 14.0339V14.0615V14.0745V14.0892V14.104V14.1187V14.1316V14.1427V14.1575V14.2054V14.2165V14.2313V14.246V14.2626V14.2774V14.3069V14.3235V14.3401V14.3549V14.3678V16.6573C9.94828 16.7121 9.9262 16.7646 9.88688 16.8034C9.84757 16.8421 9.79425 16.8639 9.73865 16.8639C9.68305 16.8639 9.62973 16.8421 9.59041 16.8034C9.5511 16.7646 9.52901 16.7121 9.52901 16.6573V16.2754L9.49719 16.2551L9.0929 15.9322L8.50517 15.4968C8.44854 15.4502 8.38553 15.4117 8.31799 15.3825H8.17948C8.11832 15.3652 8.05348 15.3652 7.99231 15.3825C7.94799 15.402 7.91309 15.4377 7.89498 15.4821H7.88188C7.85963 15.5625 7.85265 15.6463 7.86129 15.7293C7.8737 15.8535 7.9079 15.9746 7.96236 16.0872C8.03692 16.2435 8.12855 16.3914 8.23564 16.5281C8.24107 16.5341 8.2455 16.541 8.24874 16.5484L9.83411 18.8729C9.85377 18.9009 9.866 18.9332 9.86967 18.967C9.88142 19.0799 9.90271 19.1916 9.93331 19.3009V19.3046ZM11.7657 6.957V9.28889H13.9838C13.9835 8.98338 13.9184 8.68129 13.7927 8.40203C13.667 8.12276 13.4834 7.87249 13.2538 7.66727C12.852 7.26893 12.3231 7.01937 11.7564 6.96069L11.7657 6.957ZM11.7657 9.8073V11.1928H13.9838V9.80361L11.7657 9.8073ZM11.2435 11.1909V9.8073H9.01615V11.1928H11.2398L11.2435 11.1909ZM11.2435 9.29258V6.95331C10.6769 7.01229 10.1481 7.2618 9.74613 7.65989C9.51687 7.8654 9.33355 8.11573 9.20787 8.39493C9.08219 8.67412 9.0169 8.97607 9.01615 9.28152L11.2435 9.29258ZM11.5037 6.42752C11.8983 6.4277 12.2889 6.50472 12.6531 6.65415C13.0174 6.80359 13.3481 7.0225 13.6263 7.29829C13.9035 7.55134 14.1248 7.85811 14.2762 8.19938C14.4276 8.54065 14.5058 8.90906 14.506 9.28152V11.702H8.49394V9.28152C8.49429 8.90837 8.57277 8.53931 8.72446 8.19742C8.87616 7.85554 9.0978 7.54819 9.37553 7.2946C9.65391 7.01859 9.98492 6.79955 10.3495 6.65011C10.7141 6.50067 11.1051 6.42377 11.5 6.42383L11.5037 6.42752ZM14.0661 19.3175C14.1314 19.3356 14.1888 19.3743 14.2297 19.4276C14.2706 19.4809 14.2927 19.5459 14.2926 19.6127V20.6956C14.2926 20.7774 14.2597 20.8557 14.201 20.9135C14.1424 20.9713 14.0629 21.0037 13.98 21.0037H9.4635C9.38075 21.0032 9.30153 20.9706 9.24301 20.913C9.1845 20.8553 9.15141 20.7772 9.15092 20.6956V19.6127C9.15138 19.5321 9.1837 19.4548 9.24101 19.3973C9.29832 19.3398 9.37611 19.3065 9.45788 19.3046L7.90247 16.7882C7.77876 16.6263 7.67391 16.4512 7.58988 16.2661C7.51533 16.1093 7.46969 15.9406 7.45512 15.768C7.4495 15.7036 7.4495 15.6388 7.45512 15.5743C6.86178 15.6961 6.24971 15.709 5.6545 15.1094C5.45012 14.8888 5.29357 14.6294 5.19444 14.3471C5.09531 14.0647 5.05569 13.7654 5.078 13.4675C6.59973 15.209 8.44714 13.0561 6.20105 11.9363C7.29976 11.4382 8.31425 11.9067 8.85893 12.8919C9.11723 13.3568 9.26884 13.6022 9.46537 13.7664C9.50071 13.7972 9.53824 13.8256 9.57768 13.8512C9.65831 13.6158 9.82516 13.4184 10.0456 13.2978C10.1719 13.2342 10.3118 13.2013 10.4537 13.2018C10.8505 13.2018 11.3446 13.4343 11.427 13.8346C11.4456 13.8318 11.4645 13.8318 11.4831 13.8346H11.7714C11.7869 13.8328 11.8026 13.8328 11.8182 13.8346C11.9708 13.8481 12.1147 13.9106 12.2276 14.0126C12.3406 14.1147 12.4164 14.2505 12.4433 14.3991C12.4744 14.3876 12.5079 14.3844 12.5406 14.3899H12.8289C12.8444 14.388 12.8602 14.388 12.8757 14.3899C13.04 14.4058 13.1936 14.4774 13.3104 14.5924C13.4271 14.7075 13.4997 14.8589 13.5158 15.0209H13.8359C13.8514 15.0189 13.8672 15.0189 13.8827 15.0209C14.3562 15.0928 14.5434 15.3898 14.6164 15.7588C15.4737 15.6389 16.4264 15.1279 17.351 16.0503C17.5511 16.2706 17.704 16.5284 17.8004 16.8083C17.8969 17.0882 17.9351 17.3845 17.9126 17.6793C16.3908 15.9378 14.5434 18.0907 16.7895 19.2105C15.8536 19.6459 14.9683 19.3544 14.3918 18.6368C14.3129 18.8466 14.2152 19.0491 14.0998 19.2419L14.0586 19.3083L14.0661 19.3175ZM9.48409 15.5411C9.39986 15.5079 9.33435 15.4802 9.28568 15.4636C9.19625 15.4278 9.10504 15.3964 9.01241 15.3695L9.31189 15.6131L9.48409 15.7496V15.5411Z" fill="white"/>
</g>
<defs>
<clipPath id="clip0_4067_18">
<rect width="23" height="21" fill="white"/>
</clipPath>
</defs>
</svg>
