<svg width="42" height="42" viewBox="0 0 42 42" fill="none" xmlns="http://www.w3.org/2000/svg">
<g clip-path="url(#clip0_3995_57)">
<path fill-rule="evenodd" clip-rule="evenodd" d="M20.9433 27.2061C24.5347 27.2061 27.4455 24.2952 27.4455 20.7039C27.4455 17.1125 24.5347 14.2016 20.9433 14.2016C17.3519 14.2016 14.441 17.1125 14.441 20.7039C14.441 24.2952 17.3519 27.2061 20.9433 27.2061ZM16.0918 32.5113H25.9208C29.613 32.5113 32.6247 29.5248 32.6247 25.8956V16.0918C32.6247 12.45 29.613 9.47615 25.9208 9.47615H16.0918C12.3996 9.47615 9.38794 12.45 9.38794 16.0918V25.8956C9.38794 29.5374 12.4122 32.5113 16.0918 32.5113ZM27.2313 28.1134C27.811 28.1134 28.2898 27.6472 28.2898 27.0549C28.2898 26.4752 27.8236 25.9964 27.2313 25.9964C26.6517 25.9964 26.1728 26.4626 26.1728 27.0549C26.1728 27.6346 26.6391 28.1134 27.2313 28.1134ZM16.8983 30.6337H25.1143C28.2016 30.6337 30.7219 28.126 30.7219 25.0513V16.7849C30.7219 13.7102 28.2016 11.2025 25.1143 11.2025H16.8983C13.811 11.2025 11.2907 13.7102 11.2907 16.7849V25.0513C11.2907 28.126 13.811 30.6337 16.8983 30.6337ZM21.0063 42C26.8029 42 32.0576 39.6436 35.8632 35.8506C39.6688 32.045 42.0126 26.8029 42.0126 20.9937C42.0126 15.1971 39.6562 9.94239 35.8632 6.13681C32.0576 2.33123 26.8155 -0.0126038 21.0063 -0.0126038C15.2097 -0.0126038 9.955 2.34383 6.14942 6.13681C2.34383 9.94239 0 15.1845 0 20.9937C0 26.7903 2.35644 32.045 6.14942 35.8506C9.955 39.6562 15.1971 42 21.0063 42ZM34.7795 34.7795C31.2511 38.3078 26.387 40.4878 21.0063 40.4878C15.6256 40.4878 10.7489 38.3078 7.23312 34.7795C3.70477 31.2511 1.52475 26.387 1.52475 21.0063C1.52475 15.6256 3.70477 10.7489 7.23312 7.23312C10.7615 3.70477 15.6256 1.52475 21.0063 1.52475C26.387 1.52475 31.2637 3.70477 34.7795 7.23312C38.3078 10.7615 40.4879 15.6256 40.4879 21.0063C40.4879 26.387 38.3078 31.2637 34.7795 34.7795ZM20.9433 25.0261C23.3123 25.0261 25.2403 23.0981 25.2403 20.7291C25.2403 18.36 23.3123 16.432 20.9433 16.432C18.5617 16.432 16.6463 18.36 16.6463 20.7291C16.6463 23.0981 18.5743 25.0261 20.9433 25.0261Z" fill="#E4D11B"/>
</g>
<defs>
<clipPath id="clip0_3995_57">
<rect width="42" height="42" fill="white" transform="matrix(1 0 0 -1 0 42)"/>
</clipPath>
</defs>
</svg>
