<svg width="23" height="23" viewBox="0 0 23 23" fill="none" xmlns="http://www.w3.org/2000/svg">
<circle cx="11.5" cy="11.5" r="11" stroke="#758AFB"/>
<path d="M11.5023 9.02939C10.1359 9.02939 9.03374 10.1315 9.03374 11.4979C9.03374 12.8644 10.1359 13.9665 11.5023 13.9665C12.8687 13.9665 13.9708 12.8644 13.9708 11.4979C13.9708 10.1315 12.8687 9.02939 11.5023 9.02939ZM11.5023 13.1028C10.6193 13.1028 9.89741 12.3831 9.89741 11.4979C9.89741 10.6128 10.6171 9.89307 11.5023 9.89307C12.3875 9.89307 13.1072 10.6128 13.1072 11.4979C13.1072 12.3831 12.3853 13.1028 11.5023 13.1028ZM14.6476 8.92842C14.6476 9.24853 14.3898 9.5042 14.0718 9.5042C13.7517 9.5042 13.496 9.24639 13.496 8.92842C13.496 8.61045 13.7539 8.35264 14.0718 8.35264C14.3898 8.35264 14.6476 8.61045 14.6476 8.92842ZM16.2826 9.51279C16.246 8.7415 16.0699 8.0583 15.5048 7.49541C14.9419 6.93252 14.2587 6.75635 13.4875 6.71768C12.6925 6.67256 10.3099 6.67256 9.51499 6.71768C8.74585 6.7542 8.06265 6.93037 7.49761 7.49326C6.93257 8.05615 6.75854 8.73936 6.71987 9.51064C6.67476 10.3056 6.67476 12.6882 6.71987 13.4831C6.7564 14.2544 6.93257 14.9376 7.49761 15.5005C8.06265 16.0634 8.7437 16.2395 9.51499 16.2782C10.3099 16.3233 12.6925 16.3233 13.4875 16.2782C14.2587 16.2417 14.9419 16.0655 15.5048 15.5005C16.0677 14.9376 16.2439 14.2544 16.2826 13.4831C16.3277 12.6882 16.3277 10.3077 16.2826 9.51279ZM15.2556 14.336C15.088 14.7571 14.7636 15.0815 14.3404 15.2513C13.7066 15.5026 12.2027 15.4446 11.5023 15.4446C10.8019 15.4446 9.29585 15.5005 8.66421 15.2513C8.24312 15.0837 7.9187 14.7593 7.74897 14.336C7.49761 13.7022 7.55562 12.1983 7.55562 11.4979C7.55562 10.7976 7.49976 9.2915 7.74897 8.65986C7.91655 8.23877 8.24097 7.91436 8.66421 7.74463C9.298 7.49326 10.8019 7.55127 11.5023 7.55127C12.2027 7.55127 13.7087 7.49541 14.3404 7.74463C14.7615 7.91221 15.0859 8.23662 15.2556 8.65986C15.507 9.29365 15.449 10.7976 15.449 11.4979C15.449 12.1983 15.507 13.7044 15.2556 14.336Z" fill="#758AFB"/>
</svg>
