<svg width="43" height="43" viewBox="0 0 43 43" fill="none" xmlns="http://www.w3.org/2000/svg">
<circle cx="21.5" cy="21.5" r="21" stroke="#E4D11B"/>
<g clip-path="url(#clip0_5038_3)">
<path d="M20.5365 33.4956C13.4419 23.2105 12.125 22.1549 12.125 18.375C12.125 13.1973 16.3223 9 21.5 9C26.6777 9 30.875 13.1973 30.875 18.375C30.875 22.1549 29.5581 23.2105 22.4635 33.4956C21.9979 34.1682 21.0021 34.1681 20.5365 33.4956ZM21.5 22.2812C23.6574 22.2812 25.4062 20.5324 25.4062 18.375C25.4062 16.2176 23.6574 14.4688 21.5 14.4688C19.3426 14.4688 17.5938 16.2176 17.5938 18.375C17.5938 20.5324 19.3426 22.2812 21.5 22.2812Z" fill="#E4D11B"/>
</g>
<defs>
<clipPath id="clip0_5038_3">
<rect width="25" height="25" fill="white" transform="translate(9 9)"/>
</clipPath>
</defs>
</svg>
