<svg width="28" height="30" viewBox="0 0 28 30" fill="none" xmlns="http://www.w3.org/2000/svg">
<g clip-path="url(#clip0_4731_176)">
<path d="M13.1546 0.599854C13.1546 0.268555 13.5333 0 13.9999 0C14.4665 0 14.8452 0.268555 14.8452 0.599854V11.4341C14.8452 11.7654 14.4667 12.0339 13.9999 12.0339C13.533 12.0339 13.1546 11.7654 13.1546 11.4341V0.599854ZM18.232 4.80005C17.7941 4.64185 17.5695 4.16406 17.7302 3.73242C17.8905 3.30103 18.3752 3.07959 18.813 3.23779C21.528 4.21802 23.8503 6.0061 25.4812 8.30762C27.0685 10.5474 28 13.2686 28 16.1995C28 20.0095 26.4325 23.4597 23.8989 25.9575C21.3652 28.4548 17.8652 30.0002 13.9999 30.0002C10.1345 30.0002 6.63451 28.4551 4.10087 25.9575C1.56748 23.4597 0 20.0095 0 16.1995C0 13.2686 0.931228 10.5474 2.51853 8.30762C4.14941 6.0061 6.47179 4.21802 9.18671 3.23779C9.62434 3.07983 10.1093 3.30127 10.2695 3.73242C10.43 4.16382 10.2054 4.64185 9.76774 4.80005C7.37552 5.66382 5.33128 7.23608 3.89853 9.25781C2.50689 11.2217 1.69033 13.6147 1.69033 16.1995C1.69033 19.5498 3.06835 22.5833 5.29611 24.7793C7.52388 26.9753 10.6011 28.334 13.9999 28.334C17.3986 28.334 20.4759 26.9756 22.7036 24.7793C24.9314 22.5835 26.3094 19.5498 26.3094 16.1995C26.3094 13.6147 25.4929 11.2217 24.1012 9.25781C22.6682 7.23584 20.6242 5.66357 18.232 4.80005Z" fill="white"/>
</g>
<defs>
<clipPath id="clip0_4731_176">
<rect width="28" height="30" fill="white"/>
</clipPath>
</defs>
</svg>
