<svg width="43" height="43" viewBox="0 0 43 43" fill="none" xmlns="http://www.w3.org/2000/svg">
<path d="M21.5 0C27.4349 0 32.8134 2.40755 36.7012 6.29883C40.5924 10.1901 43 15.5651 43 21.5C43 27.4349 40.5924 32.8134 36.7012 36.7012C32.8099 40.5924 27.4349 43 21.5 43C15.5651 43 10.1866 40.5924 6.29883 36.7012C2.40755 32.8134 0 27.4384 0 21.5C0 15.5651 2.40755 10.1901 6.29883 6.29883C10.1866 2.40755 15.5616 0 21.5 0ZM21.5 32.299C20.1038 32.299 18.97 31.1652 18.97 29.7725C18.97 28.3797 20.1038 27.2459 21.5 27.2459C22.8962 27.2459 24.03 28.3797 24.03 29.7725C24.03 31.1687 22.8962 32.299 21.5 32.299ZM21.5 15.3936C20.1038 15.3936 18.97 14.2633 18.97 12.8671C18.97 11.4709 20.1038 10.3406 21.5 10.3406C22.8962 10.3406 24.03 11.4709 24.03 12.8671C24.03 14.2633 22.8962 15.3936 21.5 15.3936ZM21.5 23.8481C20.1038 23.8481 18.97 22.7143 18.97 21.3215C18.97 19.9253 20.1038 18.795 21.5 18.795C22.8962 18.795 24.03 19.9288 24.03 21.3215C24.03 22.7143 22.8962 23.8481 21.5 23.8481ZM34.1781 8.81836C30.9342 5.57446 26.4516 3.56934 21.5 3.56934C16.5484 3.56934 12.0658 5.57796 8.82186 8.82186C5.57446 12.0658 3.56934 16.5484 3.56934 21.5C3.56934 26.4516 5.57796 30.9342 8.82186 34.1816C12.0658 37.4255 16.5484 39.4342 21.5035 39.4342C26.4586 39.4342 30.9377 37.4255 34.1816 34.1816C37.4255 30.9377 39.4342 26.4551 39.4342 21.5C39.4307 16.5484 37.4255 12.0658 34.1781 8.81836Z" fill="#727272"/>
</svg>
