<svg width="28" height="34" viewBox="0 0 28 34" fill="none" xmlns="http://www.w3.org/2000/svg">
<g clip-path="url(#clip0_4732_179)">
<path d="M16.4952 3.16296L22.11 9.01095L16.4008 9.10455L16.4952 3.16296ZM22.0209 25.5546C21.7489 25.8248 21.3068 25.8248 21.0342 25.5546C20.7622 25.2851 20.7622 24.8463 21.0342 24.5768L22.2788 23.3435C22.9312 22.697 23.7906 22.3737 24.65 22.3737C25.5068 22.3737 26.3655 22.697 27.018 23.3435L27.0347 23.3581C27.6785 24.0027 28 24.849 28 25.694C28 26.5443 27.6738 27.3966 27.0213 28.0431L25.7767 29.2765C25.5048 29.546 25.062 29.546 24.79 29.2765C24.5174 29.0063 24.5174 28.5682 24.79 28.2987L26.0346 27.0654C26.4144 26.6883 26.6047 26.1912 26.6047 25.694C26.6047 25.1961 26.4144 24.6983 26.0346 24.3226L26.0038 24.2901C25.628 23.9343 25.139 23.7564 24.65 23.7564C24.1477 23.7564 23.6453 23.9449 23.2655 24.3213L22.0209 25.5546ZM23.4162 25.9084C23.6875 25.6396 24.1289 25.6396 24.4009 25.9084C24.6722 26.1779 24.6722 26.6153 24.4009 26.8842L20.8191 30.4335C20.5478 30.7023 20.1064 30.7023 19.8344 30.4335C19.5632 30.164 19.5632 29.7265 19.8344 29.457L23.4162 25.9084ZM22.2232 30.8423C22.4958 30.5722 22.9379 30.5722 23.2099 30.8423C23.4825 31.1118 23.4825 31.5499 23.2099 31.8201L21.9887 33.0295C21.3363 33.6767 20.4762 34 19.6174 34C18.7613 34 17.9033 33.6781 17.2515 33.0342L17.2059 32.9864C16.581 32.3452 16.2675 31.5121 16.2675 30.6804C16.2675 29.8307 16.5937 28.9798 17.2461 28.3332L18.4673 27.1205C18.7399 26.8503 19.182 26.8503 19.454 27.1205C19.7266 27.39 19.7266 27.8287 19.454 28.0982L18.2335 29.3077C17.8523 29.6834 17.6628 30.1812 17.6628 30.6804C17.6628 31.1643 17.8423 31.6489 18.2 32.0212L18.2335 32.0518C18.6133 32.4288 19.1157 32.6173 19.6174 32.6173C20.1198 32.6173 20.6222 32.4288 21.002 32.0524L22.2232 30.8423ZM4.93885 25.7969H13.2759V24.5038H4.93885V25.7969ZM4.93885 20.9678H18.5671V19.6747H4.93885V20.9678ZM4.93885 6.48125H9.96478V5.18818H4.93885V6.48125ZM4.93885 11.3103H12.0722V10.0173H4.93885V11.3103ZM4.93885 16.1387H20.1788V14.8463H4.93885V16.1387ZM24.4578 8.95851L16.1878 0.341188C16.1008 0.234581 15.9909 0.148607 15.8661 0.0895695C15.7412 0.0305319 15.6046 -7.2473e-05 15.4663 1.28871e-07H1.68C0.750909 1.28871e-07 0 0.744109 0 1.66479V30.1653C0 31.0846 0.752249 31.8301 1.68 31.8301H14.9679C14.8442 31.3444 14.7994 30.8422 14.8353 30.3425H1.50115V1.47892H14.7134V9.84334C14.7134 10.3551 15.1307 10.7773 15.6559 10.7773H23.6372V21.0514C23.9699 20.9791 24.3095 20.9426 24.65 20.9426C24.8122 20.9426 24.985 20.9505 25.1478 20.9678V10.4295C25.1478 9.91105 25.121 9.61567 24.4578 8.95851Z" fill="white"/>
</g>
<defs>
<clipPath id="clip0_4732_179">
<rect width="28" height="34" fill="white"/>
</clipPath>
</defs>
</svg>
