<svg width="22" height="24" viewBox="0 0 22 24" fill="none" xmlns="http://www.w3.org/2000/svg">
<g clip-path="url(#clip0_4733_33)">
<path d="M10.3357 0.479883C10.3357 0.214844 10.6333 0 10.9999 0C11.3665 0 11.6641 0.214844 11.6641 0.479883V9.14727C11.6641 9.4123 11.3667 9.62715 10.9999 9.62715C10.6331 9.62715 10.3357 9.4123 10.3357 9.14727V0.479883ZM14.3252 3.84004C13.9811 3.71348 13.8046 3.33125 13.9309 2.98594C14.0568 2.64082 14.4376 2.46367 14.7817 2.59023C16.9148 3.37441 18.7396 4.80488 20.021 6.64609C21.2681 8.43789 22 10.6148 22 12.9596C22 16.0076 20.7684 18.7678 18.7777 20.766C16.787 22.7639 14.037 24.0002 10.9999 24.0002C7.96285 24.0002 5.21283 22.7641 3.22211 20.766C1.2316 18.7678 0 16.0076 0 12.9596C0 10.6148 0.731679 8.43789 1.97884 6.64609C3.26025 4.80488 5.08498 3.37441 7.21813 2.59023C7.56198 2.46387 7.943 2.64102 8.0689 2.98594C8.195 3.33105 8.0185 3.71348 7.67465 3.84004C5.79505 4.53105 4.18886 5.78887 3.06313 7.40625C1.9697 8.97734 1.32811 10.8918 1.32811 12.9596C1.32811 15.6398 2.41084 18.0666 4.16123 19.8234C5.91162 21.5803 8.32947 22.6672 10.9999 22.6672C13.6703 22.6672 16.0882 21.5805 17.8386 19.8234C19.589 18.0668 20.6717 15.6398 20.6717 12.9596C20.6717 10.8918 20.0301 8.97734 18.9367 7.40625C17.8107 5.78867 16.2048 4.53086 14.3252 3.84004Z" fill="#758AFB"/>
</g>
<defs>
<clipPath id="clip0_4733_33">
<rect width="22" height="24" fill="white"/>
</clipPath>
</defs>
</svg>
