<svg width="74" height="79" viewBox="0 0 74 79" fill="none" xmlns="http://www.w3.org/2000/svg">
<g clip-path="url(#clip0_5055_2)">
<path fill-rule="evenodd" clip-rule="evenodd" d="M45.6918 25.9393L47.4801 27.7167H47.494C48.251 28.4813 48.2988 29.7546 47.4801 30.4899L46.4303 31.5536C46.441 31.589 46.4657 31.6245 46.4765 31.6599C46.6692 32.0638 46.8372 32.5309 46.9667 32.9579L46.9899 33.0396H48.2787C49.3563 33.0396 50.2551 33.9368 50.2551 35.0158V37.5624C50.2551 38.6847 49.381 39.5356 48.2787 39.5356H46.7833C46.6461 39.9826 46.347 40.5468 46.1312 40.9754L47.0423 41.8741L47.0777 41.9095C47.8332 42.6649 47.7777 43.9166 47.0777 44.6812L47.0531 44.7058L45.2632 46.4832C44.514 47.2848 43.2082 47.2756 42.4558 46.4832L41.4167 45.4304C41.3057 45.5074 40.0231 45.9838 39.9182 45.9838V47.2601C39.9182 48.3392 39.021 49.2364 37.9403 49.2364H35.395C34.2727 49.2364 33.4201 48.3608 33.4201 47.2601V45.7649C32.9345 45.5876 32.4458 45.3394 31.9817 45.1097L31.0845 46.0192L31.049 46.0547C30.2875 46.8085 29.0433 46.7592 28.274 46.0547L28.2509 46.0316L26.4626 44.2187C25.6625 43.4202 25.6902 42.2302 26.4749 41.4347L27.5248 40.3942C27.5017 40.3587 27.4893 40.3233 27.477 40.277C27.3074 39.8639 27.1085 39.423 26.996 38.9914L26.9729 38.8958H25.7118C24.6234 38.8958 23.7385 37.9987 23.7385 36.9119V34.3653C23.7385 33.2539 24.6064 32.3891 25.718 32.3891H27.2103C27.3907 31.8665 27.6281 31.4379 27.8624 30.9477L26.9652 30.0398C26.1774 29.2521 26.1866 28.0219 26.9652 27.2296L28.7412 25.4414V25.4306C29.4966 24.6691 30.7854 24.629 31.5146 25.4414L32.5768 26.4943C32.6138 26.4819 32.6477 26.4573 32.6709 26.4465C33.0902 26.2507 33.5188 26.095 33.9597 25.9547C33.9952 25.944 34.0183 25.9316 34.0522 25.9316V24.6568C34.0522 23.5777 34.9495 22.6806 36.0302 22.6806H38.5755C39.6916 22.6806 40.5534 23.5407 40.5534 24.6568V26.1521C40.5889 26.1629 40.6351 26.1875 40.6721 26.1983C41.0791 26.3586 41.5401 26.5621 41.9224 26.7718L41.9933 26.8072L42.9029 25.9085C43.757 25.0545 44.9256 25.1855 45.6918 25.9393V25.9393ZM2.61146 39.719C1.91771 39.7283 1.27791 39.4631 0.807705 39.0207C-0.222128 38.0511 -0.276087 36.4186 0.693622 35.3873C1.14379 34.9095 1.77741 34.6027 2.48504 34.578L7.99804 34.3884C8.70721 34.3638 9.35933 34.632 9.83879 35.0806C10.8686 36.0548 10.9272 37.6827 9.95441 38.7186C9.48676 39.214 8.84241 39.5049 8.16145 39.5279C6.33612 39.5279 4.44604 39.6836 2.61146 39.719V39.719ZM28.9801 65.8293C28.2586 65.8478 27.625 65.316 27.5232 64.5884C27.4169 63.8284 27.9287 63.1255 28.6749 62.9806C27.8532 58.316 25.6054 55.7462 23.2312 53.0316C21.3843 50.9166 19.465 48.72 17.9526 45.4859C16.4664 42.3026 15.6493 39.0115 15.674 35.5939C15.7064 32.1763 16.5728 28.657 18.4598 25.0175C18.4721 24.9913 18.4845 24.9728 18.4968 24.9481C20.9727 20.7583 24.4353 17.9604 28.2895 16.3911C31.5239 15.0685 35.0373 14.6184 38.4799 14.9344C41.9116 15.2519 45.2725 16.3279 48.2093 18.0621C51.9448 20.2696 55.0142 23.55 56.7039 27.689C57.6166 29.9288 58.2363 32.4291 58.3134 35.17C58.389 37.8969 57.9203 40.8412 56.6607 43.9551C54.9772 48.1249 52.748 50.7147 50.6667 53.138C48.7489 55.3732 46.9621 57.4481 45.9693 60.6329C46.532 60.7654 46.976 61.2264 47.0639 61.8353C47.1718 62.6199 46.6214 63.3475 45.8367 63.4554L45.3495 63.5248C45.2601 64.2154 45.2031 64.9553 45.1769 65.7461L45.3357 65.7214C46.1219 65.6135 46.848 66.1639 46.956 66.9485C47.0639 67.7331 46.5135 68.4623 45.7288 68.5686L45.2355 68.6395C45.2771 69.2762 45.3125 69.8866 45.2725 70.531L45.3542 70.5187C46.1466 70.4231 46.8619 70.9873 46.9621 71.7719C47.0577 72.5627 46.495 73.278 45.7087 73.3797L44.6465 73.5123C42.2184 79.8033 33.7994 81.186 30.3722 75.0184C30.1619 74.9116 29.9809 74.7548 29.8452 74.5619C29.7095 74.3689 29.6231 74.1456 29.5937 73.9116C29.5702 73.7224 29.5855 73.5305 29.6384 73.3474C29.3917 72.6136 29.2067 71.8105 29.088 70.9241L29.0433 70.9302C28.2586 71.0382 27.5294 70.4863 27.423 69.7017C27.3151 68.917 27.8655 68.1894 28.6502 68.0815L28.9925 68.0322C29.0171 67.2599 29.011 66.5246 28.9801 65.8293V65.8293ZM31.3527 62.5937L43.0571 60.9304C44.0638 56.6897 46.253 54.1384 48.6271 51.3853C50.5773 49.1192 52.654 46.7021 54.1725 42.9423C55.2871 40.1892 55.6988 37.6071 55.6355 35.227C55.5723 32.8531 55.0281 30.6626 54.2172 28.6817C52.7603 25.1192 50.0963 22.2828 46.8434 20.359C44.2411 18.8206 41.2718 17.8648 38.2394 17.5935C35.2208 17.3145 32.1375 17.7138 29.2962 18.8714C25.9677 20.2326 22.9738 22.6513 20.8201 26.2893C19.1489 29.5295 18.3765 32.6326 18.3519 35.6124C18.3272 38.6122 19.0549 41.518 20.3776 44.3467C21.725 47.2339 23.5226 49.2842 25.2447 51.2589C28.4251 54.903 30.5357 57.6485 31.3527 62.5937V62.5937ZM42.5822 63.904L31.6503 65.4548C31.6827 66.1515 31.695 66.8791 31.6827 67.6514L42.4743 66.1192C42.4867 65.3422 42.519 64.6007 42.5822 63.904ZM31.7397 70.5495C31.8152 71.1322 31.9293 71.664 32.0742 72.1588L42.5499 70.867C42.6331 70.2273 42.6146 69.6462 42.5761 69.0126L31.7397 70.5495V70.5495ZM33.562 74.8796C35.8667 77.2921 39.5852 76.4921 41.406 73.9116L33.562 74.8796ZM71.1647 31.8095C71.5006 31.7748 71.8399 31.807 72.1632 31.9041C72.4866 32.0012 72.7875 32.1613 73.0487 32.3752C73.559 32.7914 73.9135 33.4018 73.986 34.1079C74.0585 34.8123 73.8349 35.4829 73.4217 35.9916C73.0055 36.5019 72.3919 36.8549 71.6889 36.9289L66.2068 37.5038C65.5022 37.5763 64.8331 37.3559 64.3228 36.9396C64.0602 36.7267 63.8423 36.4641 63.6814 36.1667C63.5206 35.8694 63.42 35.5433 63.3855 35.207C63.3146 34.5025 63.5335 33.8335 63.9497 33.3232C64.366 32.813 64.978 32.4584 65.6826 32.386L71.1647 31.8095V31.8095ZM60.2837 9.90132C60.6799 9.30938 61.278 8.93324 61.9194 8.80684L61.9826 8.79451C62.607 8.6866 63.2776 8.81146 63.8495 9.1953C64.44 9.59302 64.8177 10.1896 64.9441 10.8339C65.069 11.4752 64.9503 12.1689 64.5541 12.7593L61.4908 17.3423C61.093 17.9342 60.4964 18.3103 59.852 18.4367C59.2107 18.5616 58.5169 18.4429 57.9265 18.0483C57.3345 17.649 56.9583 17.0524 56.8303 16.4143L56.8195 16.3495C56.7116 15.7252 56.838 15.0577 57.2204 14.4858L60.2837 9.90132V9.90132ZM36.4788 2.50663C36.4973 1.79445 36.801 1.1578 37.2758 0.706131C37.5194 0.473904 37.8064 0.292112 38.1205 0.171211C38.4345 0.0503104 38.7694 -0.00731324 39.1058 0.00165443C39.8196 0.0186112 40.4563 0.322291 40.908 0.795539C41.3597 1.27033 41.631 1.91931 41.6141 2.62687L41.4738 8.10545C41.4784 8.17019 41.4738 8.23339 41.4645 8.29505C41.409 8.94095 41.1161 9.51902 40.6783 9.93523C40.1935 10.3969 39.5471 10.6503 38.8776 10.6413C38.8129 10.6459 38.7497 10.6413 38.6895 10.632C38.0635 10.5788 37.4785 10.2986 37.0446 9.84428C36.8123 9.60077 36.6305 9.31375 36.5096 8.99972C36.3887 8.6857 36.3311 8.35087 36.34 8.0145L36.4788 2.50663V2.50663ZM9.17587 11.9654C8.92882 11.7351 8.72963 11.4584 8.58968 11.151C8.44974 10.8436 8.3718 10.5117 8.36033 10.1742C8.33566 9.5144 8.56229 8.84538 9.04483 8.32742C9.27514 8.0804 9.55192 7.88122 9.85931 7.74129C10.1667 7.60136 10.4987 7.52343 10.8362 7.51196C11.4961 7.48884 12.1636 7.71544 12.6816 8.19639L16.7131 11.9562C17.2311 12.4387 17.507 13.0892 17.5302 13.749C17.5533 14.4087 17.3251 15.0762 16.8457 15.5926C16.6155 15.8398 16.3387 16.0391 16.0313 16.179C15.7239 16.319 15.3918 16.3968 15.0542 16.4081C14.7167 16.421 14.38 16.3672 14.0633 16.2498C13.7467 16.1323 13.4563 15.9535 13.2089 15.7237L9.17587 11.9654ZM38.1207 30.362C39.9445 30.7165 41.5231 32.0222 42.2307 33.7348C42.2431 33.7595 42.2431 33.7795 42.2554 33.7934C42.3988 34.1294 42.5021 34.484 42.5699 34.8201C42.7148 35.5877 42.738 36.3446 42.5699 37.1108C42.2138 38.9498 40.9111 40.5083 39.1952 41.2343C39.1705 41.2467 39.1474 41.2467 39.1382 41.2559C38.1315 41.6783 36.8796 41.8093 35.819 41.5704C33.989 41.2174 32.4227 39.9071 31.7073 38.1975C31.695 38.1744 31.695 38.1513 31.6827 38.139C31.2618 37.1308 31.1323 35.8822 31.3712 34.8201C31.6457 33.4003 32.5614 32.0206 33.7624 31.2237C34.3405 30.8167 35.1252 30.4976 35.819 30.362C36.5836 30.2124 37.356 30.1924 38.1207 30.362V30.362Z" fill="#758AFB"/>
</g>
<defs>
<clipPath id="clip0_5055_2">
<rect width="74" height="79" fill="white"/>
</clipPath>
</defs>
</svg>
