<svg width="28" height="28" viewBox="0 0 28 28" fill="none" xmlns="http://www.w3.org/2000/svg">
<path d="M14 0C17.8669 0 21.3669 1.56771 23.8984 4.10156C26.4323 6.63542 28 10.1354 28 14C28 17.8669 26.4323 21.3669 23.8984 23.8984C21.3646 26.4323 17.8646 28 14 28C10.1354 28 6.63314 26.4323 4.10156 23.8984C1.56771 21.3669 0 17.8669 0 14C0 10.1331 1.56771 6.63314 4.10156 4.10156C6.63314 1.56771 10.1331 0 14 0ZM10.5934 19.8311C11.9606 22.6816 16.1055 22.7819 17.4157 19.847C17.0579 19.4847 16.7936 19.0996 16.5316 18.7145C16.4883 18.6507 16.445 18.5892 16.4017 18.5254C15.7705 19.0267 15.0026 19.3457 14.0023 19.3434C12.9245 19.3411 12.1133 18.9287 11.4479 18.3203C11.4092 18.2839 11.3682 18.2474 11.3294 18.2087C11.2337 18.473 11.113 18.7897 10.9831 19.0859C10.8577 19.3708 10.7233 19.6374 10.5934 19.8311ZM21.1139 24.5706L21.4238 21.2712C20.2777 21.0479 19.0495 20.8063 17.7803 20.0749C16.8301 23.2399 11.7236 23.6159 10.2858 20.1569C9.14648 20.7311 7.98665 21.0592 6.66504 21.262L7.11393 24.7188C9.09863 25.9971 11.4639 26.7399 14.0023 26.7399C16.6341 26.7399 19.0814 25.9401 21.1139 24.5706ZM3.77344 21.5993L3.82812 21.5674C5.1862 20.8109 8.72038 20.5602 10.1878 19.5371C10.2949 19.3753 10.4111 19.1406 10.5228 18.8854C10.6914 18.5003 10.8441 18.0811 10.9421 17.7939C10.5319 17.3109 10.181 16.7663 9.84375 16.2285L8.73177 14.4603C8.32617 13.8542 8.11426 13.3005 8.10059 12.8447C8.09375 12.6305 8.13021 12.4368 8.20996 12.266C8.29199 12.0859 8.4196 11.9378 8.59277 11.8216C8.67253 11.7669 8.76367 11.7214 8.86165 11.6849C8.78874 10.7256 8.76367 9.5179 8.80925 8.50619C8.83203 8.26693 8.87988 8.02539 8.94596 7.78613C9.23079 6.77214 9.94173 5.9541 10.8236 5.39356C11.3089 5.08366 11.8421 4.85124 12.3981 4.69401C12.7513 4.59375 12.0973 3.46582 12.4619 3.42708C14.2279 3.24479 17.083 4.85807 18.3158 6.19108C18.9333 6.85872 19.3206 7.74512 19.4049 8.91634L19.3366 11.8011C19.6442 11.8945 19.8424 12.0905 19.9222 12.4072C20.0111 12.7581 19.9154 13.2526 19.6169 13.9248C19.6123 13.9362 19.6055 13.9499 19.5986 13.9613L18.3317 16.0485C17.8669 16.8141 17.3929 17.5843 16.7777 18.1904C16.8324 18.2702 16.8893 18.3499 16.944 18.432C17.1947 18.7988 17.4476 19.168 17.7712 19.4961C17.7826 19.5075 17.7917 19.5189 17.7985 19.5303C19.2568 20.5602 22.807 20.8109 24.1696 21.5697L24.2243 21.6016C25.8034 19.4801 26.7376 16.8506 26.7376 14.0023C26.7376 10.484 25.3112 7.2985 23.0052 4.99479C20.7038 2.68652 17.5182 1.26009 14 1.26009C10.4818 1.26009 7.29622 2.68652 4.99251 4.99251C2.68652 7.29622 1.26009 10.4818 1.26009 14C1.26009 16.8483 2.19434 19.4779 3.77344 21.5993ZM9.50423 12.1999C9.25814 12.209 9.07129 12.2614 8.94369 12.3457C8.87077 12.3936 8.81836 12.4574 8.78418 12.5303C8.74544 12.6123 8.72949 12.7126 8.73177 12.8288C8.74089 13.166 8.91862 13.6081 9.26042 14.1185L9.26497 14.1253L10.377 15.8936C10.8236 16.6022 11.2907 17.3245 11.8717 17.8555C12.43 18.3659 13.1068 18.7122 14.0046 18.7145C14.9753 18.7168 15.6839 18.3568 16.2604 17.819C16.8597 17.2585 17.3314 16.4906 17.7985 15.7227L19.0518 13.6605C19.2842 13.1273 19.3708 12.7718 19.3161 12.5622C19.2842 12.4368 19.1475 12.3776 18.9128 12.3639C18.8626 12.3617 18.8125 12.3617 18.7601 12.3617C18.7054 12.3639 18.6462 12.3662 18.5846 12.373C18.5505 12.3753 18.5186 12.373 18.4889 12.3662C18.3773 12.373 18.2633 12.3639 18.1449 12.348L18.5732 10.4499C15.3923 10.9512 13.0111 8.58822 9.64779 9.97819L9.88932 12.2158C9.75033 12.2227 9.62272 12.2181 9.50423 12.1999Z" fill="white"/>
</svg>
