<svg width="28" height="34" viewBox="0 0 28 34" fill="none" xmlns="http://www.w3.org/2000/svg">
<g clip-path="url(#clip0_4731_163)">
<path fill-rule="evenodd" clip-rule="evenodd" d="M22.239 22.2118C25.4202 22.2118 28 24.805 28 28.0028C28 31.1999 25.4202 33.7931 22.239 33.7931C19.0584 33.7931 16.4786 31.1999 16.4786 28.0028C16.4786 24.805 19.0584 22.2118 22.239 22.2118ZM6.83897 23.5015C7.66385 23.5015 8.33099 24.1734 8.33099 25.0013C8.33099 25.8304 7.66188 26.501 6.83897 26.501C6.01408 26.501 5.34629 25.8291 5.34629 25.0013C5.34629 24.1734 6.0154 23.5015 6.83897 23.5015ZM1.83709 31.8097C0.830798 31.8097 0 30.9739 0 29.9631V6.34727C0 5.33113 0.828826 4.49799 1.84038 4.49799H4.80141V3.91659C4.80141 3.23607 5.36075 2.67779 6.03709 2.67779H8.04638V1.37358C8.04638 0.624354 8.65962 0 9.40629 0H16.4582C17.2095 0 17.824 0.61973 17.824 1.37358V2.68109H19.556C20.233 2.68109 20.791 3.24664 20.791 3.92583V4.50791H23.7527C24.7609 4.50791 25.5924 5.33972 25.5924 6.35388V20.9413C25.1067 20.7101 24.5933 20.5191 24.0675 20.3949V6.21778C24.0675 6.11075 23.988 6.0308 23.8822 6.0308H20.791V7.04298C20.791 7.72217 20.2277 8.28112 19.5527 8.28112H6.0338C5.35681 8.28112 4.80141 7.71953 4.80141 7.04034V6.0275H1.70761C1.60573 6.0275 1.5216 6.11273 1.5216 6.21447V30.0866C1.5216 30.1897 1.6077 30.2769 1.71089 30.2769L14.7907 30.2802C14.9544 30.8134 15.168 31.3201 15.4381 31.8057C9.11972 31.8057 1.83709 31.8057 1.83709 31.8097ZM17.3679 4.19936C16.8473 4.19936 16.2748 3.92319 16.2748 3.32725V1.53479H9.59099V3.32725C9.59099 3.87893 9.06977 4.19936 8.56761 4.19936H6.37624V6.88045H19.2161V4.19936H17.3679ZM12.019 20.7623H7.50479V22.5389H6.17315V20.0943C6.17315 19.7243 6.47155 19.4244 6.83897 19.4244H11.9822L11.9611 17.3518C11.6956 17.2731 11.4274 17.1688 11.1888 17.0274L10.7747 17.4859C10.6229 17.6431 10.3685 17.6524 10.2049 17.507L9.5969 16.9349C9.43784 16.7763 9.41221 16.5352 9.5739 16.3687L10.0287 15.8751C9.88545 15.6227 9.7816 15.3743 9.70141 15.0948L9.09408 15.1199C8.87258 15.1279 8.68526 14.9548 8.67606 14.7321L8.64385 13.895C8.63596 13.6671 8.80094 13.4834 9.02901 13.4748L9.69221 13.4491C9.76911 13.1815 9.87427 12.9093 10.0149 12.6688L9.56667 12.2532C9.39906 12.0966 9.38789 11.8482 9.543 11.6791L10.1023 11.0679C10.2601 10.9067 10.498 10.8829 10.665 11.0448L11.1645 11.5007C11.413 11.352 11.6515 11.2523 11.9296 11.1716L11.9053 10.5612C11.8967 10.3385 12.0696 10.1496 12.2904 10.141L13.1232 10.1093C13.35 10.1013 13.5333 10.2678 13.5412 10.4971L13.5669 11.1637C13.8363 11.2437 14.096 11.3441 14.3385 11.4881L14.7526 11.0382C14.9077 10.8704 15.1555 10.8591 15.3238 11.0144L15.3316 11.0217L15.9396 11.5833C16.1007 11.7425 16.1243 11.9817 15.9626 12.1495L15.5091 12.6516C15.6537 12.904 15.7543 13.1438 15.8364 13.4233L16.4444 13.3988C16.6653 13.3903 16.8532 13.564 16.8618 13.786L16.8946 14.6231C16.9025 14.851 16.7376 15.0347 16.5095 15.0433L15.8463 15.0691C15.7674 15.3353 15.6642 15.6056 15.5229 15.8454L15.9791 16.261C16.1394 16.4162 16.1427 16.6646 16.0007 16.8338L15.4309 17.4462C15.2837 17.6134 15.028 17.6246 14.8676 17.4694L14.3766 17.0122C14.1255 17.1569 13.8784 17.2606 13.601 17.3405L13.6214 19.4217H18.7521C19.1195 19.4217 19.4179 19.7217 19.4179 20.0917V20.7094L19.3962 20.718L19.391 20.72L19.3746 20.7266L19.3522 20.7352L19.3305 20.7444L19.3088 20.753L19.3029 20.7557L19.2871 20.7623L19.2654 20.7715L19.2438 20.7801L19.2221 20.7894L19.2155 20.792L19.2004 20.7986L19.1787 20.8078L19.1577 20.8171L19.136 20.8263L19.1287 20.8297L19.1143 20.8363L19.0926 20.8455L19.0715 20.8548L19.0505 20.8647L19.042 20.868L19.0288 20.8746L19.0071 20.8845L18.9861 20.8944L18.9651 20.9037L18.9565 20.9083L18.944 20.9142L18.9223 20.9241L18.9013 20.934L18.8803 20.944L18.8711 20.9492L18.8592 20.9545L18.8382 20.9651L18.8172 20.975L18.7962 20.9856L18.7863 20.9902L18.7751 20.9961L18.7547 21.0067L18.7337 21.0173L18.7127 21.0279L18.7028 21.0331L18.6923 21.0384L18.6713 21.049L18.6502 21.0602L18.6299 21.0715L18.6187 21.0768L18.6095 21.082L18.5884 21.0933L18.5681 21.1045L18.5477 21.1157L18.5359 21.1217L18.5273 21.1263L18.5069 21.1375L18.4866 21.1488L18.4655 21.1607L18.4537 21.1673L18.4452 21.1719L18.4254 21.1838L18.4051 21.195L18.3847 21.2062L18.3715 21.2135L18.365 21.2181L18.3446 21.23L18.3242 21.2413L18.3045 21.2532L18.2907 21.2617L18.2841 21.265L18.2644 21.2776L18.244 21.2895L18.2243 21.3014L18.2105 21.31L18.2046 21.3133L18.1849 21.3258L18.1645 21.3384L18.1448 21.3503L18.1303 21.3595L18.1251 21.3628L18.1054 21.3754L18.0856 21.3879V20.7623H13.6175V22.5389H12.019V20.7623ZM13.3427 12.7137C13.9658 12.9575 14.3727 13.5164 14.4009 14.1897C14.4292 14.8577 14.0611 15.4576 13.4637 15.7456C12.8629 16.035 12.1432 15.9134 11.6522 15.4675C11.1658 15.0129 10.9989 14.3 11.2322 13.675C11.3492 13.3731 11.5398 13.1207 11.7804 12.9383C12.2247 12.6027 12.8248 12.5188 13.3427 12.7137ZM12.7676 23.5015C13.5931 23.5015 14.2603 24.1734 14.2603 25.0013C14.2603 25.8304 13.5912 26.501 12.7676 26.501C11.9427 26.501 11.2756 25.8291 11.2756 25.0013C11.2756 24.1734 11.9427 23.5015 12.7676 23.5015ZM20.6313 27.1485L21.5495 28.0206L23.7198 25.7657C23.8999 25.582 24.013 25.4347 24.2345 25.6646L24.9542 26.4052C25.1901 26.6404 25.179 26.7785 24.9555 26.9972L21.9609 30.0027C21.4903 30.4652 21.5725 30.4936 21.096 30.0186L19.4199 28.343C19.3207 28.2354 19.3305 28.1257 19.4396 28.018L20.275 27.1472C20.4012 27.0131 20.5024 27.025 20.6313 27.1485Z" fill="white"/>
</g>
<defs>
<clipPath id="clip0_4731_163">
<rect width="28" height="33.7931" fill="white"/>
</clipPath>
</defs>
</svg>
