<svg width="22" height="22" viewBox="0 0 22 22" fill="none" xmlns="http://www.w3.org/2000/svg">
<g clip-path="url(#clip0_4733_6)">
<path d="M11.2795 1.4344C11.1847 1.43933 11.0899 1.42442 11.0009 1.3906C10.9119 1.35678 10.8306 1.30475 10.7618 1.23766C10.693 1.17058 10.6382 1.08984 10.6008 1.00036C10.5634 0.910888 10.5441 0.814539 10.5441 0.717173C10.5441 0.619807 10.5634 0.523458 10.6008 0.433982C10.6382 0.344506 10.693 0.263772 10.7618 0.196687C10.8306 0.129601 10.9119 0.0775663 11.0009 0.0437442C11.0899 0.00992213 11.1847 -0.00498061 11.2795 -5.81705e-05C13.6415 -0.000236711 15.9374 0.7994 17.8111 2.27475C19.6848 3.75011 21.0313 5.81867 21.6419 8.15942C22.2524 10.5002 22.0927 12.9822 21.1875 15.2203C20.2824 17.4584 18.6825 19.3275 16.636 20.5374C14.5896 21.7473 12.2111 22.2304 9.86965 21.9117C7.5282 21.593 5.35476 20.4904 3.68662 18.775C2.01848 17.0595 0.948943 14.8271 0.643983 12.4243C0.339022 10.0215 0.815696 7.58264 2.00003 5.48617L1.23375 5.78739C1.00797 5.87531 0.757385 5.86762 0.537127 5.76601C0.31687 5.6644 0.14498 5.47719 0.0592727 5.24556C-0.0264348 5.01393 -0.0189398 4.75686 0.0801089 4.53091C0.179158 4.30495 0.361647 4.12861 0.58743 4.04068L2.95429 3.12233C3.04444 3.08788 3.13928 3.06805 3.23538 3.06356C3.45197 3.02728 3.67403 3.07305 3.86016 3.19234C4.04628 3.31164 4.18375 3.49631 4.24694 3.71191L4.98994 6.18962C5.0285 6.30773 5.04357 6.43257 5.03427 6.55676C5.02497 6.68095 4.99147 6.80196 4.93577 6.91263C4.88006 7.0233 4.80328 7.12138 4.70997 7.20107C4.61666 7.28076 4.50871 7.34044 4.39252 7.37656C4.27633 7.41269 4.15425 7.42454 4.03351 7.41141C3.91278 7.39827 3.79584 7.36043 3.68961 7.3001C3.58339 7.23978 3.49004 7.15821 3.4151 7.06022C3.34015 6.96223 3.28513 6.84981 3.25328 6.72961L3.13512 6.33472C2.03708 8.35069 1.68703 10.7061 2.14958 12.9662C2.61213 15.2262 3.85605 17.2383 5.65171 18.631C7.44737 20.0237 9.67353 20.7029 11.9192 20.5433C14.1649 20.3837 16.2785 19.3961 17.8698 17.7627C19.1733 16.425 20.0609 14.721 20.4206 12.8659C20.7803 11.0109 20.5958 9.08804 19.8904 7.34052C19.1851 5.593 17.9906 4.09921 16.4579 3.04797C14.9252 1.99672 13.1232 1.43521 11.2795 1.4344ZM8.75507 11.9036C8.16425 11.2516 9.07018 10.2781 9.72724 10.8934C9.95999 11.1101 10.2966 11.4279 10.5293 11.6428L12.8013 8.88774C13.4297 8.22285 14.4126 9.19998 13.8003 9.87037L11.0682 13.1158C10.9436 13.2496 10.7733 13.3287 10.5931 13.3366C10.4129 13.3445 10.2367 13.2805 10.1014 13.1581C9.71829 12.7907 9.15612 12.2397 8.75328 11.8981L8.75507 11.9036ZM7.21894 6.17309C7.13917 6.03061 7.11784 5.86145 7.15964 5.70283C7.20144 5.54422 7.30295 5.40913 7.44184 5.32729C7.58073 5.24546 7.74562 5.22357 7.90024 5.26646C8.05485 5.30934 8.18653 5.41348 8.2663 5.55596L8.5653 6.0886C8.64004 6.23051 8.65783 6.39675 8.61488 6.55191C8.57194 6.70707 8.47164 6.83891 8.33536 6.91935C8.19908 6.99979 8.03757 7.02247 7.88523 6.98258C7.73289 6.94268 7.60174 6.84335 7.51972 6.70574L7.21894 6.17309ZM5.42858 8.65815C5.35981 8.61726 5.29956 8.56289 5.25127 8.49812C5.20299 8.43335 5.16761 8.35945 5.14716 8.28066C5.12671 8.20186 5.12159 8.11971 5.13209 8.03888C5.14259 7.95806 5.16851 7.88014 5.20836 7.80959C5.24821 7.73904 5.30122 7.67723 5.36436 7.6277C5.42749 7.57816 5.49952 7.54187 5.57633 7.52089C5.65314 7.49992 5.73322 7.49466 5.81201 7.50544C5.89079 7.51621 5.96674 7.5428 6.03551 7.58368L6.56009 7.89775C6.62886 7.93864 6.68911 7.99302 6.73739 8.05779C6.78568 8.12256 6.82105 8.19645 6.8415 8.27524C6.86195 8.35404 6.86707 8.4362 6.85657 8.51702C6.84607 8.59785 6.82015 8.67576 6.7803 8.74631C6.74045 8.81686 6.68744 8.87867 6.62431 8.9282C6.56117 8.97774 6.48914 9.01403 6.41234 9.03501C6.25722 9.07738 6.09204 9.05479 5.95315 8.97222L5.43395 8.66366L5.42858 8.65815ZM6.30586 14.9764C6.16753 15.0531 6.00549 15.0713 5.85424 15.0273C5.70299 14.9832 5.57448 14.8803 5.49607 14.7405C5.41766 14.6007 5.39555 14.435 5.43444 14.2787C5.47333 14.1224 5.57015 13.9879 5.70429 13.9038L6.23066 13.5915C6.36955 13.5097 6.53444 13.4878 6.68906 13.5307C6.84367 13.5736 6.97535 13.6777 7.05512 13.8202C7.13489 13.9627 7.15623 14.1318 7.11442 14.2905C7.07262 14.4491 6.97111 14.5842 6.83222 14.666L6.31123 14.9727L6.30586 14.9764ZM4.91116 11.6189C4.75114 11.6189 4.59768 11.5537 4.48453 11.4376C4.37138 11.3215 4.30781 11.1641 4.30781 10.9999C4.30781 10.8358 4.37138 10.6783 4.48453 10.5623C4.59768 10.4462 4.75114 10.381 4.91116 10.381H5.51272C5.67274 10.381 5.82621 10.4462 5.93936 10.5623C6.05251 10.6783 6.11608 10.8358 6.11608 10.9999C6.11608 11.1641 6.05251 11.3215 5.93936 11.4376C5.82621 11.5537 5.67274 11.6189 5.51272 11.6189H4.91116ZM11.6752 17.3127C11.6667 17.4713 11.5994 17.6205 11.487 17.7297C11.3746 17.8389 11.2257 17.8997 11.0709 17.8997C10.9161 17.8997 10.7672 17.8389 10.6548 17.7297C10.5424 17.6205 10.4751 17.4713 10.4667 17.3127V16.7029C10.4751 16.5443 10.5424 16.3951 10.6548 16.2859C10.7672 16.1767 10.9161 16.1158 11.0709 16.1158C11.2257 16.1158 11.3746 16.1767 11.487 16.2859C11.5994 16.3951 11.6667 16.5443 11.6752 16.7029V17.3182V17.3127ZM10.4667 4.67618C10.4622 4.59194 10.4745 4.50764 10.5029 4.42845C10.5312 4.34925 10.575 4.27681 10.6315 4.21555C10.6881 4.15429 10.7562 4.1055 10.8318 4.07216C10.9073 4.03882 10.9887 4.02162 11.0709 4.02162C11.1531 4.02162 11.2345 4.03882 11.3101 4.07216C11.3856 4.1055 11.4537 4.15429 11.5103 4.21555C11.5668 4.27681 11.6106 4.34925 11.639 4.42845C11.6673 4.50764 11.6796 4.59194 11.6752 4.67618V5.29148C11.6667 5.45005 11.5994 5.59928 11.487 5.70847C11.3746 5.81767 11.2257 5.87853 11.0709 5.87853C10.9161 5.87853 10.7672 5.81767 10.6548 5.70847C10.5424 5.59928 10.4751 5.45005 10.4667 5.29148V4.68169V4.67618ZM8.51517 16.7819C8.47787 16.8569 8.4261 16.9233 8.363 16.9771C8.29991 17.0309 8.2268 17.071 8.14812 17.0949C8.06944 17.1189 7.98685 17.1261 7.90535 17.1163C7.82385 17.1064 7.74516 17.0797 7.67405 17.0377C7.60295 16.9957 7.54092 16.9392 7.49173 16.8719C7.44254 16.8045 7.40723 16.7275 7.38794 16.6457C7.36865 16.5639 7.36578 16.4789 7.37951 16.3959C7.39324 16.3129 7.42328 16.2336 7.4678 16.1629L7.76858 15.6303C7.80832 15.5598 7.86118 15.4981 7.92417 15.4487C7.98715 15.3992 8.05901 15.3629 8.13565 15.3419C8.2123 15.321 8.29221 15.3157 8.37085 15.3264C8.44948 15.3371 8.52529 15.3636 8.59394 15.4043C8.66259 15.4451 8.72275 15.4993 8.77097 15.564C8.81919 15.6286 8.85454 15.7023 8.87499 15.7809C8.89543 15.8595 8.90059 15.9415 8.89015 16.0222C8.87971 16.1029 8.85389 16.1806 8.81416 16.2511L8.51517 16.7837V16.7819ZM14.9479 16.1629C14.9874 16.2335 15.013 16.3113 15.0232 16.392C15.0334 16.4727 15.0279 16.5546 15.0072 16.6332C14.9865 16.7117 14.951 16.7853 14.9026 16.8497C14.8541 16.9142 14.7938 16.9682 14.725 17.0087C14.6563 17.0492 14.5804 17.0755 14.5017 17.0859C14.4231 17.0963 14.3432 17.0908 14.2667 17.0695C14.1901 17.0483 14.1184 17.0118 14.0555 16.9621C13.9927 16.9125 13.9401 16.8506 13.9006 16.78L13.607 16.2474C13.5272 16.1049 13.5059 15.9358 13.5477 15.7771C13.5895 15.6185 13.691 15.4834 13.8299 15.4016C13.9688 15.3198 14.1336 15.2979 14.2883 15.3408C14.4429 15.3836 14.5746 15.4878 14.6543 15.6303L14.9479 16.1629ZM16.7079 13.9038C16.8465 13.9861 16.9476 14.1215 16.9889 14.2803C17.0302 14.4391 17.0083 14.6082 16.9281 14.7505C16.8478 14.8927 16.7158 14.9964 16.561 15.0388C16.4062 15.0812 16.2414 15.0587 16.1027 14.9764L15.5764 14.6697C15.437 14.5864 15.3356 14.4497 15.2945 14.2897C15.2533 14.1297 15.2758 13.9595 15.357 13.8165C15.4382 13.6736 15.5715 13.5695 15.7274 13.5273C15.8834 13.4851 16.0493 13.5082 16.1887 13.5915L16.7079 13.9001V13.9038ZM16.3784 7.58368C16.5173 7.50184 16.6822 7.47996 16.8368 7.52284C16.9915 7.56573 17.1231 7.66986 17.2029 7.81235C17.2827 7.95483 17.304 8.12399 17.2622 8.28261C17.2204 8.44123 17.1189 8.57631 16.98 8.65815L16.4608 8.96671C16.3237 9.03414 16.1669 9.04598 16.0216 8.99988C15.8764 8.95377 15.7535 8.85312 15.6775 8.71804C15.6014 8.58297 15.5779 8.42344 15.6116 8.27135C15.6453 8.11926 15.7338 7.98584 15.8592 7.89775L16.3784 7.58919V7.58368ZM14.2694 5.78739C14.3499 5.6449 14.4822 5.54105 14.6374 5.49869C14.7925 5.45632 14.9577 5.4789 15.0965 5.56147C15.2354 5.64404 15.3367 5.77983 15.378 5.93896C15.4193 6.0981 15.3972 6.26754 15.3168 6.41003L15.016 6.94267C14.9761 7.01346 14.9231 7.07551 14.8598 7.12527C14.7966 7.17502 14.7245 7.21152 14.6475 7.23267C14.5705 7.25382 14.4902 7.2592 14.4112 7.24852C14.3322 7.23784 14.256 7.2113 14.187 7.17042C14.118 7.12954 14.0576 7.07511 14.0091 7.01025C13.9605 6.94539 13.925 6.87136 13.9044 6.79239C13.8837 6.71343 13.8785 6.63107 13.8889 6.55002C13.8993 6.46897 13.9252 6.39082 13.965 6.32003L14.264 5.78739H14.2694ZM17.6442 10.3791C17.8043 10.3791 17.9577 10.4443 18.0709 10.5604C18.184 10.6765 18.2476 10.8339 18.2476 10.9981C18.2476 11.1623 18.184 11.3197 18.0709 11.4358C17.9577 11.5519 17.8043 11.6171 17.6442 11.6171H17.0087C16.8486 11.6171 16.6952 11.5519 16.582 11.4358C16.4689 11.3197 16.4053 11.1623 16.4053 10.9981C16.4053 10.8339 16.4689 10.6765 16.582 10.5604C16.6952 10.4443 16.8486 10.3791 17.0087 10.3791H17.6442Z" fill="#758AFB"/>
</g>
<defs>
<clipPath id="clip0_4733_6">
<rect width="22" height="22" fill="white"/>
</clipPath>
</defs>
</svg>
