<svg width="39" height="41" viewBox="0 0 39 41" fill="none" xmlns="http://www.w3.org/2000/svg">
<g clip-path="url(#clip0_4046_38)">
<path d="M6.15403 23.7098C4.61553 24.0345 3.02522 24.0669 1.48348 22.4792C0.453504 21.4208 -0.0614865 19.8395 5.322e-05 18.1837C3.94184 22.7779 8.74517 17.0992 2.91509 14.1478C5.72973 12.8101 8.38565 14.0667 9.79459 16.6674C10.4618 17.8947 10.8602 18.5376 11.3687 18.9759C11.4608 19.0569 11.5582 19.1318 11.6602 19.1999C11.8758 18.5802 12.3149 18.0637 12.891 17.7518C13.2164 17.5829 13.5772 17.4938 13.9437 17.4921C14.9736 17.4921 16.2563 18.109 16.4733 19.161C16.5196 19.1479 16.5676 19.1413 16.6158 19.1415H17.364C17.4038 19.1365 17.444 19.1365 17.4838 19.1415C17.8793 19.1779 18.2519 19.3434 18.5444 19.6127C18.837 19.8819 19.0333 20.2399 19.1033 20.6318C19.1751 20.5975 19.2537 20.5798 19.3332 20.5798H20.0814C20.1212 20.5749 20.1615 20.5749 20.2013 20.5798C21.2734 20.7454 21.7074 21.4078 21.8596 22.2422H21.9438H22.692C22.7318 22.2373 22.7721 22.2373 22.8119 22.2422C24.0427 22.4338 24.5253 23.2422 24.7131 24.2163C26.9804 23.8689 29.4322 22.5052 31.8388 24.9728C32.3626 25.5512 32.7638 26.2301 33.0183 26.9684C33.2727 27.7068 33.375 28.4892 33.319 29.2684C29.3772 24.6741 24.5738 30.3528 30.4039 33.3042C27.9844 34.4536 25.6783 33.6841 24.1852 31.7912C23.9813 32.3455 23.7276 32.8802 23.4273 33.3886C23.3042 33.5899 23.1779 33.7977 23.0159 34.0834C23.0142 34.0909 23.0142 34.0987 23.0159 34.1062C22.8887 34.3309 22.7481 34.5478 22.5949 34.7555H23.1131C23.3276 34.7564 23.533 34.8422 23.6847 34.9942C23.8364 35.1463 23.922 35.3522 23.9228 35.5672V39.9862C23.922 40.2012 23.8364 40.4072 23.6847 40.5592C23.533 40.7113 23.3276 40.797 23.1131 40.7979H11.3784C11.1639 40.797 10.9585 40.7113 10.8068 40.5592C10.6551 40.4072 10.5695 40.2012 10.5687 39.9862V35.5997C10.5695 35.3847 10.6551 35.1787 10.8068 35.0267C10.9585 34.8746 11.1639 34.7889 11.3784 34.788H11.6602C11.5189 34.3896 11.4212 33.977 11.3687 33.5574L7.333 26.9306L7.31357 26.9079C6.9942 26.4801 6.72266 26.0185 6.50383 25.5313C6.31522 25.1211 6.19696 24.6821 6.15403 24.2325C6.14099 24.0629 6.14099 23.8924 6.15403 23.7228V23.7098ZM35.9522 12.9011C35.9294 12.8135 35.8886 12.7316 35.8324 12.6608C35.784 12.5966 35.7206 12.5453 35.6478 12.5114C35.5787 12.4704 35.5011 12.446 35.421 12.44C35.338 12.4376 35.2551 12.4475 35.1749 12.4692H35.1554L32.7716 13.1965C32.548 13.2694 32.3057 13.2585 32.0895 13.166C31.8733 13.0735 31.6979 12.9055 31.5959 12.6933C31.4728 12.4855 31.3529 12.2809 31.2072 12.0439C31.0614 11.8069 30.8833 11.5958 30.757 11.3945C30.6306 11.1932 30.446 10.9984 30.2517 10.7971C30.0574 10.5958 29.9278 10.427 29.7043 10.2029C29.5616 10.0512 29.4697 9.85861 29.4412 9.65203C29.4128 9.44546 29.4493 9.23513 29.5456 9.0503L30.812 6.66387C30.8555 6.59364 30.8819 6.51418 30.8892 6.43186C30.8965 6.34955 30.8845 6.26665 30.8541 6.18983C30.8332 6.11414 30.7992 6.04271 30.7537 5.97879C30.7002 5.91202 30.6327 5.85774 30.5562 5.81969L27.5569 4.219C27.4874 4.18141 27.4134 4.15303 27.3367 4.13458C27.2468 4.13284 27.1573 4.14489 27.0711 4.1703C26.9968 4.18757 26.9285 4.22458 26.8735 4.27744C26.8069 4.33115 26.7527 4.39873 26.7148 4.4755L25.5488 6.66712C25.438 6.87595 25.258 7.03949 25.0398 7.12958C24.8216 7.21967 24.579 7.23065 24.3536 7.16064C24.088 7.09245 23.8386 7.02752 23.6184 6.98206C23.3981 6.9366 23.1196 6.89115 22.854 6.85543C22.5961 6.82147 22.3366 6.80088 22.0766 6.79374C21.8046 6.77426 21.5519 6.79374 21.309 6.77426C21.0913 6.78253 20.8772 6.71725 20.701 6.58889C20.5248 6.46053 20.3967 6.27654 20.3373 6.06645L19.5276 3.43651C19.5276 3.41703 19.5276 3.41703 19.5276 3.40404C19.5057 3.32829 19.4729 3.25611 19.4304 3.18975C19.3211 3.07867 19.177 3.00872 19.0223 2.99169C18.9322 2.98432 18.8417 2.9965 18.7567 3.02741L15.5469 4.0112C15.4595 4.03214 15.3777 4.07204 15.3073 4.12809C15.2437 4.17792 15.1917 4.24109 15.155 4.31316C15.1135 4.3831 15.0901 4.46235 15.087 4.54368C15.0832 4.62591 15.0931 4.7082 15.1162 4.7872V4.80343L15.8449 7.18986C15.9128 7.41497 15.8993 7.65684 15.8069 7.87298C15.7145 8.08912 15.549 8.2657 15.3396 8.37171C15.1324 8.49184 14.9283 8.61197 14.6919 8.76133C14.4554 8.91068 14.2449 9.06978 14.0441 9.21264C13.8433 9.3555 13.623 9.53732 13.4254 9.71265C13.2279 9.88798 13.053 10.0373 12.8327 10.2646C12.6797 10.4095 12.485 10.5025 12.2764 10.5305C12.0677 10.5584 11.8556 10.52 11.6699 10.4205L9.29255 9.15095C9.21772 9.10921 9.13494 9.08376 9.04963 9.07627C8.97455 9.07596 8.89964 9.08358 8.82615 9.099C8.75222 9.11535 8.68401 9.15122 8.62857 9.2029C8.56105 9.25699 8.50676 9.32585 8.46986 9.4042L8.34031 9.64447C7.6225 9.50528 6.88884 9.46704 6.16051 9.53083L6.73704 8.44314C6.90078 8.13551 7.12049 7.86131 7.38482 7.63468C7.65492 7.41636 7.96371 7.25112 8.29496 7.14765C8.62774 7.04352 8.97792 7.00709 9.32494 7.0405C9.66612 7.08737 9.99563 7.19747 10.2966 7.36519L12.0554 8.30677L12.1849 8.19963C12.4116 8.00157 12.6546 7.81325 12.8975 7.62169C13.1404 7.43012 13.4028 7.23856 13.6424 7.08271L13.7267 7.02102L13.2408 5.38137C13.1314 5.05005 13.095 4.69891 13.1339 4.35212C13.1642 4.00395 13.2656 3.66575 13.4319 3.35859C13.5906 3.05044 13.8112 2.77851 14.0797 2.55986C14.3496 2.3395 14.6599 2.17406 14.9931 2.07284L18.2288 1.06632C18.5576 0.958672 18.9036 0.913525 19.249 0.933197C19.5966 0.962295 19.9342 1.06405 20.2402 1.23191C20.5519 1.4026 20.8279 1.6319 21.0531 1.90725C21.2676 2.17493 21.4212 2.48629 21.5033 2.81961L22.0961 4.72875C22.1424 4.73348 22.189 4.73348 22.2353 4.72875C22.5268 4.74499 22.8281 4.7807 23.1455 4.80992C23.4629 4.83915 23.7512 4.90084 24.0556 4.95928C24.0995 4.9614 24.1425 4.97245 24.1819 4.99175L24.9787 3.48846C25.1387 3.18087 25.3597 2.90931 25.6282 2.69044C25.8966 2.47158 26.2069 2.31002 26.5399 2.2157H26.5593C26.8847 2.11356 27.2275 2.07931 27.5666 2.11505C27.9056 2.14981 28.2352 2.24782 28.5383 2.40402L31.5343 4.00795C31.8413 4.17191 32.1149 4.39218 32.3408 4.65732C32.565 4.92502 32.7305 5.23697 32.8266 5.57293C32.9308 5.90536 32.9671 6.25538 32.9335 6.60218C32.8888 6.94465 32.7788 7.27532 32.6096 7.57623L31.6703 9.34251C31.706 9.37823 31.7448 9.43342 31.7805 9.46914C31.9748 9.69967 32.1659 9.93993 32.3538 10.1834C32.5416 10.427 32.7392 10.69 32.8914 10.9302L32.953 11.0179L34.5886 10.5276C34.9193 10.419 35.2696 10.3835 35.6154 10.4237C35.9622 10.4544 36.2993 10.5549 36.6065 10.7192C36.9143 10.8776 37.1857 11.0988 37.4033 11.3685V11.3945C37.6231 11.6651 37.7881 11.9761 37.8891 12.3101L38.8608 15.5277H38.877C38.9754 15.8569 39.0138 16.2012 38.9903 16.544C38.9598 16.8921 38.8584 17.2303 38.6924 17.5375C38.528 17.842 38.3083 18.1129 38.0446 18.3363C37.7757 18.5529 37.4629 18.708 37.1279 18.7908L35.2235 19.385C35.2235 19.4337 35.2235 19.4889 35.2235 19.5376C35.2235 19.8331 35.1749 20.1318 35.1457 20.4175C35.1457 20.4175 35.1457 20.4532 35.1457 20.4662C35.1072 20.7763 35.0521 21.0841 34.9805 21.3883L34.9579 21.4987L36.4704 22.3071C36.7802 22.464 37.053 22.6854 37.2705 22.9565C37.4852 23.2244 37.6449 23.5323 37.7401 23.8624V23.8851C37.842 24.2102 37.8762 24.5528 37.8405 24.8916C37.8063 25.232 37.7073 25.5626 37.549 25.8657L37.3093 26.317L36.8818 26.0865C36.5624 25.1723 36.0867 24.3208 35.4761 23.5702C35.4307 23.5085 35.3822 23.45 35.3303 23.3916C34.6452 22.5716 33.8165 21.8839 32.8849 21.3623C32.9141 21.2422 32.9432 21.1188 32.9692 20.9954C33.0113 20.7519 33.0598 20.4954 33.089 20.2097C33.089 20.2097 33.089 20.174 33.089 20.161C33.1246 19.898 33.1441 19.661 33.1635 19.424C33.1829 19.1869 33.1926 18.9077 33.1862 18.6545C33.1779 18.4363 33.243 18.2216 33.3711 18.045C33.4991 17.8683 33.6827 17.7399 33.8923 17.6804L36.5126 16.8687C36.5126 16.8687 36.5352 16.8687 36.5482 16.8687C36.623 16.8474 36.694 16.8145 36.7587 16.7713C36.816 16.7227 36.8614 16.6616 36.8915 16.5927C36.9301 16.5215 36.9533 16.443 36.9595 16.3622C36.9669 16.2719 36.9547 16.1811 36.9239 16.0959L35.9522 12.8816V12.9011ZM24.9398 11.8978C25.3939 12.1363 25.8208 12.4237 26.2127 12.7549C26.6047 13.0781 26.9628 13.4404 27.2816 13.8361C27.5823 14.2251 27.8529 14.6365 28.0913 15.0667C28.3234 15.4929 28.5101 15.9423 28.6484 16.4076C28.7952 16.8761 28.8887 17.3597 28.927 17.8492C28.9804 18.3391 28.9804 18.8334 28.927 19.3233C28.927 19.359 28.927 19.385 28.927 19.4077C28.8876 19.8212 28.814 20.2306 28.7067 20.6318C28.1755 20.6837 27.6476 20.7681 27.1261 20.8623L26.6468 20.6058C26.6889 20.4954 26.7245 20.3818 26.7601 20.2649C26.8583 19.9316 26.9277 19.5905 26.9674 19.2454C26.9641 19.2217 26.9641 19.1976 26.9674 19.1739C27.0048 18.8026 27.0048 18.4284 26.9674 18.057C26.9334 17.7019 26.8661 17.3508 26.7666 17.0083C26.6644 16.6694 26.5254 16.3427 26.352 16.0343C26.1754 15.7049 25.9683 15.3929 25.7334 15.1024C25.497 14.8104 25.2311 14.5439 24.9398 14.3069C24.3457 13.8232 23.6638 13.4594 22.9317 13.2355C22.5993 13.1371 22.259 13.0675 21.9147 13.0277C21.8912 13.0323 21.8669 13.0323 21.8434 13.0277C21.4728 12.9935 21.0998 12.9935 20.7292 13.0277C20.3749 13.0629 20.0246 13.1314 19.6831 13.2322C19.345 13.3347 19.0191 13.474 18.7114 13.6478C18.3828 13.8237 18.0716 14.0302 17.7818 14.2647C17.4942 14.4999 17.2306 14.7631 16.9947 15.0505C16.9202 15.1381 16.8457 15.2323 16.7745 15.3329L15.006 14.3881C15.1473 14.1737 15.3008 13.9677 15.466 13.7712C15.7797 13.3812 16.1324 13.0243 16.5186 12.7062C16.9058 12.4027 17.3163 12.1302 17.7462 11.8913C18.1822 11.66 18.6387 11.4698 19.1098 11.3231C19.5728 11.1796 20.0492 11.0839 20.5317 11.0374C21.0215 10.9854 21.5155 10.9854 22.0054 11.0374C22.0378 11.0374 22.0669 11.0536 22.0863 11.0374C22.5636 11.0831 23.0354 11.1745 23.4953 11.3101C23.9857 11.4607 24.4615 11.6552 24.9172 11.8913L24.9398 11.8978ZM12.6675 19.6902V19.7227V19.7649V19.8331V19.8688V19.9045V20.0149V20.0896V20.1285V20.2032V20.2454V20.2876V20.4142V20.4564V20.5019V20.5831V26.5832C12.6733 26.6582 12.6636 26.7335 12.6389 26.8045C12.6143 26.8755 12.5753 26.9407 12.5243 26.9958C12.4734 27.051 12.4116 27.095 12.3429 27.1251C12.2742 27.1552 12.2 27.1708 12.125 27.1708C12.05 27.1708 11.9758 27.1552 11.9071 27.1251C11.8384 27.095 11.7766 27.051 11.7257 26.9958C11.6747 26.9407 11.6357 26.8755 11.6111 26.8045C11.5864 26.7335 11.5767 26.6582 11.5825 26.5832V25.5767C11.554 25.5606 11.5269 25.5421 11.5015 25.5215L10.2999 24.6871L8.89417 23.528C8.75063 23.4067 8.5916 23.3051 8.42128 23.226H8.05528C7.90012 23.1871 7.73707 23.1939 7.58564 23.2455C7.52767 23.27 7.47519 23.306 7.43125 23.3511C7.38731 23.3963 7.35281 23.4498 7.32976 23.5085H7.29737C7.23118 23.7304 7.20917 23.9632 7.23259 24.1936C7.26587 24.5201 7.3546 24.8386 7.49495 25.1351C7.68246 25.5335 7.9127 25.9102 8.1816 26.2586C8.1816 26.2586 8.20427 26.291 8.21399 26.3105L12.3274 33.0509C12.3773 33.1245 12.4084 33.2093 12.4181 33.2977C12.4532 33.8189 12.5978 34.3268 12.8424 34.788H21.0531C21.4675 34.4728 21.808 34.0706 22.0507 33.6094C22.056 33.5989 22.0626 33.5891 22.0701 33.5802C22.1867 33.3789 22.3422 33.1224 22.4944 32.8724C22.8942 32.1759 23.2054 31.432 23.4208 30.658V30.6385V30.6061V30.5866V30.5541V30.5314V30.4989L23.4402 30.434V30.4015V30.3723V30.3398V30.3171V30.2846V30.2522V30.2197V30.1548V30.1223V30.0931V30.0606V30.0281V30.0022V29.9697V29.947V29.9145V29.882V29.8496V29.8268V29.7944V29.7684V29.7392V29.7067V29.6775V29.645V29.6125V29.5833V29.4892V29.4567V29.4242V29.395V29.3625V29.3333V29.3008V29.0281V28.7034L23.3981 26.8527C23.3965 26.8268 23.3965 26.8007 23.3981 26.7748C23.3981 26.7488 23.3981 26.5735 23.3981 26.3397V26.2813V25.8819V25.8202V25.4014V25.3397V24.9923V24.9371V24.8786V24.817V24.7877V24.5799V24.554V24.5247V24.4955V24.4663V24.4436V24.4143V24.3884V24.3591V24.3104C23.359 24.0721 23.2485 23.8513 23.0813 23.6774C22.9141 23.5034 22.6982 23.3845 22.4621 23.3364H21.9406C21.9406 23.489 21.9406 23.6384 21.9406 23.791V23.8234V23.8494V23.9858V24.0182V24.041V24.0572V24.0734V24.0897C21.9212 24.3916 21.905 24.6871 21.905 24.9663C21.905 25.111 21.8476 25.2497 21.7456 25.352C21.6435 25.4543 21.5051 25.5118 21.3608 25.5118C21.2165 25.5118 21.0781 25.4543 20.9761 25.352C20.874 25.2497 20.8167 25.111 20.8167 24.9663C20.8167 24.6871 20.8394 24.3624 20.8588 24.0247V23.9176V23.8624V23.8137V23.7065V23.6513V23.6026V23.5474V23.726V23.6156V23.5085V23.4013V23.3364C20.8588 22.5182 20.713 21.8071 20.0555 21.687H19.3365C19.2978 21.6921 19.2586 21.6921 19.2199 21.687C19.2199 21.9922 19.2199 22.3104 19.194 22.6188V22.9435C19.1745 23.2455 19.1583 23.5377 19.1583 23.8169C19.1583 23.9616 19.101 24.1003 18.999 24.2026C18.8969 24.3049 18.7585 24.3624 18.6142 24.3624C18.4699 24.3624 18.3315 24.3049 18.2294 24.2026C18.1274 24.1003 18.0701 23.9616 18.0701 23.8169C18.0701 23.5377 18.0927 23.213 18.1122 22.8753V22.8201V22.7714V22.7195V22.6643V22.6091V22.5539V22.45V22.3981V22.3429V22.2974V22.2422V22.187V22.1643C18.1381 21.2422 18.0377 20.3915 17.3122 20.2584H16.6125C16.5654 20.2587 16.5185 20.2522 16.4733 20.2389V22.3461C16.4733 22.4908 16.4159 22.6295 16.3139 22.7318C16.2118 22.8341 16.0734 22.8916 15.9291 22.8916C15.7848 22.8916 15.6464 22.8341 15.5444 22.7318C15.4423 22.6295 15.385 22.4908 15.385 22.3461V19.6837C15.385 18.9304 14.64 18.6057 13.9437 18.6057C13.7477 18.6062 13.5547 18.6529 13.3801 18.7421C13.0191 18.9591 12.7565 19.3085 12.6481 19.7162L12.6675 19.6902ZM11.4303 23.6611L10.9185 23.45C10.6859 23.355 10.448 23.2737 10.2059 23.2065L10.9865 23.8559L11.4303 24.2195V23.6611Z" fill="white"/>
</g>
<defs>
<clipPath id="clip0_4046_38">
<rect width="39" height="39.8972" fill="white" transform="translate(0 0.933167)"/>
</clipPath>
</defs>
</svg>
