<svg width="28" height="29" viewBox="0 0 28 29" fill="none" xmlns="http://www.w3.org/2000/svg">
<g clip-path="url(#clip0_5061_6)">
<path d="M16.4565 4.88189C19.0526 4.88189 19.8539 4.9031 22.4501 4.9031C22.7464 4.9031 23.0309 4.92903 23.3059 4.98089C23.5786 5.03275 23.8418 5.10818 24.086 5.2119C24.3325 5.31562 24.572 5.44526 24.802 5.59848C25.0296 5.7517 25.2453 5.93085 25.4492 6.13122C25.6531 6.33394 25.8333 6.5508 25.985 6.77474C26.1415 7.00339 26.2719 7.24147 26.3738 7.48662C26.4758 7.73177 26.554 7.99106 26.6062 8.26214C26.6583 8.53558 26.6844 8.81845 26.6844 9.1131V17.6557C26.6844 17.9503 26.6583 18.2332 26.6062 18.5066C26.554 18.7801 26.4758 19.0394 26.3738 19.2821C26.2695 19.5297 26.1391 19.7677 25.985 19.994C25.8309 20.2203 25.6507 20.4348 25.4492 20.6375L25.4468 20.6399C25.2358 20.845 25.0153 21.0241 24.7877 21.175C24.5601 21.3282 24.3207 21.4555 24.0741 21.5592C23.8275 21.6606 23.5691 21.7384 23.2965 21.7902C23.0262 21.8421 22.7417 21.868 22.4477 21.868H19.2043C19.1024 21.868 19.0028 21.8916 18.9103 21.9364C18.825 21.9788 18.7467 22.0401 18.6875 22.1202L18.6827 22.125C18.4267 22.462 18.1588 22.7897 17.8766 23.1056C17.5945 23.4191 17.3005 23.7231 16.9852 24.0107C16.6793 24.2936 16.3569 24.5647 16.0226 24.8263C15.6883 25.088 15.3422 25.3331 14.9889 25.5641C14.6499 25.7857 14.2919 25.9979 13.9197 26.1982C13.5522 26.3962 13.1752 26.5801 12.7911 26.7498C12.7484 26.7687 12.701 26.7663 12.6583 26.7427C12.5872 26.7027 12.5611 26.6107 12.6014 26.54C12.6702 26.4198 12.7366 26.2996 12.803 26.1723C12.867 26.0544 12.9239 25.9342 12.9808 25.8069C13.0898 25.5641 13.1942 25.3166 13.2937 25.062C13.3957 24.8051 13.4905 24.5482 13.583 24.2818C13.6707 24.0343 13.7513 23.7774 13.8296 23.5181C13.9078 23.2588 13.9813 22.9971 14.0524 22.7355C14.0714 22.6577 14.0904 22.5799 14.0904 22.4997C14.0904 22.3253 14.0192 22.1627 13.9031 22.0472L13.8959 22.0401C13.7774 21.9222 13.6114 21.8468 13.4336 21.8468H9.66394C9.36758 21.8468 9.08544 21.8209 8.81516 21.769C8.54726 21.7172 8.2912 21.6417 8.047 21.5404L8.04226 21.538C7.80043 21.4437 7.56571 21.3164 7.34048 21.1656C7.10814 21.01 6.8829 20.8238 6.66715 20.6163L6.66478 20.614C6.46089 20.4113 6.2807 20.1967 6.1266 19.9705C5.97012 19.7418 5.84209 19.5061 5.73777 19.2586C5.63583 19.0134 5.55759 18.7541 5.50543 18.483C5.45327 18.2096 5.42719 17.9267 5.42719 17.6321V15.8948C5.42719 15.0226 4.29154 15.0156 4.10187 15.6379V17.6203C4.10187 17.9927 4.13743 18.3558 4.20382 18.7046C4.27257 19.0606 4.37452 19.4047 4.50966 19.7394C4.64243 20.0624 4.81076 20.3735 5.01466 20.6729C5.21855 20.9699 5.45564 21.2551 5.72592 21.5239C5.99383 21.7926 6.2807 22.0283 6.5818 22.231C6.87816 22.4314 7.19112 22.5988 7.51593 22.7308L7.52067 22.7331C7.85496 22.8675 8.20348 22.9688 8.55911 23.0372C8.91 23.1032 9.27511 23.1386 9.64971 23.1386H12.3596C12.3762 23.1386 12.3952 23.1409 12.4118 23.1456C12.49 23.1716 12.5327 23.2541 12.509 23.3318L12.5066 23.3366C12.4545 23.5016 12.4023 23.6666 12.343 23.8434L12.3407 23.8528C12.2577 24.0909 12.1652 24.3337 12.068 24.5765C11.9755 24.8051 11.8807 25.0314 11.7811 25.2483C11.7788 25.2601 11.7764 25.2695 11.7716 25.2813C11.6744 25.5005 11.563 25.7174 11.4326 25.9319C11.3046 26.1464 11.16 26.3562 11.0035 26.5636C10.8423 26.771 10.6621 26.9808 10.4629 27.193L10.4558 27.2024C10.2543 27.4146 10.0362 27.6243 9.80145 27.8271C9.66631 27.9473 9.59281 28.1123 9.58333 28.2773C9.57384 28.4423 9.62837 28.612 9.74929 28.7464C9.83464 28.8407 9.93896 28.9043 10.0528 28.9373C10.1666 28.9703 10.2898 28.975 10.406 28.942C10.8992 28.81 11.3828 28.6662 11.8523 28.5059C12.3217 28.3457 12.7769 28.1712 13.2131 27.9826C13.6541 27.7941 14.0856 27.5866 14.5029 27.3627C14.9178 27.1411 15.3208 26.9007 15.7097 26.6461C16.0961 26.3962 16.4707 26.1299 16.8335 25.847C17.1962 25.5641 17.5447 25.2671 17.879 24.9583L17.8861 24.9513C18.1683 24.6872 18.4409 24.4091 18.7064 24.1215C18.9744 23.8292 19.2328 23.5275 19.4746 23.2211C19.5007 23.181 19.5481 23.1527 19.6003 23.1527H22.4501C22.8318 23.1527 23.1969 23.1173 23.5501 23.0513C23.9058 22.983 24.2472 22.8816 24.5744 22.7496L24.5791 22.7473C24.9086 22.6082 25.2216 22.4385 25.5227 22.2381C25.8214 22.0377 26.1059 21.8067 26.3762 21.538C26.6465 21.2693 26.8836 20.9841 27.0875 20.687C27.289 20.39 27.4597 20.0765 27.5925 19.7536C27.7276 19.4259 27.8296 19.0841 27.8983 18.7282C27.9647 18.3793 28.0003 18.014 28.0003 17.6344V9.09188C28.0003 8.71237 27.9647 8.347 27.8983 7.99813C27.8296 7.64219 27.7276 7.3004 27.5925 6.9751C27.4597 6.65216 27.289 6.33865 27.0875 6.04164C26.8836 5.74227 26.6465 5.45705 26.3786 5.19069C26.1083 4.92196 25.8238 4.68624 25.5227 4.48352C25.2263 4.28316 24.9134 4.11579 24.5886 3.98379L24.5838 3.98143C24.2472 3.84707 23.901 3.74571 23.543 3.67735C23.1921 3.61135 22.827 3.57599 22.4524 3.57599C19.7544 3.57599 18.8511 3.5642 16.153 3.5642C15.5105 3.75042 15.4678 4.88189 16.4565 4.88189ZM11.1481 18.0446C10.8043 18.0493 10.5246 17.7759 10.5198 17.4341C10.5151 17.0923 10.7901 16.8141 11.1339 16.8094L17.7202 16.7104L18.9815 16.6303C19.3252 16.6091 19.6192 16.8684 19.6406 17.2078C19.6619 17.5496 19.4011 17.8419 19.0597 17.8631L17.7984 17.9432C17.7984 17.9432 11.7029 18.0352 11.1481 18.0446ZM13.1207 14.1646C12.7769 14.1646 12.4971 13.8865 12.4971 13.5447C12.4971 13.2029 12.7769 12.9247 13.1207 12.9247H22.0162C22.36 12.9247 22.6397 13.2029 22.6397 13.5447C22.6397 13.8865 22.36 14.1646 22.0162 14.1646H13.1207ZM15.8898 10.4638C15.5461 10.4638 15.2663 10.1856 15.2663 9.84384C15.2663 9.50204 15.5461 9.22389 15.8898 9.22389H22.0162C22.36 9.22389 22.6397 9.50204 22.6397 9.84384C22.6397 10.1856 22.36 10.4638 22.0162 10.4638H15.8898ZM6.70983 0.122662L8.405 4.23837L12.867 4.56838C12.976 4.57545 13.059 4.66974 13.0519 4.78053C13.0472 4.8371 13.0187 4.8866 12.9784 4.92196L9.56673 7.79306L10.6289 12.1162C10.655 12.2223 10.5886 12.3283 10.4819 12.3543C10.425 12.3684 10.3705 12.3566 10.3254 12.326L6.5249 9.98763L2.71965 12.3283C2.62719 12.3849 2.5039 12.3566 2.447 12.2647C2.41855 12.2176 2.41144 12.1633 2.42329 12.1138L3.48544 7.7907L0.0713881 4.9196C-0.0115925 4.84889 -0.0234468 4.72396 0.0476793 4.64145C0.0832424 4.59902 0.133031 4.57545 0.18519 4.57074L4.64717 4.24073L6.34234 0.12502C6.38265 0.0236591 6.49882 -0.0234853 6.60077 0.0165874C6.65293 0.0354452 6.69086 0.0755179 6.70983 0.122662Z" fill="black" fill-opacity="0.5"/>
</g>
<defs>
<clipPath id="clip0_5061_6">
<rect width="28" height="28.9655" fill="white"/>
</clipPath>
</defs>
</svg>
