<svg width="120" height="123" viewBox="0 0 120 123" fill="none" xmlns="http://www.w3.org/2000/svg">
<g clip-path="url(#clip0_5066_7)">
<path d="M48.319 0C61.662 0 73.74 5.408 82.484 14.152C91.228 22.896 96.636 34.975 96.636 48.318C96.636 61.127 91.652 72.769 83.519 81.416C83.667 81.525 83.81 81.646 83.945 81.78L118.73 116.517C120.187 117.966 120.195 120.324 118.744 121.782C117.295 123.24 114.937 123.246 113.48 121.797L78.695 87.06C78.474 86.84 78.287 86.6 78.132 86.345C69.919 92.792 59.568 96.637 48.318 96.637C34.975 96.637 22.895 91.229 14.151 82.485C5.408 73.741 0 61.661 0 48.318C0 34.975 5.408 22.896 14.152 14.152C22.896 5.409 34.976 0 48.319 0ZM77.082 19.555C69.721 12.194 59.552 7.641 48.319 7.641C37.086 7.641 26.916 12.194 19.555 19.555C12.194 26.916 7.641 37.085 7.641 48.318C7.641 59.551 12.194 69.721 19.555 77.082C26.915 84.443 37.085 88.996 48.319 88.996C59.552 88.996 69.721 84.443 77.082 77.082C84.443 69.722 88.996 59.552 88.996 48.318C88.996 37.085 84.443 26.916 77.082 19.555Z" fill="#758AFB"/>
</g>
<defs>
<clipPath id="clip0_5066_7">
<rect width="119.828" height="122.88" fill="white"/>
</clipPath>
</defs>
</svg>
