<svg width="29" height="28" viewBox="0 0 29 28" fill="none" xmlns="http://www.w3.org/2000/svg">
<g clip-path="url(#clip0_4731_155)">
<path d="M5.21772 13.9996C5.06026 14.3328 4.66491 14.4735 4.3364 14.3138C4.00731 14.1541 3.86911 13.7555 4.026 13.42C4.37434 12.6801 4.80311 11.9867 5.29872 11.3485C5.79715 10.7083 6.36357 10.1257 6.98774 9.61127C7.27151 9.37689 7.68839 9.42055 7.91722 9.70778C8.14831 9.99559 8.10526 10.4184 7.82206 10.6499C7.27151 11.1049 6.77081 11.6167 6.33524 12.1774C5.89911 12.7404 5.52472 13.3499 5.21772 13.9996ZM6.32675 21.8571C6.13417 21.6859 5.93196 21.5027 5.83058 21.3786L5.82491 21.3826C5.58872 21.5464 5.29645 21.6561 4.89714 21.6549C4.49386 21.6544 4.16081 21.5308 3.86005 21.2758C3.74393 21.4211 3.49245 21.6377 3.26702 21.8313L3.21831 21.8727C3.18263 23.1715 5.95349 23.5644 6.32675 21.8571ZM5.9937 21.2488C6.08886 21.366 6.31655 21.5688 6.51933 21.7486L6.70397 21.914C8.05032 22.4437 9.41196 22.9785 9.56772 24.6393C9.6153 25.1534 9.61077 25.131 9.12423 25.1408C6.55727 25.1925 2.98268 25.0977 0.470673 25.1408C0.0141494 25.1483 -0.0328624 25.1816 0.0147157 24.5227C0.36702 22.8309 1.3571 22.5086 2.84618 21.9215C2.92491 21.8491 3.0263 21.7624 3.13335 21.6704C3.37294 21.4648 3.64481 21.231 3.71052 21.1362C3.62386 21.0477 3.54399 20.9558 3.4664 20.8639L3.13505 20.4738L2.92434 20.4796L2.46669 20.4916C2.0736 20.0332 2.09852 19.0486 2.13591 18.4799C2.31942 17.3372 2.75499 16.514 3.46413 16.0384C3.94501 15.7161 4.23161 15.6983 4.79349 15.6977C5.28343 15.6972 5.58419 15.6868 6.0022 15.966C7.3644 16.876 7.78638 19.0233 7.12085 20.4692H6.67509L6.38735 20.8179C6.26501 20.9673 6.14097 21.1172 5.9937 21.2488ZM3.24663 20.2802C3.27155 20.2877 3.29251 20.3003 3.30724 20.3176L3.68503 20.7622C4.03054 21.1689 4.33186 21.4631 4.89714 21.4636C5.51056 21.4648 5.80169 21.1638 6.16645 20.7191L6.49893 20.3153C6.51309 20.2986 6.53235 20.286 6.55444 20.2785C6.58446 20.1745 6.60825 20.066 6.62468 19.9522C6.68302 19.5541 6.68528 19.2445 6.508 18.8774C6.35507 18.5603 6.13983 18.396 5.90534 18.2788C6.15852 18.5655 6.36809 18.8441 6.31259 19.0721C6.00333 18.7275 5.68444 18.427 5.35423 18.1777C4.66378 17.8158 4.25767 17.3258 4.07642 16.7323C3.05802 17.7641 2.87563 18.9693 3.24663 20.2802ZM25.2328 20.6261C25.8247 19.9626 25.9827 19.515 25.904 18.62C25.8916 18.477 25.8706 18.3316 25.8417 18.1846C25.3586 17.9577 25.0431 17.4585 24.8811 16.7094C24.6879 18.1358 22.9604 18.0749 22.526 18.3345C22.526 18.4546 22.5226 18.5683 22.5197 18.6769C22.5005 19.4116 22.5537 19.8023 22.9185 20.3888C22.9797 20.487 23.0391 20.5818 23.1111 20.6605C23.6916 21.2953 24.684 21.2155 25.2328 20.6261ZM20.5305 21.4159C20.9219 21.3844 21.1909 21.1609 21.3728 20.838C21.5585 20.5112 21.6565 20.0809 21.7064 19.6432C21.7313 19.4162 21.7472 19.1732 21.7625 18.9262C21.8389 17.7187 21.9222 16.4147 23.2753 15.8603C23.4801 15.7765 23.6956 15.7229 23.9154 15.7012C24.3826 15.6546 24.8601 15.7529 25.2713 15.9913C25.6831 16.2308 26.0309 16.6117 26.2376 17.1304C26.3328 17.3688 26.3985 17.6371 26.4268 17.9341V17.9376C26.4234 18.6666 26.5384 19.6914 26.8505 20.4417C27.0748 20.9811 27.4016 21.3786 27.8575 21.4159C27.8762 21.4171 27.8904 21.4343 27.8893 21.4533L27.8859 21.4665C27.7975 21.7066 27.409 21.8922 26.9439 21.9824C27.6395 22.1541 28.1215 22.3609 28.4483 22.7257C28.8499 23.175 29 23.8431 29 24.9541C29 25.0276 28.9411 25.0868 28.8692 25.0868H19.5189C19.4464 25.0868 19.3875 25.0276 19.3875 24.9541C19.3875 23.8724 19.5297 23.2037 19.9086 22.751C20.2173 22.3822 20.6727 22.1691 21.3269 22.0048C20.9196 21.9025 20.5855 21.7049 20.5011 21.4625C20.4948 21.4447 20.5039 21.4246 20.5215 21.4182L20.5305 21.4159ZM25.8808 22.0122C25.8168 22.0025 25.755 21.9904 25.695 21.9755C25.5109 21.9301 25.3484 21.86 25.2266 21.7635C25.0414 21.6159 24.9496 21.4079 25.0114 21.1293C24.4557 21.4809 23.8729 21.4803 23.3206 21.119L23.2833 21.0977C23.2804 21.2637 23.1773 21.7514 23.0193 21.8491C22.7639 22.0065 22.3526 22.0749 22.0519 22.1243C21.9799 22.1363 21.9148 22.1467 21.8565 22.1587C21.7608 22.1777 21.669 22.1972 21.5806 22.2168C22.4325 23.0566 23.2906 23.526 24.1538 23.5524C25.0193 23.5788 25.904 23.1595 26.8103 22.2219C26.6783 22.1903 26.5384 22.1605 26.3906 22.13L26.369 22.1254C26.2427 22.1001 26.0649 22.0645 25.8808 22.0122ZM11.9189 1.66814C13.1248 0.156149 14.5147 -0.665911 15.5586 0.678912C16.8166 0.746124 17.3207 2.77284 16.3176 3.62592L16.3119 3.67647C16.351 3.66383 16.3907 3.65636 16.428 3.65349C16.5022 3.64775 16.573 3.65981 16.6336 3.69256C16.6993 3.72817 16.7503 3.78619 16.7764 3.86777C16.8013 3.94704 16.8019 4.04757 16.7696 4.17108C16.7226 4.31872 16.6654 4.48532 16.6099 4.62951C16.5855 4.69844 16.5623 4.74842 16.513 4.78806L16.5102 4.78978C16.4592 4.83057 16.3958 4.84551 16.3006 4.84034L16.257 4.83517C16.2479 5.29589 16.0429 5.52969 15.7653 5.79797C16.0287 6.72918 16.756 6.87164 17.4697 7.01181C18.4291 7.19966 19.3331 8.64961 19.3331 9.40733V9.83244C19.3331 9.90425 19.2754 9.96227 19.2046 9.96227H9.75804C9.68723 9.96227 9.63003 9.90425 9.63003 9.83244V9.44812C9.63003 8.48015 10.6654 7.21058 11.6736 7.07328C12.4145 6.97275 13.1616 6.87107 13.4193 5.94848L13.3513 5.88874C13.0404 5.61701 12.7798 5.38952 12.7305 4.83689L12.7033 4.83746C12.6392 4.83748 12.5762 4.82066 12.5204 4.78863C12.4275 4.73578 12.3629 4.64387 12.3193 4.54104C12.2672 4.41868 12.2434 4.27564 12.2383 4.16879V3.98094L12.248 3.82009L12.2559 3.78907C12.321 3.60581 12.4213 3.54664 12.5527 3.55066L12.4655 3.49207C12.4184 2.89635 12.5561 1.86346 11.9189 1.66814ZM15.5796 5.97605L15.5643 5.99042L15.4997 6.05131C15.4476 6.10473 15.3881 6.15184 15.3224 6.19263C15.0698 6.37014 14.8036 6.45688 14.5351 6.45688C14.2247 6.45746 13.9138 6.34199 13.6187 6.11737C13.5099 6.56086 13.2301 6.91416 12.8251 7.11407C13.9982 7.83962 15.1548 7.81836 16.2927 6.96184C15.8611 6.76365 15.6373 6.38335 15.5796 5.97605ZM12.7651 3.84881C12.6229 3.79883 12.5221 3.77528 12.4836 3.8649L12.4774 3.98668V4.15615C12.4813 4.24117 12.4994 4.35262 12.5385 4.4451C12.5634 4.5037 12.5969 4.55425 12.6382 4.57838C12.6586 4.58987 12.6818 4.59504 12.7062 4.59561C12.7356 4.59561 12.7691 4.5893 12.8042 4.57953L12.8393 4.57264C12.905 4.57149 12.9605 4.62434 12.9616 4.69098C12.9747 5.24016 13.2154 5.45042 13.5071 5.70491L13.6294 5.81291C13.9223 6.07716 14.2315 6.21446 14.5351 6.21446C14.8291 6.21503 15.1242 6.08463 15.3983 5.81578L15.5229 5.69629C15.8293 5.40446 16.0553 5.18846 16.0117 4.66398C16.0106 4.63813 16.0163 4.61113 16.0316 4.58815C16.0672 4.53242 16.142 4.51691 16.1969 4.5531L16.2604 4.587L16.3108 4.59791L16.3646 4.59849C16.4297 4.43879 16.4824 4.26817 16.5391 4.10502C16.5583 4.03149 16.56 3.97749 16.5492 3.94302C16.543 3.92521 16.5334 3.91258 16.5209 3.90626C16.5034 3.89707 16.4767 3.89304 16.4462 3.89592C16.3793 3.90109 16.3012 3.93383 16.2315 3.98726C16.206 4.00621 16.1732 4.01541 16.1397 4.00966C16.0746 3.99875 16.031 3.93555 16.0417 3.86949C16.1545 3.20254 16.1029 2.76709 15.963 2.47124C15.8401 2.21158 15.6441 2.05361 15.4317 1.93642C14.9616 2.30235 14.6291 2.34429 14.2983 2.38565C14.0248 2.42012 13.7506 2.45458 13.3893 2.7085C13.2176 2.82856 13.1027 2.97562 13.0443 3.14509C12.9849 3.31743 12.9815 3.51964 13.0313 3.74885C13.0353 3.77126 13.0341 3.79481 13.0262 3.81721C13.0152 3.84733 12.9928 3.87178 12.9641 3.88524C12.9353 3.89869 12.9025 3.90005 12.8727 3.88902L12.7651 3.84881ZM21.2759 10.7665C20.9972 10.5293 20.9616 10.1065 21.1949 9.82382C21.4288 9.54118 21.8457 9.50499 22.1244 9.74167C22.7661 10.288 23.345 10.9044 23.8446 11.588C24.1736 12.0372 24.4738 12.5158 24.7383 13.0207C24.9071 13.3499 24.7837 13.7555 24.4619 13.9272C24.1374 14.099 23.7375 13.9732 23.5682 13.6469C23.3403 13.2081 23.0782 12.7886 22.7842 12.3923C22.3323 11.7799 21.8446 11.2606 21.2759 10.7665ZM17.5257 26.1564C17.8712 26.0381 18.2456 26.2288 18.3623 26.5792C18.479 26.9297 18.2909 27.3088 17.9454 27.4272C17.3896 27.6179 16.8189 27.7611 16.2394 27.8551C15.6582 27.9517 15.0702 28.0001 14.4813 27.9999C13.8781 27.9999 13.28 27.9493 12.6915 27.8505C12.0888 27.7489 11.5077 27.5989 10.952 27.4059C10.6071 27.2847 10.4213 26.9027 10.5402 26.5522C10.6592 26.2018 11.0358 26.0134 11.3814 26.1346C11.877 26.3058 12.3867 26.4391 12.9016 26.5258C13.4091 26.6108 13.9358 26.6562 14.479 26.6562C15.0126 26.6562 15.5297 26.6131 16.0253 26.531C16.5419 26.4483 17.0426 26.3202 17.5257 26.1564Z" fill="white"/>
</g>
<defs>
<clipPath id="clip0_4731_155">
<rect width="29" height="28" fill="white"/>
</clipPath>
</defs>
</svg>
