<svg width="325" height="325" viewBox="0 0 325 325" fill="none" xmlns="http://www.w3.org/2000/svg">
<path d="M146.707 99.6074C146.135 99.0174 145.451 98.5469 144.695 98.2233C143.939 97.8997 143.127 97.7294 142.305 97.7223C141.483 97.7152 140.668 97.8715 139.907 98.182C139.145 98.4925 138.454 98.9512 137.871 99.5313C135.415 101.975 135.383 105.974 137.801 108.456L190.937 163.243L137.852 216.493C135.408 218.95 135.395 222.942 137.827 225.412C138.402 225.999 139.088 226.467 139.845 226.787C140.602 227.108 141.416 227.274 142.238 227.277C143.06 227.28 143.875 227.119 144.634 226.805C145.394 226.49 146.083 226.027 146.663 225.443L204.147 167.775C206.578 165.331 206.603 161.351 204.191 158.875L146.707 99.6074V99.6074Z" fill="#758AFB"/>
<path d="M325 162.5C325 117.628 306.808 76.9971 277.405 47.5947C247.997 18.1924 207.372 0 162.5 0C117.628 0 76.9971 18.1924 47.5947 47.5947C18.1924 76.9971 0 117.628 0 162.5C0 207.372 18.186 248.003 47.5947 277.405C76.9971 306.808 117.628 325 162.5 325C207.372 325 247.997 306.808 277.405 277.405C306.808 248.003 325 207.372 325 162.5ZM268.455 56.5449C295.566 83.6621 312.343 121.12 312.343 162.5C312.343 203.874 295.572 241.338 268.455 268.455C241.338 295.566 203.874 312.343 162.5 312.343C121.12 312.343 83.6558 295.572 56.5449 268.455C29.4277 241.344 12.6572 203.88 12.6572 162.5C12.6572 121.12 29.4341 83.6621 56.5449 56.5449C83.6558 29.4277 121.12 12.6572 162.5 12.6572C203.874 12.6572 241.338 29.4341 268.455 56.5449V56.5449Z" fill="#758AFB"/>
</svg>
