<svg width="16" height="18" viewBox="0 0 16 18" fill="none" xmlns="http://www.w3.org/2000/svg">
<g clip-path="url(#clip0_3993_11)">
<path fill-rule="evenodd" clip-rule="evenodd" d="M0.271951 2.15186H3.56735V2.09473V0.60498C3.56299 0.272461 3.9062 0 4.32794 0C4.74968 0 5.08998 0.273926 5.08998 0.60498V2.09473V2.15186H10.7035V2.09473V0.60498C10.6977 0.272461 11.0409 0 11.4612 0C11.8815 0 12.2261 0.273926 12.2261 0.60498V2.09473V2.15186H15.7324C15.8033 2.15376 15.8706 2.18347 15.92 2.23463C15.9695 2.2858 15.9971 2.35438 15.9971 2.42578V5.27344C15.9971 5.34609 15.9684 5.41576 15.9174 5.46713C15.8664 5.5185 15.7973 5.54736 15.7251 5.54736H0.271951C0.200059 5.5466 0.131327 5.5175 0.0804891 5.46629C0.0296517 5.41508 0.000756811 5.34585 0 5.27344L0 2.42432C0.000384356 2.35192 0.0292058 2.28262 0.0801648 2.23157C0.131124 2.18051 0.200076 2.15185 0.271951 2.15186ZM2.05926 14.1826H4.05163C4.17233 14.1826 4.27122 14.2573 4.27122 14.3481V15.4043C4.27122 15.4951 4.17233 15.5698 4.05163 15.5698H2.12616C2.00545 15.5698 1.90802 15.4951 1.90802 15.4043V14.3555C1.90802 14.2646 2.00691 14.1899 2.12616 14.1899L2.05926 14.1826ZM6.84676 14.1826H8.84057C8.96128 14.1826 9.05872 14.2573 9.05872 14.3481V15.4043C9.05872 15.4951 8.95983 15.5698 8.84057 15.5698H6.84676C6.72605 15.5698 6.62716 15.4951 6.62716 15.4043V14.3555C6.62716 14.2646 6.72605 14.1899 6.84676 14.1899V14.1826ZM11.5993 14.1826H13.5932C13.7139 14.1826 13.8128 14.2573 13.8128 14.3481V15.4043C13.8128 15.4951 13.7139 15.5698 13.5932 15.5698H11.5993C11.4786 15.5698 11.3797 15.4951 11.3797 15.4043V14.3555C11.3883 14.3048 11.4159 14.2594 11.4568 14.2286C11.4976 14.1978 11.5487 14.184 11.5993 14.1899V14.1826ZM2.05926 11.2368H4.05163C4.17233 11.2368 4.27122 11.3115 4.27122 11.4038V12.4585C4.27122 12.5493 4.17233 12.624 4.05163 12.624H2.12616C2.00545 12.624 1.90802 12.5493 1.90802 12.4585V11.4038C1.91594 11.353 1.94307 11.3072 1.98373 11.2761C2.02439 11.245 2.07543 11.2309 2.12616 11.2368H2.05926ZM6.84676 11.2368H8.84057C8.89131 11.2309 8.94234 11.245 8.983 11.2761C9.02366 11.3072 9.05079 11.353 9.05872 11.4038V12.4585C9.05872 12.5493 8.95983 12.624 8.84057 12.624H6.84676C6.72605 12.624 6.62716 12.5493 6.62716 12.4585V11.4038C6.62716 11.3115 6.72605 11.2368 6.84676 11.2368ZM11.5993 11.2368H13.5932C13.7139 11.2368 13.8128 11.3115 13.8128 11.4038V12.4585C13.8128 12.5493 13.7139 12.624 13.5932 12.624H11.5993C11.4786 12.624 11.3797 12.5493 11.3797 12.4585V11.4038C11.388 11.3529 11.4154 11.3071 11.4563 11.276C11.4972 11.2449 11.5484 11.2309 11.5993 11.2368ZM2.05926 8.29102H4.05163C4.17233 8.29102 4.27122 8.36572 4.27122 8.45801V9.5127C4.27122 9.60352 4.17233 9.67969 4.05163 9.67969H2.12616C2.07543 9.68561 2.02439 9.67153 1.98373 9.6404C1.94307 9.60928 1.91594 9.56351 1.90802 9.5127V8.45801C1.91594 8.40719 1.94307 8.36143 1.98373 8.3303C2.02439 8.29918 2.07543 8.2851 2.12616 8.29102H2.05926ZM6.84676 8.29102H8.84057C8.89131 8.2851 8.94234 8.29918 8.983 8.3303C9.02366 8.36143 9.05079 8.40719 9.05872 8.45801V9.5127C9.05046 9.56335 9.02324 9.60889 8.98267 9.63996C8.94209 9.67102 8.89124 9.68524 8.84057 9.67969H6.84676C6.72605 9.67969 6.62716 9.60498 6.62716 9.5127V8.45801C6.62716 8.36572 6.72605 8.29102 6.84676 8.29102ZM11.5993 8.29102H13.5932C13.7139 8.29102 13.8128 8.36572 13.8128 8.45801V9.5127C13.8128 9.60352 13.7139 9.67969 13.5932 9.67969H11.5993C11.4786 9.67969 11.3797 9.60498 11.3797 9.5127V8.45801C11.388 8.40707 11.4154 8.3613 11.4563 8.3302C11.4972 8.2991 11.5484 8.28507 11.5993 8.29102ZM0.0683512 6.18018H15.9331C15.9508 6.18018 15.9679 6.18727 15.9804 6.19991C15.993 6.21255 16 6.22969 16 6.24756V17.9326C15.9996 17.9504 15.9925 17.9673 15.98 17.9799C15.9675 17.9924 15.9507 17.9996 15.9331 18H0.0683512C0.0504725 18 0.0333039 17.993 0.0205266 17.9804C0.00774925 17.9678 0.000380397 17.9506 0 17.9326L0 6.24902C0 6.23076 0.00720127 6.21325 0.0200196 6.20034C0.0328379 6.18743 0.0502233 6.18018 0.0683512 6.18018ZM1.018 6.98877H15.1143C15.1499 6.99086 15.1835 7.00604 15.2087 7.03142C15.2339 7.05681 15.249 7.09063 15.251 7.12646V17.0552C15.249 17.091 15.2339 17.1248 15.2087 17.1502C15.1835 17.1756 15.1499 17.1908 15.1143 17.1929H0.884203C0.848625 17.1908 0.815048 17.1756 0.789848 17.1502C0.764648 17.1248 0.749578 17.091 0.7475 17.0552V7.2627C0.747499 7.1903 0.775952 7.12085 0.826638 7.06952C0.877325 7.01819 0.946123 6.98916 1.018 6.98877Z" fill="#CBCBD3"/>
</g>
<defs>
<clipPath id="clip0_3993_11">
<rect width="16" height="18" fill="white"/>
</clipPath>
</defs>
</svg>
