<svg width="109" height="123" viewBox="0 0 109 123" fill="none" xmlns="http://www.w3.org/2000/svg">
<g clip-path="url(#clip0_5072_5)">
<path d="M4.873 9.058H38.223V6.2V6.187C38.223 6.092 38.225 6.001 38.237 5.908C38.312 4.316 38.999 2.871 40.053 1.822L40.046 1.815C41.15 0.711 42.683 0.025 44.371 0.009L44.394 0.011V0H44.425H64.309H64.325C64.431 0 64.532 0.009 64.634 0.022C66.217 0.106 67.653 0.782 68.698 1.832C69.8 2.936 70.484 4.467 70.501 6.147L70.498 6.168H70.512V6.2V9.057H103.421H103.438C103.576 9.057 103.706 9.071 103.839 9.091C105.021 9.197 106.093 9.716 106.873 10.501L106.877 10.508L106.882 10.501C107.733 11.358 108.268 12.549 108.283 13.869L108.281 13.901H108.295V13.933V24.762C108.295 26.234 107.1 27.427 105.628 27.427H105.558H2.667C1.195 27.426 0 26.233 0 24.762V24.699V13.933V13.919C0 13.813 0.004 13.708 0.018 13.604V13.583C0.107 12.376 0.642 11.279 1.44 10.485L1.433 10.483C2.295 9.622 3.49 9.087 4.81 9.069L4.842 9.071V9.058H4.873ZM77.79 49.097H71.845V105.19H77.79V49.097V49.097ZM58.46 49.097H52.512V105.19H58.46V49.097ZM39.13 49.097H33.184V105.19H39.13V49.097ZM10.837 31.569H98.222L98.501 31.587L98.628 31.594L98.762 31.605H98.771L98.934 31.628C100.297 31.791 101.572 32.417 102.506 33.336C103.546 34.361 104.211 35.751 104.211 37.3C104.211 37.398 104.202 37.493 104.192 37.586L104.19 37.654L104.176 37.808L96.783 117.143L96.776 117.186H96.783L96.767 117.325L96.716 117.608L96.714 117.613L96.712 117.631C96.657 117.962 96.592 118.277 96.503 118.559L96.496 118.581L96.494 118.586L96.485 118.604L96.462 118.666L96.458 118.687C96.34 119.041 96.194 119.385 96.026 119.696C95.017 121.576 93.147 122.883 90.822 122.883H18.13L17.883 122.869V122.872L17.872 122.869L17.84 122.865C17.38 122.842 16.951 122.774 16.552 122.663C16.137 122.547 15.734 122.377 15.355 122.168L15.346 122.166L15.344 122.168C13.559 121.191 12.369 119.286 12.174 117.146L4.88 37.79L4.869 37.665L4.858 37.418L4.854 37.302H4.849C4.849 35.749 5.513 34.356 6.556 33.331C7.532 32.376 8.876 31.732 10.312 31.605L10.434 31.601V31.594L10.734 31.581L10.838 31.583V31.569H10.837ZM98.223 36.903H10.837V36.896L10.721 36.9C10.558 36.922 10.399 37.006 10.283 37.122C10.22 37.185 10.179 37.254 10.179 37.301H10.172L10.179 37.419L17.461 116.663H17.459L17.461 116.675C17.493 117.051 17.663 117.366 17.908 117.5L17.906 117.504L17.99 117.536L18.053 117.548H18.13H90.825C91.032 117.548 91.224 117.391 91.343 117.171L91.427 116.974L91.481 116.758L91.495 116.62H91.5L98.884 37.41L98.881 37.3C98.881 37.255 98.84 37.189 98.778 37.128C98.658 37.01 98.492 36.926 98.327 36.901L98.223 36.903ZM98.334 36.901H98.318H98.334ZM98.883 37.413V37.409V37.413ZM104.18 37.79L104.178 37.808L104.18 37.79ZM40.887 14.389H5.332V22.095H102.962V14.389H67.907H67.844C66.372 14.389 65.18 13.197 65.18 11.725V6.2V6.168H65.187C65.18 5.948 65.081 5.735 64.928 5.583C64.791 5.442 64.604 5.354 64.407 5.331H64.325H64.309H44.425H44.394V5.325C44.181 5.332 43.972 5.429 43.818 5.584L43.814 5.58L43.807 5.584C43.676 5.718 43.576 5.897 43.548 6.085L43.555 6.187V6.2V11.724C43.554 13.196 42.359 14.389 40.887 14.389Z" fill="#676767"/>
</g>
<defs>
<clipPath id="clip0_5072_5">
<rect width="108.294" height="122.88" fill="white"/>
</clipPath>
</defs>
</svg>
