<svg width="123" height="111" viewBox="0 0 123 111" fill="none" xmlns="http://www.w3.org/2000/svg">
<g clip-path="url(#clip0_4422_4)">
<path d="M3.53985 84.57C4.47985 83.45 5.50985 82.55 6.62985 81.81C8.87985 80.32 11.4199 79.53 14.2999 79C14.2999 53.86 14.2999 28.73 14.2999 3.59C3.38985 4.66 3.45985 14.75 3.51985 24.12C3.52985 25.38 3.53985 26.04 3.53985 26.35V84.57ZM17.7999 31.15H71.5499V17.82H17.7999V31.15ZM68.2499 33.76H17.7999V62.17H39.2999C38.8499 61.57 38.5699 60.86 38.4799 60.08C38.3399 58.81 38.7199 57.36 39.7999 56.01C39.8499 55.94 39.9199 55.88 39.9899 55.82L68.2499 33.76ZM47.7099 62.17H71.5399V43.34L47.6799 61.94C47.6999 62.02 47.7099 62.1 47.7099 62.17ZM74.1299 62.17H96.6199V62.15C96.6199 62.07 96.6299 62 96.6399 61.93L74.1299 43.99V62.17ZM105.38 62.17H119.38V17.82H74.1299V32.12L104.48 55.71C104.53 55.75 104.57 55.79 104.62 55.84C106.08 57.41 106.44 59.16 106.09 60.63C105.95 61.2 105.71 61.72 105.38 62.17ZM119.38 64.78H99.5499V92.92C99.5499 93.56 99.0299 94.08 98.3899 94.08H45.9499C45.3099 94.08 44.7899 93.56 44.7899 92.92V64.78H17.7999V80.46H17.7899C17.7899 81.31 17.1799 82.05 16.3099 82.18C13.2699 82.65 10.6699 83.31 8.54985 84.71C6.51985 86.05 4.84985 88.14 3.49985 91.52C3.31985 95.8 4.01985 99.4 5.90985 102.09C7.80985 104.8 10.9999 106.67 15.8299 107.48H119.37V64.78H119.38ZM96.6199 64.78H74.1299V91.15H96.6199V64.78V64.78ZM71.5499 64.78H47.7199V91.15H71.5499V64.78ZM74.1299 35.05V41.03L99.8299 61.01C99.8399 61.02 99.8499 61.03 99.8699 61.04C100.85 61.74 101.79 61.86 102.51 61.6C102.85 61.48 103.14 61.28 103.37 61.02C103.6 60.76 103.77 60.45 103.85 60.1C104.03 59.34 103.81 58.4 103 57.49L74.1299 35.05ZM71.5499 40.42V34.1L41.5199 57.55C40.9099 58.35 40.6899 59.15 40.7699 59.82C40.8099 60.21 40.9498 60.55 41.1698 60.82C41.3798 61.09 41.6799 61.3 42.0299 61.41C42.6299 61.61 43.4099 61.56 44.2999 61.14L71.5499 40.42ZM17.7999 14.33H120.03C120.82 14.33 121.53 14.65 122.05 15.17C122.57 15.69 122.89 16.4 122.89 17.19V108.14C122.89 108.92 122.57 109.63 122.05 110.15L122.04 110.16C121.52 110.68 120.81 111 120.03 111H15.7299C11.4599 111 5.53985 107.65 3.06985 104.12C0.649853 100.68 -0.220147 96.26 0.0398529 91.11V26.35C0.0398529 24.56 0.0398529 24.37 0.0398529 24.13C-0.0401471 12.67 -0.120147 0.28 15.8499 0.01C15.9199 0 15.9799 0 16.0499 0C17.0199 0 17.7999 0.78 17.7999 1.75V14.33Z" fill="white"/>
</g>
<defs>
<clipPath id="clip0_4422_4">
<rect width="122.88" height="110.98" fill="white"/>
</clipPath>
</defs>
</svg>
