<svg width="61" height="61" viewBox="0 0 61 61" fill="none" xmlns="http://www.w3.org/2000/svg">
<path fill-rule="evenodd" clip-rule="evenodd" d="M4.35836 26.4C3.25134 29.7019 3.21659 35.2862 3.99597 38.8367C4.89449 42.9243 6.85534 46.8278 9.49133 49.8313L13.2641 36.1067C13.3287 35.873 13.4379 35.6442 13.6116 35.4752C13.8052 35.2862 14.0485 35.1669 14.3562 35.1669H22.6167H31.4628H41.6097C41.8926 35.1669 42.116 35.2663 42.2997 35.4304C42.3195 35.4453 42.3394 35.4603 42.3543 35.4801C42.5231 35.6492 42.6323 35.878 42.6968 36.1117L46.142 48.6379C47.2688 47.0615 48.2269 45.2913 48.9765 43.3221C49.6914 41.4474 50.1927 39.5528 50.4707 37.6731C51.0267 33.9436 50.7338 27.5736 50.7338 23.8391C46.7277 23.3567 45.0697 21.4273 45.0697 17.4939V15.2711H44.3549C43.8435 15.2711 43.4266 14.8584 43.4266 14.3462V13.2721C43.4266 12.7599 43.8435 12.3422 44.3549 12.3422H47.1745V6.65843C47.1745 5.85286 47.8298 5.19149 48.639 5.19149C49.4432 5.19149 50.0984 5.84788 50.0984 6.65843V12.3422H54.3974V6.65843C54.3974 5.85286 55.0477 5.19149 55.8619 5.19149C56.6661 5.19149 57.3263 5.84788 57.3263 6.65843V12.3422H60.0665C60.5778 12.3422 60.9948 12.7599 60.9948 13.2721V14.3462C60.9948 14.8584 60.5778 15.2711 60.0665 15.2711H59.4956V17.2702C59.4956 21.0792 57.7929 23.4214 53.8315 23.7993C53.8315 27.6432 54.0549 34.0729 53.5188 37.8621C53.2159 40.0401 52.6451 42.238 51.821 44.4012C50.5204 47.8124 48.6538 50.7115 46.3951 53.0884C42.7415 56.9323 38.0553 59.4038 33.0564 60.4381C28.0673 61.4674 22.7656 61.0696 17.8461 59.185C14.5498 57.9169 11.4174 55.9875 8.67224 53.3719C4.95902 49.8413 2.17411 44.789 1.00753 39.4782C0.0742571 35.2116 0.178505 28.8466 1.67273 24.8436L1.65287 24.7988C-4.71619 8.74199 8.80627 6.04182 17.0965 0C23.9173 16.937 16.9475 25.0375 4.35836 26.4ZM15.3441 32.5065C14.8676 32.5065 14.4754 32.1136 14.4754 31.6412C14.4754 31.1639 14.8676 30.771 15.3441 30.771H17.5581C18.0347 30.771 18.4269 31.1639 18.4269 31.6363C18.4269 32.1136 18.0347 32.5065 17.5581 32.5065H15.3441ZM16.6944 26.0917C16.2774 25.848 16.1433 25.3309 16.3717 24.9132C16.6149 24.4955 17.1312 24.3612 17.5482 24.59L19.4743 25.6989C19.8913 25.9425 20.0253 26.4597 19.797 26.8774C19.5537 27.2951 19.0375 27.4294 18.6205 27.2006L16.6944 26.0917ZM27.9681 24.0678C30.1027 24.0678 32.0387 24.938 33.4336 26.3354C34.8286 27.7327 35.6973 29.677 35.6973 31.8103C35.6973 32.4518 35.6179 33.0783 35.4739 33.6751H20.4672C20.3182 33.0783 20.2438 32.4518 20.2438 31.8103C20.2438 29.672 21.1125 27.7327 22.5074 26.3354C23.9173 24.938 25.8483 24.0678 27.9681 24.0678ZM38.5765 24.8983C38.9935 24.6546 39.5197 24.7938 39.763 25.2115C39.9963 25.6292 39.8573 26.1564 39.4403 26.3901L37.5142 27.499C37.0972 27.7426 36.571 27.6034 36.3377 27.1857C36.0944 26.768 36.2334 26.2409 36.6504 26.0072L38.5765 24.8983ZM40.6168 31.129C41.0934 31.129 41.4856 31.5219 41.4856 31.9993C41.4856 32.4766 41.0934 32.8695 40.6168 32.8695H38.4028C37.9262 32.8695 37.5341 32.4766 37.5341 31.9993C37.5341 31.5219 37.9262 31.129 38.4028 31.129H40.6168V31.129ZM21.0778 21.2135C20.8345 20.7958 20.9735 20.2687 21.3756 20.035C21.7926 19.7913 22.3188 19.9305 22.5521 20.3483L23.6591 22.2777C23.9024 22.6954 23.7634 23.2225 23.3464 23.4562C22.9294 23.6998 22.4032 23.5606 22.1699 23.1429L21.0778 21.2135ZM27.2979 19.1697C27.2979 18.6923 27.6801 18.2995 28.1666 18.2995C28.6432 18.2995 29.0354 18.6923 29.0354 19.1697V21.3875C29.0354 21.8649 28.6432 22.2528 28.1666 22.2528C27.6901 22.2528 27.2979 21.8599 27.2979 21.3875V19.1697ZM33.7067 20.5173C33.9499 20.0996 34.4662 19.9654 34.8832 20.1941C35.3002 20.4378 35.4392 20.9549 35.2058 21.3726L34.0988 23.302C33.8556 23.7197 33.3393 23.854 32.9223 23.6253C32.5053 23.3816 32.3713 22.8644 32.5996 22.4467L33.7067 20.5173ZM12.723 52.8448C14.6591 54.3416 16.7539 55.5052 18.9382 56.3456C19.1219 56.4152 19.3105 56.4848 19.4991 56.5494H26.583V52.8448H12.723ZM35.6824 56.5494C38.0305 55.6991 40.2395 54.4609 42.2054 52.8448H29.3779V56.5494H35.6824Z" fill="white"/>
<path fill-rule="evenodd" clip-rule="evenodd" d="M4.7207 22.3721L4.75049 22.392C11.2536 14.5302 13.6414 14.1721 15.3341 4.7439C12.8471 10.368 5.79297 14.9628 4.7207 22.3721Z" fill="white"/>
<path fill-rule="evenodd" clip-rule="evenodd" d="M24.4288 43.6901L24.1359 45.8284H31.0411L30.8276 43.6901H24.4288ZM31.4084 36.1217L31.6815 38.8865H36.8293L36.323 36.1217H31.4084ZM37.6633 36.1217L38.1697 38.8865H42.1907L41.4361 36.1217H37.6633ZM42.5531 40.2142H38.408L38.7952 42.3525H43.1388L42.5531 40.2142ZM43.5112 43.6901H39.0434L39.4355 45.8284H44.1019L43.5112 43.6901ZM44.4692 47.1561H39.6788L40.4085 51.1442H45.5663L44.4692 47.1561ZM39.0632 51.1442L38.3335 47.1561H32.5006L32.8927 51.1442H39.0632ZM31.5623 51.1442L31.1652 47.1561H23.9572L23.4111 51.1442H31.5623ZM22.0758 51.1442L22.6218 47.1561H17.1116L16.1882 51.1442H22.0758ZM14.828 51.1442L15.7514 47.1561H11.4921L10.395 51.1442H14.828ZM11.8595 45.8234H16.0641L16.5556 43.6851H12.4452L11.8595 45.8234ZM12.8175 42.3475H16.8634L17.3598 40.2092H13.4033L12.8175 42.3475ZM13.7707 38.8815H17.6725L18.3129 36.1167H14.5302L13.7707 38.8815ZM19.6731 36.1217L19.0327 38.8865H23.7487L24.126 36.1217H19.6731ZM25.4514 36.1217C25.4514 36.1465 25.4514 36.1714 25.4465 36.1963L25.0741 38.8865H30.3461L30.0731 36.1217H25.4514ZM31.8105 40.2142L32.019 42.3525H37.4548L37.0627 40.2142H31.8105ZM18.72 40.2142L18.2236 42.3525H23.2721L23.5601 40.2142H18.72ZM24.9004 40.2142L24.6075 42.3525H30.6936L30.4801 40.2142H24.9004ZM32.1531 43.6901L32.3665 45.8284H38.0903L37.6981 43.6901H32.1531ZM17.9158 43.6901L17.4243 45.8284H22.8055L23.0934 43.6901H17.9158Z" fill="white"/>
</svg>
