<svg width="45" height="45" viewBox="0 0 45 45" fill="none" xmlns="http://www.w3.org/2000/svg">
<path d="M22.4991 0C28.7112 0 34.338 2.51895 38.4091 6.59004C42.4802 10.6611 45 16.287 45 22.5C45 28.7121 42.4802 34.338 38.4091 38.4091C34.338 42.4802 28.7112 45 22.4991 45C16.287 45 10.6611 42.4802 6.59004 38.4091C2.51895 34.338 0 28.7121 0 22.5C0 16.2888 2.51895 10.6611 6.59004 6.59004C10.6611 2.51895 16.287 0 22.4991 0ZM29.3019 23.7138C30.5104 22.9333 30.506 22.0641 29.3019 21.3732L19.6102 14.6259C18.6267 14.0071 17.5983 14.371 17.6256 15.656L17.6643 29.2324C17.7486 30.6264 18.5449 31.0087 19.7183 30.3636L29.3019 23.7138ZM36.276 8.72314C32.7516 5.19873 27.8789 3.01729 22.4991 3.01729C17.1193 3.01729 12.2484 5.19873 8.72314 8.72314C5.19873 12.2484 3.01729 17.1202 3.01729 22.5C3.01729 27.8807 5.19873 32.7516 8.72314 36.276C12.2484 39.8013 17.1193 41.9827 22.4991 41.9827C27.8789 41.9827 32.7516 39.8013 36.276 36.276C39.8013 32.7516 41.9827 27.8807 41.9827 22.5C41.9827 17.1193 39.8013 12.2484 36.276 8.72314Z" fill="#E4D11B"/>
</svg>
