<svg width="249" height="70" viewBox="0 0 249 70" fill="none" xmlns="http://www.w3.org/2000/svg">
<path d="M227.33 47.1301H225.014H222.677V23.2611H225.286H227.901L237.469 40.0207V23.2611H239.791H242.123V47.1301H239.642H237.16L227.332 29.9214V47.1301H227.33ZM200.737 47.1301V23.2611H218.289V25.361V27.4827H205.724V32.5359H217.392V34.5858V36.6583H205.724V42.9086H218.855V45.0085V47.1297H200.737V47.1301ZM185.585 47.1301V27.4836H178.372V25.3779V23.2611H197.785V25.361V27.4827H190.572V47.1292H188.09H185.585V47.1301H185.585ZM161.414 33.6997H167.192C168.477 33.6997 169.447 33.4393 170.09 32.9133C170.733 32.3872 171.053 31.595 171.053 30.5303C171.053 29.4825 170.748 28.696 170.134 28.17C169.525 27.6439 168.61 27.3835 167.386 27.3835H161.414V33.6997H161.414ZM156.427 47.1301V23.2611H158.909H168.455C170.732 23.2611 172.56 23.8704 173.951 25.0896C175.342 26.3087 176.039 27.9158 176.039 29.9157C176.039 32.2101 175.264 33.8942 173.718 34.9521C173.308 35.2346 172.843 35.4724 172.322 35.6721C172.615 35.7881 172.882 35.9214 173.12 36.0596C174.482 36.8691 175.192 38.237 175.241 40.1488L175.357 44.0599C175.378 44.8405 175.462 45.395 175.601 45.7165C175.74 46.0438 176.012 46.3042 176.41 46.4972V47.1292H170.908C170.775 46.8803 170.665 46.3485 170.565 45.5341C170.471 44.714 170.415 43.839 170.405 42.897L170.372 40.6912C170.35 39.6217 170.034 38.8569 169.424 38.4026C168.815 37.9482 167.801 37.721 166.382 37.721H161.413V47.1287H158.932H156.428V47.1301H156.427ZM130.561 47.1301L138.999 23.2611H141.89H144.782L153.226 47.1301H150.583H147.94L141.824 28.569L135.707 47.1301H133.143H130.561ZM109.154 47.1301H106.839H104.5V23.2611H108.151H111.802L116.146 42.177L120.433 23.2611H124.034H127.635V47.1301H125.319H122.981V27.062L118.515 47.1301H116.067H113.618L109.158 26.6245H109.152V47.1301H109.154ZM95.486 30.4085C95.4033 29.2731 94.9042 28.3755 93.9951 27.7156C93.086 27.0509 91.9069 26.7179 90.4491 26.7179C89.1858 26.7179 88.1944 26.9951 87.485 27.5544C86.7703 28.1088 86.4157 28.8895 86.4157 29.8815C86.4157 30.5962 86.7867 31.1507 87.5346 31.5382C88.2719 31.9256 89.8341 32.3857 92.2274 32.9176C95.6954 33.6983 98.0165 34.5959 99.1855 35.6163C100.355 36.6241 100.942 38.2481 100.942 40.4809C100.942 42.7189 100.061 44.5032 98.2937 45.8157C96.5313 47.135 94.1438 47.7943 91.1364 47.7943C88.1174 47.7943 85.7616 47.0964 84.0608 45.6997C82.3601 44.3087 81.4519 42.3204 81.335 39.7488H86.1553C86.2053 41.0064 86.6654 41.9763 87.5288 42.652C88.3937 43.3336 89.5958 43.671 91.1412 43.671C92.725 43.671 93.9609 43.4168 94.8532 42.9009C95.7454 42.3849 96.1882 41.676 96.1882 40.7677C96.1882 39.8643 95.8667 39.2054 95.2242 38.7843C94.5981 38.3631 93.2578 37.9256 91.2076 37.4708C87.4292 36.6227 84.9026 35.7082 83.6287 34.723C82.3596 33.7478 81.7291 32.224 81.7291 30.1525C81.7291 27.8364 82.5651 25.9969 84.2447 24.6343C85.9175 23.2765 88.1843 22.5955 91.0372 22.5955C93.7015 22.5955 95.8744 23.2986 97.5526 24.707C99.2264 26.1148 100.157 28.015 100.34 30.4081H95.4856V30.4085H95.486Z" fill="#0F509A"/>
<path d="M70.0554 35.1963C70.0554 26.9972 67.2174 19.4614 62.4726 13.5129C61.0808 11.8582 60.0148 10.846 58.4618 9.79095C40.2623 -2.57145 8.53455 16.1938 40.5723 32.656C67.2425 46.3598 52.8844 71.021 26.7764 68.9567C29.4912 69.6368 32.3297 69.9997 35.2548 69.9997C54.4702 70.0002 70.0554 54.4149 70.0554 35.1963Z" fill="#0F509A"/>
<path d="M0.453125 35.1962C0.453125 43.3953 3.29113 50.9311 8.03591 56.8796C9.42773 58.5343 10.4937 59.5465 12.0468 60.6011C30.2462 72.9635 61.974 54.1987 29.9363 37.7365C3.26611 24.0322 17.6241 -0.629486 43.7322 1.43436C41.0174 0.754275 38.1789 0.391357 35.2538 0.391357C16.0379 0.39232 0.453125 15.9776 0.453125 35.1962Z" fill="#0F509A"/>
<path d="M86.0767 53.0718H89.3127V53.6436H86.7086V55.0596H88.9979V55.615H86.7086V57.7366H86.0767V53.0718Z" fill="#0F509A"/>
<path d="M94.9643 53.0718V55.9553C94.9643 56.2936 95.0283 56.5757 95.1563 56.8005C95.3469 57.1388 95.6665 57.3087 96.1169 57.3087C96.6574 57.3087 97.0241 57.1258 97.2186 56.7586C97.323 56.5598 97.375 56.2917 97.375 55.9553V53.0718H98.0131V55.692C98.0131 56.2662 97.9356 56.7076 97.7802 57.0161C97.4953 57.5792 96.9582 57.8613 96.168 57.8613C95.3772 57.8613 94.8411 57.5792 94.5581 57.0161C94.4027 56.7066 94.3257 56.2653 94.3257 55.692V53.0718H94.9643Z" fill="#0F509A"/>
<path d="M103.683 56.2315C103.697 56.4967 103.757 56.7114 103.863 56.8765C104.065 57.186 104.42 57.3405 104.93 57.3405C105.159 57.3405 105.367 57.3068 105.555 57.2384C105.918 57.108 106.099 56.8726 106.099 56.5333C106.099 56.2797 106.021 56.0987 105.868 55.9899C105.712 55.8845 105.468 55.7921 105.135 55.7137L104.524 55.5702C104.124 55.4773 103.841 55.3743 103.674 55.2617C103.386 55.0677 103.243 54.7761 103.243 54.3891C103.243 53.9694 103.385 53.6262 103.667 53.3562C103.949 53.0872 104.348 52.9524 104.866 52.9524C105.342 52.9524 105.745 53.0703 106.079 53.3061C106.412 53.5425 106.578 53.9198 106.578 54.4387H105.984C105.953 54.1884 105.889 53.9973 105.789 53.8635C105.604 53.6205 105.291 53.4987 104.849 53.4987C104.491 53.4987 104.235 53.5767 104.078 53.7331C103.922 53.8895 103.844 54.0719 103.844 54.2794C103.844 54.508 103.936 54.6755 104.12 54.7809C104.241 54.8492 104.515 54.9335 104.941 55.0345L105.575 55.1837C105.881 55.255 106.117 55.3541 106.283 55.4788C106.57 55.6963 106.714 56.013 106.714 56.4284C106.714 56.9453 106.531 57.315 106.164 57.5364C105.797 57.7592 105.372 57.8704 104.887 57.8704C104.321 57.8704 103.877 57.7222 103.558 57.4252C103.237 57.1311 103.081 56.7321 103.087 56.2277H103.683V56.2315Z" fill="#0F509A"/>
<path d="M112.042 53.0718H112.681V57.7366H112.042V53.0718Z" fill="#0F509A"/>
<path d="M121.841 53.738C122.151 54.151 122.305 54.6794 122.305 55.3234C122.305 56.0199 122.128 56.5989 121.775 57.06C121.36 57.6024 120.768 57.8729 120 57.8729C119.282 57.8729 118.717 57.6352 118.307 57.1615C117.941 56.7043 117.757 56.1263 117.757 55.4274C117.757 54.7959 117.914 54.2559 118.227 53.8073C118.63 53.2312 119.225 52.9434 120.012 52.9434C120.835 52.9443 121.445 53.2086 121.841 53.738ZM121.284 56.7115C121.533 56.3125 121.656 55.8534 121.656 55.334C121.656 54.7848 121.513 54.3435 121.226 54.009C120.938 53.6745 120.547 53.5065 120.05 53.5065C119.567 53.5065 119.173 53.6725 118.868 54.0032C118.563 54.3348 118.411 54.8238 118.411 55.4707C118.411 55.9872 118.542 56.4232 118.803 56.7784C119.065 57.1332 119.488 57.3103 120.075 57.3103C120.631 57.3112 121.035 57.1115 121.284 56.7115Z" fill="#0F509A"/>
<path d="M127.349 53.0718H128.094L130.42 56.8409V53.0718H131.024V57.7366H130.313L127.953 53.9723V57.7366H127.349V53.0718Z" fill="#0F509A"/>
<path d="M142.58 53.0718H143.218V57.7366H142.58V53.0718Z" fill="#0F509A"/>
<path d="M148.949 56.2315C148.962 56.4967 149.023 56.7114 149.129 56.8765C149.331 57.186 149.686 57.3405 150.196 57.3405C150.425 57.3405 150.632 57.3068 150.821 57.2384C151.184 57.108 151.364 56.8726 151.364 56.5333C151.364 56.2797 151.287 56.0987 151.134 55.9899C150.979 55.8845 150.734 55.7921 150.401 55.7137L149.79 55.5702C149.39 55.4773 149.107 55.3743 148.94 55.2617C148.652 55.0677 148.509 54.7761 148.509 54.3891C148.509 53.9694 148.65 53.6262 148.932 53.3562C149.214 53.0872 149.614 52.9524 150.131 52.9524C150.607 52.9524 151.011 53.0703 151.345 53.3061C151.677 53.5425 151.843 53.9198 151.843 54.4387H151.249C151.219 54.1884 151.155 53.9973 151.055 53.8635C150.87 53.6205 150.557 53.4987 150.115 53.4987C149.758 53.4987 149.501 53.5767 149.344 53.7331C149.187 53.8895 149.109 54.0719 149.109 54.2794C149.109 54.508 149.202 54.6755 149.386 54.7809C149.506 54.8492 149.781 54.9335 150.207 55.0345L150.841 55.1837C151.147 55.255 151.382 55.3541 151.548 55.4788C151.836 55.6963 151.98 56.013 151.98 56.4284C151.98 56.9453 151.797 57.315 151.43 57.5364C151.063 57.7592 150.638 57.8704 150.152 57.8704C149.587 57.8704 149.143 57.7222 148.824 57.4252C148.503 57.1311 148.346 56.7321 148.353 56.2277H148.949V56.2315Z" fill="#0F509A"/>
<path d="M166.543 53.0718V53.6272H164.971V57.7366H164.333V53.6272H162.761V53.0718H166.543Z" fill="#0F509A"/>
<path d="M171.432 53.0718H172.07V54.9994H174.467V53.0718H175.106V57.7366H174.467V55.5544H172.07V57.7366H171.432V53.0718Z" fill="#0F509A"/>
<path d="M180.464 53.0718H183.849V53.6436H181.08V55.0596H183.64V55.6001H181.08V57.1812H183.896V57.7366H180.463V53.0718H180.464Z" fill="#0F509A"/>
<path d="M195.193 53.0718H198.43V53.6436H195.825V55.0596H198.115V55.615H195.825V57.7366H195.193V53.0718Z" fill="#0F509A"/>
<path d="M204.081 53.0718V55.9553C204.081 56.2936 204.145 56.5757 204.273 56.8005C204.463 57.1388 204.783 57.3087 205.233 57.3087C205.774 57.3087 206.14 57.1258 206.334 56.7586C206.439 56.5598 206.491 56.2917 206.491 55.9553V53.0718H207.129V55.692C207.129 56.2662 207.052 56.7076 206.896 57.0161C206.612 57.5792 206.074 57.8613 205.284 57.8613C204.493 57.8613 203.957 57.5792 203.674 57.0161C203.519 56.7066 203.441 56.2653 203.441 55.692V53.0718H204.081Z" fill="#0F509A"/>
<path d="M215.779 53.0718V53.6272H214.207V57.7366H213.569V53.6272H211.997V53.0718H215.779Z" fill="#0F509A"/>
<path d="M221.335 53.0718V55.9553C221.335 56.2936 221.399 56.5757 221.527 56.8005C221.718 57.1388 222.038 57.3087 222.488 57.3087C223.028 57.3087 223.395 57.1258 223.589 56.7586C223.694 56.5598 223.746 56.2917 223.746 55.9553V53.0718H224.384V55.692C224.384 56.2662 224.307 56.7076 224.151 57.0161C223.866 57.5792 223.329 57.8613 222.539 57.8613C221.748 57.8613 221.212 57.5792 220.929 57.0161C220.774 56.7066 220.696 56.2653 220.696 55.692V53.0718H221.335Z" fill="#0F509A"/>
<path d="M229.718 53.0718H231.837C232.187 53.0718 232.475 53.1233 232.701 53.2272C233.133 53.426 233.347 53.7933 233.347 54.3294C233.347 54.6086 233.29 54.8382 233.175 55.0153C233.059 55.1934 232.898 55.3359 232.69 55.4446C232.872 55.5178 233.01 55.616 233.101 55.7368C233.193 55.8571 233.246 56.0535 233.256 56.324L233.278 56.9497C233.285 57.1278 233.3 57.2601 233.323 57.3463C233.36 57.4945 233.429 57.5898 233.526 57.6322V57.7371H232.751C232.73 57.6962 232.714 57.6447 232.701 57.5816C232.689 57.5181 232.677 57.3944 232.669 57.2125L232.632 56.4347C232.617 56.13 232.507 55.9255 232.301 55.822C232.184 55.7647 232 55.7363 231.749 55.7363H230.352V57.7371H229.72V53.0723H229.718V53.0718ZM231.769 55.2083C232.057 55.2083 232.285 55.1491 232.453 55.0302C232.621 54.9113 232.705 54.6976 232.705 54.3891C232.705 54.0565 232.587 53.8298 232.353 53.709C232.228 53.646 232.06 53.6142 231.85 53.6142H230.349V55.2088H231.769V55.2083Z" fill="#0F509A"/>
<path d="M238.689 53.0718H242.074V53.6436H239.305V55.0596H241.865V55.6001H239.305V57.1812H242.122V57.7366H238.688V53.0718H238.689Z" fill="#0F509A"/>
<path d="M246.054 18.835C247.611 18.835 249 19.955 249 21.6978C249 23.4478 247.611 24.5755 246.054 24.5755C244.496 24.5755 243.106 23.4478 243.106 21.6978C243.107 19.9559 244.496 18.835 246.054 18.835ZM246.054 23.9619C247.243 23.9619 248.217 23.0103 248.217 21.6978C248.217 20.393 247.242 19.4491 246.054 19.4491C244.849 19.4491 243.889 20.393 243.889 21.6978C243.889 23.0103 244.85 23.9619 246.054 23.9619ZM244.911 20.0859H246.123C246.93 20.0859 247.382 20.3386 247.382 21.0374C247.382 21.629 247.013 21.859 246.538 21.8966L247.397 23.3015H246.729L245.947 21.9278H245.563V23.3015H244.911V20.0859ZM245.562 21.4287H246.114C246.459 21.4287 246.728 21.3748 246.728 20.9835C246.728 20.6384 246.359 20.5845 246.083 20.5845H245.56V21.4282H245.562V21.4287Z" fill="#0F509A"/>
</svg>
