<svg width="44" height="44" viewBox="0 0 44 44" fill="none" xmlns="http://www.w3.org/2000/svg">
<g clip-path="url(#clip0_4372_772)">
<path fill-rule="evenodd" clip-rule="evenodd" d="M30.9043 12.9109C28.6865 10.6799 25.7294 9.45215 22.5743 9.45215C16.0924 9.45215 10.8119 14.7327 10.8119 21.2277C10.8119 23.3003 11.3532 25.3333 12.3829 27.1155L10.7063 33.2145L16.9505 31.5776C18.6667 32.5149 20.6073 33.0165 22.5743 33.0165C29.0561 33.0165 34.3499 27.736 34.3499 21.2409C34.3499 18.099 33.1221 15.1419 30.9043 12.9109ZM21.9934 0C28.066 0 33.571 2.46865 37.5578 6.44224C41.5446 10.429 44 15.9208 44 22.0066C44 28.0792 41.5314 33.5842 37.5578 37.571C33.571 41.5578 28.0792 44.0132 21.9934 44.0132C15.9208 44.0132 10.4159 41.5446 6.42906 37.571C2.44226 33.5842 -0.0131836 28.0924 -0.0131836 22.0066C-0.0131836 15.934 2.45546 10.429 6.42906 6.44224C10.4159 2.45545 15.9076 0 21.9934 0ZM36.4225 7.56436C32.7261 3.86799 27.6304 1.58416 21.9934 1.58416C16.3565 1.58416 11.2475 3.86799 7.56437 7.56436C3.868 11.2607 1.58418 16.3564 1.58418 21.9934C1.58418 27.6304 3.868 32.7393 7.56437 36.4224C11.2607 40.1188 16.3565 42.4026 21.9934 42.4026C27.6304 42.4026 32.7393 40.1188 36.4225 36.4224C40.1188 32.7261 42.4027 27.6304 42.4027 21.9934C42.4027 16.3564 40.1188 11.2475 36.4225 7.56436ZM22.5743 31.0231C20.8185 31.0231 19.0891 30.5479 17.5974 29.6634L17.2409 29.4521L13.5314 30.4158L14.5215 26.8119L14.2838 26.4422C13.2937 24.8845 12.7789 23.0891 12.7789 21.2409C12.7789 15.8416 17.1749 11.4587 22.5743 11.4587C25.1881 11.4587 27.6436 12.4752 29.4918 14.3234C31.34 16.1716 32.3565 18.6271 32.3565 21.2409C32.3565 26.6403 27.9604 31.0363 22.5743 31.0363V31.0231ZM27.934 23.6964C27.6436 23.5512 26.1914 22.8383 25.9274 22.7459C25.6634 22.6535 25.4654 22.6007 25.2673 22.8911C25.0693 23.1815 24.5017 23.8416 24.3301 24.0396C24.1584 24.2376 23.9868 24.264 23.6964 24.1188C23.406 23.9736 22.4555 23.6568 21.3334 22.6535C20.4621 21.8746 19.868 20.9109 19.6964 20.6205C19.5248 20.33 19.6832 20.1716 19.8284 20.0264C19.9604 19.8944 20.1188 19.6832 20.264 19.5116C20.4093 19.3399 20.4621 19.2211 20.5545 19.0231C20.6469 18.8251 20.6073 18.6535 20.5281 18.5083C20.4489 18.363 19.868 16.9109 19.6172 16.3168C19.3796 15.736 19.1287 15.8152 18.9571 15.8152C18.7855 15.802 18.5875 15.802 18.3895 15.802C18.1914 15.802 17.8746 15.8812 17.6106 16.1716C17.3466 16.462 16.5809 17.1749 16.5809 18.6271C16.5809 20.0792 17.637 21.4653 17.7822 21.6766C17.9274 21.8746 19.8548 24.8449 22.8119 26.1122C23.5116 26.4158 24.066 26.6007 24.4885 26.7327C25.1881 26.9571 25.835 26.9175 26.3367 26.8515C26.9043 26.7723 28.0792 26.1386 28.3301 25.4521C28.5809 24.7657 28.5809 24.1716 28.5017 24.0528C28.4357 23.9208 28.2376 23.8548 27.934 23.6964Z" fill="#E4D11B"/>
</g>
<defs>
<clipPath id="clip0_4372_772">
<rect width="44" height="44" fill="white"/>
</clipPath>
</defs>
</svg>
