<svg width="23" height="23" viewBox="0 0 23 23" fill="none" xmlns="http://www.w3.org/2000/svg">
<circle cx="11.5" cy="11.5" r="11" stroke="#758AFB"/>
<path d="M15.8709 8.08613C14.9707 7.18379 13.7719 6.6875 12.4979 6.6875C9.86816 6.6875 7.72832 8.82734 7.72832 11.457C7.72832 12.2971 7.94746 13.1178 8.36426 13.8418L7.6875 16.3125L10.2162 15.6486C10.9123 16.0289 11.6965 16.2287 12.4957 16.2287H12.4979C15.1254 16.2287 17.3125 14.0889 17.3125 11.4592C17.3125 10.1852 16.7711 8.98848 15.8709 8.08613ZM12.4979 15.4252C11.7846 15.4252 11.0863 15.234 10.4783 14.873L10.3344 14.7871L8.83477 15.1803L9.23438 13.7172L9.13984 13.5668C8.74238 12.9352 8.53398 12.2068 8.53398 11.457C8.53398 9.27207 10.3129 7.49316 12.5 7.49316C13.5592 7.49316 14.5539 7.90566 15.3016 8.65547C16.0492 9.40527 16.509 10.4 16.5068 11.4592C16.5068 13.6463 14.6828 15.4252 12.4979 15.4252ZM14.6721 12.4561C14.5539 12.3959 13.9674 12.108 13.8578 12.0693C13.7482 12.0285 13.6688 12.0092 13.5893 12.1295C13.5098 12.2498 13.282 12.5162 13.2111 12.5979C13.1424 12.6773 13.0715 12.6881 12.9533 12.6279C12.2529 12.2777 11.7932 12.0027 11.3313 11.21C11.2088 10.9994 11.4537 11.0145 11.6814 10.559C11.7201 10.4795 11.7008 10.4107 11.6707 10.3506C11.6406 10.2904 11.4021 9.70391 11.3033 9.46543C11.2066 9.2334 11.1078 9.26562 11.0348 9.26133C10.966 9.25703 10.8865 9.25703 10.807 9.25703C10.7275 9.25703 10.5986 9.28711 10.4891 9.40527C10.3795 9.52559 10.0723 9.81348 10.0723 10.4C10.0723 10.9865 10.4998 11.5537 10.5578 11.6332C10.618 11.7127 11.3979 12.9158 12.5945 13.4336C13.3508 13.7602 13.6473 13.7881 14.0254 13.7322C14.2553 13.6979 14.7301 13.4443 14.8289 13.165C14.9277 12.8857 14.9277 12.6473 14.8977 12.5979C14.8697 12.5441 14.7902 12.5141 14.6721 12.4561Z" fill="#758AFB"/>
</svg>
