<svg width="42" height="42" viewBox="0 0 42 42" fill="none" xmlns="http://www.w3.org/2000/svg">
<g clip-path="url(#clip0_3995_62)">
<path fill-rule="evenodd" clip-rule="evenodd" d="M32.0954 16.4698C32.0954 16.4698 31.8686 14.9073 31.1881 14.2268C30.3312 13.3195 29.3609 13.3195 28.9199 13.2691C25.757 13.0423 20.9937 13.0423 20.9937 13.0423H20.9811C20.9811 13.0423 16.2304 13.0423 13.0549 13.2691C12.6139 13.3195 11.6436 13.3321 10.7867 14.2268C10.1062 14.9073 9.89199 16.4698 9.89199 16.4698C9.89199 16.4698 9.66517 18.297 9.66517 20.1368V21.8506C9.66517 23.6778 9.89199 25.5176 9.89199 25.5176C9.89199 25.5176 10.1188 27.0801 10.7867 27.7606C11.6436 28.6679 12.7777 28.6301 13.2817 28.7309C15.0963 28.9073 20.9811 28.9577 20.9811 28.9577C20.9811 28.9577 25.7444 28.9451 28.9073 28.7183C29.3483 28.6679 30.3186 28.6553 31.1755 27.7606C31.856 27.0801 32.0828 25.5176 32.0828 25.5176C32.0828 25.5176 32.3096 23.6904 32.3096 21.8506V20.1368C32.3096 18.3096 32.0828 16.4698 32.0828 16.4698H32.0954ZM21.0063 0C26.8029 0 32.0576 2.35644 35.8632 6.14942C39.6688 9.955 42.0126 15.1971 42.0126 21.0063C42.0126 26.8029 39.6562 32.0576 35.8632 35.8632C32.0576 39.6688 26.8155 42.0126 21.0063 42.0126C15.2097 42.0126 9.955 39.6562 6.14942 35.8632C2.34383 32.0576 0 26.8155 0 21.0063C0 15.2097 2.35644 9.955 6.14942 6.14942C9.955 2.34383 15.1971 0 21.0063 0ZM34.7795 7.22052C31.2511 3.69217 26.387 1.51215 21.0063 1.51215C15.6256 1.51215 10.7489 3.69217 7.23312 7.22052C3.70477 10.7489 1.52475 15.613 1.52475 20.9937C1.52475 26.3744 3.70477 31.2511 7.23312 34.7669C10.7615 38.2952 15.6256 40.4753 21.0063 40.4753C26.387 40.4753 31.2637 38.2952 34.7795 34.7669C38.3078 31.2385 40.4879 26.3744 40.4879 20.9937C40.4879 15.613 38.3078 10.7363 34.7795 7.22052ZM18.6499 23.9424V17.5788L24.7741 20.7669L18.6499 23.9424Z" fill="#E4D11B"/>
</g>
<defs>
<clipPath id="clip0_3995_62">
<rect width="42" height="42" fill="white"/>
</clipPath>
</defs>
</svg>
