<svg width="123" height="89" viewBox="0 0 123 89" fill="none" xmlns="http://www.w3.org/2000/svg">
<g clip-path="url(#clip0_4422_14)">
<path fill-rule="evenodd" clip-rule="evenodd" d="M83.27 31.14V36.76C83.27 46.54 87.1 51.32 97.06 52.52V53.06C97.02 53.31 96.99 53.56 96.99 53.82V65.1V79.88C86.48 79.9 81 79.99 70.66 80.08C61.73 80.16 52.79 80.24 39.54 80.25V69.48H63.8C67.43 69.48 70.39 66.51 70.39 62.89V6.59C70.39 2.97 67.42 0 63.8 0H6.59C2.97 0 0 2.97 0 6.59V62.89C0 66.52 2.97 69.48 6.59 69.48H31.09V84.48C31.09 86.81 32.98 88.71 35.32 88.71C47.3 88.71 59.01 88.61 70.73 88.5C80.58 88.41 85.58 88.33 101.22 88.33C103.55 88.33 105.45 86.44 105.45 84.1V65.1V53.82C105.45 53.53 105.42 53.25 105.36 52.97V52.43C115.22 51.48 119.15 45.68 119.15 36.21V31.14H83.27ZM31.68 47.97H38.71V43.45C38.71 42.78 38.44 42.18 38 41.74C37.56 41.3 36.96 41.03 36.29 41.03H34.07C33.41 41.03 32.82 41.3 32.38 41.73C31.95 42.16 31.68 42.76 31.68 43.42V47.97V47.97ZM39.04 50.1H31.35C30.86 50.1 30.41 49.9 30.08 49.57C29.75 49.24 29.55 48.8 29.55 48.3V43.42C29.55 42.18 30.06 41.05 30.88 40.23C31.7 39.41 32.83 38.9 34.07 38.9H36.29C37.54 38.9 38.68 39.41 39.5 40.23C40.32 41.05 40.83 42.19 40.83 43.44V48.29C40.83 48.79 40.63 49.23 40.3 49.56C39.99 49.9 39.54 50.1 39.04 50.1ZM24.32 21.65H28.23C28.79 21.65 29.3 21.88 29.67 22.25C30.04 22.62 30.27 23.13 30.27 23.7V32.28C30.27 32.84 30.04 33.35 29.67 33.72C29.3 34.09 28.79 34.32 28.23 34.32H24.32C23.76 34.32 23.25 34.09 22.88 33.72C22.85 33.69 22.83 33.66 22.8 33.63C22.47 33.27 22.27 32.79 22.27 32.27V23.7C22.27 23.14 22.5 22.63 22.87 22.26C23.25 21.88 23.76 21.65 24.32 21.65ZM28.15 23.78H24.4V32.19H28.15V23.78ZM42.16 21.65H46.07C46.63 21.65 47.14 21.88 47.51 22.25C47.88 22.62 48.11 23.13 48.11 23.7V32.28C48.11 32.84 47.88 33.35 47.51 33.72C47.14 34.09 46.63 34.32 46.07 34.32H42.16C41.6 34.32 41.09 34.09 40.72 33.72C40.35 33.35 40.12 32.84 40.12 32.28V23.7C40.12 23.14 40.35 22.63 40.72 22.25C41.08 21.88 41.59 21.65 42.16 21.65ZM45.99 23.78H42.24V32.19H45.99V23.78ZM8.38 57.94C9.96 57.94 11.24 59.22 11.24 60.8C11.24 62.38 9.96 63.66 8.38 63.66C6.8 63.66 5.52 62.38 5.52 60.8C5.51 59.22 6.8 57.94 8.38 57.94ZM62.37 5.47C63.95 5.47 65.23 6.75 65.23 8.33C65.23 9.91 63.95 11.19 62.37 11.19C60.79 11.19 59.51 9.91 59.51 8.33C59.51 6.75 60.79 5.47 62.37 5.47ZM34.96 11.23C47.94 11.23 58.46 21.75 58.46 34.73C58.46 47.71 47.94 58.23 34.96 58.23C21.98 58.23 11.46 47.71 11.46 34.73C11.46 21.76 21.98 11.23 34.96 11.23ZM81.46 23.87H88.48V9.75C88.48 7.75 90.12 6.11 92.12 6.11C94.12 6.11 95.76 7.75 95.76 9.75V23.87H106.45V9.75C106.45 7.75 108.09 6.11 110.09 6.11C112.09 6.11 113.73 7.75 113.73 9.75V23.87H120.56C121.83 23.87 122.86 24.91 122.86 26.17V28.84C122.86 30.11 121.82 31.14 120.56 31.14H81.46C80.19 31.14 79.16 30.1 79.16 28.84V26.17C79.16 24.91 80.19 23.87 81.46 23.87ZM91.5 33.22H110.91V36.1H91.5V33.22Z" fill="white"/>
</g>
<defs>
<clipPath id="clip0_4422_14">
<rect width="122.88" height="88.71" fill="white"/>
</clipPath>
</defs>
</svg>
