<svg width="118" height="123" viewBox="0 0 118 123" fill="none" xmlns="http://www.w3.org/2000/svg">
<g clip-path="url(#clip0_4423_17)">
<path fill-rule="evenodd" clip-rule="evenodd" d="M117.48 99.6599C117.488 103.713 116.429 107.696 114.41 111.21V112H114C112.295 114.639 110.071 116.905 107.465 118.659C104.858 120.414 101.923 121.622 98.8356 122.209C95.7487 122.796 92.5747 122.75 89.5059 122.075C86.4371 121.399 83.5374 120.108 80.9823 118.279C78.4271 116.45 76.2698 114.121 74.6409 111.434C73.0121 108.747 71.9455 105.758 71.5059 102.646C71.0663 99.5349 71.2627 96.3667 72.0834 93.3335C72.904 90.3003 74.3317 87.4652 76.2801 84.9999V81.1199L70.6901 78.8299L58.8501 91.7099H55.5601L43.7201 78.8299L38.1301 81.1199V112H33.7301V82.9999L25.3901 86.4099V112.03H21.0001V88.1099L14.9301 90.5899C11.9334 92.1448 9.34651 94.3856 7.38012 97.1299C5.61024 99.7603 4.57459 102.815 4.38012 105.98V111.98H0.000123454V105.98C-0.00524948 105.933 -0.00524948 105.886 0.000123454 105.84C0.232618 101.906 1.51737 98.1072 3.72012 94.8399C6.07832 91.5142 9.18968 88.7935 12.8001 86.8999C12.9001 86.8399 13.0001 86.7999 13.1001 86.7499L41.8501 74.9999V66.5899C41.5635 66.3432 41.2835 66.0832 41.0101 65.8099C37.0101 61.8099 34.3001 55.9699 33.5301 47.0899L32.0801 45.6099C31.8562 45.4181 31.676 45.1805 31.5518 44.9131C31.4276 44.6457 31.3622 44.3547 31.3601 44.0599V40.6099H35.7501V43.2199L37.2401 44.7299C37.5959 45.0769 37.8098 45.5439 37.8401 46.0399V46.0399C38.4301 54.2499 40.7301 59.5099 44.1401 62.8799C47.5501 66.2499 52.0001 67.6999 57.0601 68.4899C62.0589 67.8644 66.6588 65.44 70.0001 61.6699C73.3101 57.8299 75.3001 52.5199 75.9201 46.0199C75.96 45.6185 76.1204 45.2385 76.3801 44.9299V44.9299L77.7201 43.2799V40.4599H82.1001V43.8399C82.1364 44.3641 81.9719 44.8825 81.6401 45.2899L80.2401 47.0199C79.4001 54.1099 77.1001 59.9999 73.3401 64.3499C72.7862 64.997 72.1952 65.6114 71.5701 66.1899V74.6299L83.0501 79.3199C86.4713 77.425 90.3192 76.4338 94.2301 76.4399V76.4399C100.388 76.4399 106.295 78.8863 110.649 83.2409C115.004 87.5955 117.45 93.5016 117.45 99.6599H117.48ZM47.7201 6.17991C47.4753 6.18977 47.2308 6.15242 47.0001 6.06991C40.6001 8.92991 35.4301 15.2099 34.0001 25.6799C33.9112 26.2436 33.6048 26.7499 33.1467 27.0902C32.6887 27.4304 32.1154 27.5776 31.5501 27.4999C31.2711 27.4725 31.0004 27.39 30.7535 27.2572C30.5066 27.1244 30.2885 26.944 30.1118 26.7264C29.9351 26.5088 29.8033 26.2583 29.7241 25.9894C29.6448 25.7205 29.6197 25.4386 29.6501 25.1599C31.2901 12.9599 37.5501 5.58991 45.2901 2.15991C49.1929 0.491109 53.4349 -0.231867 57.6701 0.0499086C61.894 0.293067 66.0198 1.42075 69.7801 3.35991C77.7001 7.46991 83.7801 15.1399 84.1701 25.3599C84.1781 25.6421 84.1299 25.9231 84.0283 26.1865C83.9267 26.4499 83.7738 26.6905 83.5784 26.8943C83.383 27.0981 83.149 27.261 82.8901 27.3736C82.6311 27.4861 82.3524 27.546 82.0701 27.5499C81.5029 27.5856 80.9446 27.3952 80.5174 27.0204C80.0901 26.6456 79.8287 26.1169 79.7901 25.5499C79.6232 21.6683 78.412 17.9036 76.2842 14.6529C74.1563 11.4022 71.1907 8.78589 67.7001 7.07991L66.8301 6.64991C66.5795 6.7366 66.3152 6.77725 66.0501 6.76991C64.0501 6.76991 63.5401 10.2699 63.4201 15.0599C63.3601 17.1999 63.4201 19.5599 63.4201 21.9699C63.4201 23.8899 63.5001 25.8499 63.5001 27.1499C63.5001 27.7281 63.2704 28.2826 62.8616 28.6914C62.4528 29.1002 61.8983 29.3299 61.3201 29.3299C60.7419 29.3299 60.1875 29.1002 59.7786 28.6914C59.3698 28.2826 59.1401 27.7281 59.1401 27.1499C59.1401 25.0299 59.1401 23.5199 59.0801 22.0399C59.0801 19.5699 58.9901 17.1699 59.0801 14.9499C59.1901 10.6299 59.7001 6.94991 61.2801 4.77991C60.0088 4.50729 58.7183 4.33344 57.4201 4.25991C55.7972 4.16436 54.1688 4.23473 52.5601 4.46991C54.0101 6.71991 54.5101 10.3299 54.6201 14.5599C54.6701 16.8499 54.6201 19.3499 54.6201 21.9099C54.6201 23.4399 54.5601 24.9899 54.5601 27.1499C54.5601 27.7122 54.3368 28.2514 53.9392 28.649C53.5416 29.0466 53.0024 29.2699 52.4401 29.2699C51.8779 29.2699 51.3386 29.0466 50.9411 28.649C50.5435 28.2514 50.3201 27.7122 50.3201 27.1499C50.3201 25.7999 50.3201 23.8099 50.3901 21.8399C50.3901 19.3299 50.4901 16.8399 50.3901 14.6699C50.2801 9.75991 49.7501 6.12991 47.7201 6.17991V6.17991ZM46.2501 69.5799V75.1899L57.2501 87.1199L67.2501 76.2599V69.4199C64.2432 71.1084 60.9462 72.2176 57.5301 72.6899C57.2884 72.73 57.0418 72.73 56.8001 72.6899C53.1565 72.2453 49.6136 71.1906 46.3201 69.5699L46.2501 69.5799ZM29.8701 27.9999C30.6071 29.3503 31.7091 30.4661 33.0501 31.2199C37.9201 34.2199 46.4901 35.7299 55.3301 35.7599C64.1701 35.7899 73.3301 34.3299 79.1701 31.5699C81.1193 30.7834 82.817 29.4799 84.0801 27.7999L87.8401 29.9599C86.1467 32.3499 83.8143 34.2144 81.1101 35.3399C74.6801 38.3899 64.8701 39.9799 55.3201 39.9599C45.7701 39.9399 36.2601 38.2399 30.6601 34.7399C28.622 33.5639 26.9633 31.8289 25.8801 29.7399L29.8801 27.9999H29.8701ZM54.1201 95.9999H59.4401V101.12H54.1201V95.9999ZM54.1201 106.51H59.4401V111.63H54.1201V106.5V106.51ZM97.3501 95.8599H101.5C101.699 95.8587 101.894 95.9116 102.064 96.0131C102.235 96.1145 102.374 96.2606 102.468 96.4355C102.561 96.6104 102.606 96.8076 102.595 97.0057C102.585 97.2039 102.521 97.3955 102.41 97.5599L92.5001 114.48C92.3669 114.699 92.1609 114.864 91.9182 114.946C91.6755 115.028 91.4117 115.022 91.173 114.929C90.9343 114.836 90.7361 114.661 90.613 114.437C90.49 114.212 90.45 113.951 90.5001 113.7L92.0001 103.31L87.0001 103.4C86.808 103.401 86.6191 103.351 86.4528 103.255C86.2865 103.159 86.1489 103.02 86.0541 102.853C85.9594 102.686 85.9109 102.496 85.9137 102.304C85.9165 102.112 85.9705 101.924 86.0701 101.76L95.8201 84.8399C95.9531 84.6332 96.152 84.4775 96.3846 84.3981C96.6172 84.3187 96.8698 84.3203 97.1014 84.4025C97.333 84.4847 97.5301 84.6428 97.6605 84.8511C97.791 85.0594 97.8472 85.3056 97.8201 85.5499L97.3201 95.8599H97.3501Z" fill="white"/>
</g>
<defs>
<clipPath id="clip0_4423_17">
<rect width="117.48" height="122.88" fill="white"/>
</clipPath>
</defs>
</svg>
