<svg width="17" height="17" viewBox="0 0 17 17" fill="none" xmlns="http://www.w3.org/2000/svg">
<g clip-path="url(#clip0_4128_372)">
<path d="M16.3823 0.816668L12.9292 0.0197926C12.554 -0.0665355 12.1688 0.129363 12.0161 0.481316L10.4223 4.20007C10.2829 4.52546 10.3758 4.90729 10.6514 5.12975L12.6635 6.77663C11.4682 9.32331 9.37974 11.4417 6.77993 12.6602L5.13306 10.6481C4.90728 10.3725 4.52876 10.2796 4.20337 10.419L0.484623 12.0128C0.12935 12.1688 -0.0665487 12.554 0.0197794 12.9292L0.816654 16.3823C0.899662 16.7409 1.21841 16.9999 1.59361 16.9999C10.0969 16.9999 16.9999 10.1102 16.9999 1.59362C16.9999 1.22175 16.7442 0.899675 16.3823 0.816668Z" fill="#E4D11B"/>
</g>
<defs>
<clipPath id="clip0_4128_372">
<rect width="17" height="17" fill="white"/>
</clipPath>
</defs>
</svg>
