<svg width="17" height="17" viewBox="0 0 17 17" fill="none" xmlns="http://www.w3.org/2000/svg">
<g clip-path="url(#clip0_4448_2)">
<path d="M7.84484 16.657C3.02049 9.66314 2.125 8.94535 2.125 6.375C2.125 2.85417 4.97917 0 8.5 0C12.0208 0 14.875 2.85417 14.875 6.375C14.875 8.94535 13.9795 9.66314 9.15516 16.657C8.83857 17.1144 8.16139 17.1143 7.84484 16.657ZM8.5 9.03125C9.96701 9.03125 11.1562 7.84201 11.1562 6.375C11.1562 4.90799 9.96701 3.71875 8.5 3.71875C7.03299 3.71875 5.84375 4.90799 5.84375 6.375C5.84375 7.84201 7.03299 9.03125 8.5 9.03125Z" fill="#E4D11B"/>
</g>
<defs>
<clipPath id="clip0_4448_2">
<rect width="17" height="17" fill="white"/>
</clipPath>
</defs>
</svg>
